<svg xmlns="http://www.w3.org/2000/svg" width="160.694" height="50" viewBox="0 0 160.694 50">
  <path id="spotify-logo" d="M25.076.083a25,25,0,1,0,25,25,25,25,0,0,0-25-25h0ZM36.541,36.14a1.558,1.558,0,0,1-2.143.516c-5.87-3.585-13.259-4.4-21.961-2.409a1.559,1.559,0,0,1-.693-3.039C21.266,29.032,29.434,29.969,36.024,34A1.558,1.558,0,0,1,36.541,36.14Zm3.06-6.807a1.949,1.949,0,0,1-2.681.642c-6.72-4.131-16.964-5.327-24.912-2.914a1.949,1.949,0,1,1-1.133-3.73c9.079-2.755,20.367-1.42,28.084,3.322a1.948,1.948,0,0,1,.642,2.68Zm.263-7.088c-8.057-4.786-21.351-5.226-29.044-2.891a2.338,2.338,0,1,1-1.357-4.475c8.831-2.681,23.511-2.163,32.788,3.344a2.338,2.338,0,1,1-2.385,4.022Zm28.229.917c-4.317-1.029-5.084-1.752-5.084-3.27,0-1.434,1.349-2.4,3.359-2.4a9.811,9.811,0,0,1,5.9,2.242.285.285,0,0,0,.4-.063L74.774,16.7a.283.283,0,0,0-.054-.385,12.753,12.753,0,0,0-8.29-2.872c-4.66,0-7.917,2.8-7.917,6.8,0,4.291,2.809,5.811,7.663,6.984C70.305,28.177,71,28.974,71,30.4c0,1.579-1.409,2.561-3.678,2.561a9.928,9.928,0,0,1-6.875-2.839.293.293,0,0,0-.206-.069.28.28,0,0,0-.194.1l-2.364,2.812a.284.284,0,0,0,.027.394,14.088,14.088,0,0,0,9.517,3.648c5.021,0,8.266-2.744,8.266-6.992.009-3.585-2.138-5.57-7.395-6.849l-.009,0ZM86.859,18.9a6.779,6.779,0,0,0-5.436,2.614V19.541a.282.282,0,0,0-.281-.283H77.276a.282.282,0,0,0-.281.283V41.513a.283.283,0,0,0,.281.284h3.866a.283.283,0,0,0,.281-.284V34.578a6.954,6.954,0,0,0,5.436,2.46C90.9,37.038,95,33.925,95,27.972S90.91,18.9,86.862,18.9h0ZM90.5,27.972c0,3.03-1.866,5.146-4.541,5.146-2.642,0-4.636-2.212-4.636-5.146s1.994-5.146,4.636-5.146S90.5,24.989,90.5,27.972ZM105.493,18.9a9.086,9.086,0,1,0,9.258,9.068,9.114,9.114,0,0,0-9.258-9.068Zm0,14.244a4.917,4.917,0,0,1-4.86-5.178,4.8,4.8,0,0,1,4.8-5.115,4.93,4.93,0,0,1,4.89,5.18,4.812,4.812,0,0,1-4.827,5.113Zm20.381-13.891H121.62V14.909a.282.282,0,0,0-.281-.283h-3.866a.285.285,0,0,0-.284.283v4.348h-1.857a.282.282,0,0,0-.281.283v3.322a.282.282,0,0,0,.281.283h1.857v8.6c0,3.472,1.729,5.233,5.141,5.233a7.041,7.041,0,0,0,3.618-.9.276.276,0,0,0,.143-.245V32.665a.282.282,0,0,0-.134-.239.274.274,0,0,0-.275-.012,4.88,4.88,0,0,1-2.269.546c-1.239,0-1.794-.564-1.794-1.824V23.148h4.254a.282.282,0,0,0,.281-.283V19.543a.274.274,0,0,0-.278-.283l0,0Zm14.819.017v-.534c0-1.571.6-2.272,1.952-2.272a6.531,6.531,0,0,1,2.179.4.282.282,0,0,0,.37-.269V13.344a.28.28,0,0,0-.2-.271,10.589,10.589,0,0,0-3.212-.462c-3.567,0-5.457,2.01-5.457,5.812v.818h-1.857a.285.285,0,0,0-.284.283v3.339a.285.285,0,0,0,.284.283h1.857V36.4a.283.283,0,0,0,.284.284h3.863a.282.282,0,0,0,.284-.284V23.147h3.609L149.894,36.4c-.627,1.391-1.245,1.669-2.087,1.669a4.437,4.437,0,0,1-2.132-.606.308.308,0,0,0-.224-.021.281.281,0,0,0-.167.152l-1.311,2.875a.282.282,0,0,0,.122.367,8.134,8.134,0,0,0,4.126,1.057c2.854,0,4.433-1.331,5.821-4.908l6.705-17.326a.283.283,0,0,0-.26-.386h-4.024a.283.283,0,0,0-.269.19l-4.123,11.772-4.514-11.78a.282.282,0,0,0-.263-.182h-6.6Zm-8.592-.017h-3.866a.285.285,0,0,0-.284.283V36.4a.283.283,0,0,0,.284.284H132.1a.283.283,0,0,0,.284-.284V19.542a.283.283,0,0,0-.284-.283h0Zm-1.911-7.678a2.772,2.772,0,1,0,2.77,2.771A2.772,2.772,0,0,0,130.191,11.58Z" transform="translate(-0.076 -0.083)" fill="#1db954"/>
</svg>
