<svg xmlns="http://www.w3.org/2000/svg" width="224.495" height="50" viewBox="0 0 224.495 50">
  <g id="dovetail-logo" transform="translate(-411 -202)">
    <path id="Text" d="M10.92-24.535a14.78,14.78,0,0,1,6.825,1.5,10.729,10.729,0,0,1,4.532,4.288,12.916,12.916,0,0,1,1.593,6.528,12.65,12.65,0,0,1-1.593,6.457A10.816,10.816,0,0,1,17.763-1.5,14.753,14.753,0,0,1,10.92,0H1.68V-24.5Zm0,20.44a8.083,8.083,0,0,0,6.038-2.17,8,8,0,0,0,2.223-5.95,8.171,8.171,0,0,0-2.223-6.02A8.012,8.012,0,0,0,10.92-20.44H6.405V-4.1ZM35,.6A10.167,10.167,0,0,1,30.03-.6a8.348,8.348,0,0,1-3.36-3.343A10.067,10.067,0,0,1,25.48-8.89a9.6,9.6,0,0,1,1.19-4.847,8.156,8.156,0,0,1,3.343-3.22A10.519,10.519,0,0,1,35-18.1a10.415,10.415,0,0,1,4.97,1.138,8.069,8.069,0,0,1,3.307,3.22A9.714,9.714,0,0,1,44.45-8.89a9.994,9.994,0,0,1-1.19,4.918,8.527,8.527,0,0,1-3.325,3.36A9.852,9.852,0,0,1,35,.6Zm0-4.34A4.506,4.506,0,0,0,38.465-5.18a5.241,5.241,0,0,0,1.33-3.71,4.8,4.8,0,0,0-1.312-3.552A4.707,4.707,0,0,0,35-13.755a4.814,4.814,0,0,0-3.535,1.313,4.765,4.765,0,0,0-1.33,3.552,5.2,5.2,0,0,0,1.347,3.71A4.6,4.6,0,0,0,35-3.745ZM63.84-17.5,58.345,0h-7.35L45.5-17.5h4.9L54.67-3.885,58.94-17.5Zm10.465-.6a10.389,10.389,0,0,1,4.987,1.155,8.1,8.1,0,0,1,3.325,3.273A9.913,9.913,0,0,1,83.79-8.785q0,.7-.035,1.05l-.1-.035v.035l-14-.035a4.755,4.755,0,0,0,1.592,2.94,4.775,4.775,0,0,0,3.2,1.085,4.976,4.976,0,0,0,2.73-.735A3.693,3.693,0,0,0,78.75-6.475l4.305,1.96A7.215,7.215,0,0,1,79.87-.788,10.158,10.158,0,0,1,74.55.6,10.221,10.221,0,0,1,69.527-.613a8.671,8.671,0,0,1-3.412-3.36A9.766,9.766,0,0,1,64.89-8.89a9.714,9.714,0,0,1,1.173-4.847,8.069,8.069,0,0,1,3.308-3.22A10.338,10.338,0,0,1,74.305-18.1Zm.14,4.34a5.26,5.26,0,0,0-2.87.752,4.048,4.048,0,0,0-1.68,2.118H78.82A4.132,4.132,0,0,0,77.192-13,4.867,4.867,0,0,0,74.445-13.755ZM102.9-4.9a4.573,4.573,0,0,1-.91,2.8A6.012,6.012,0,0,1,99.54-.193,8.286,8.286,0,0,1,96.145.49a6.059,6.059,0,0,1-5.04-2.153A9.278,9.278,0,0,1,89.39-7.6v-6.3H84.42v-3.6h2.835q1.33,0,1.732-.577a3.952,3.952,0,0,0,.4-2.118v-3.29h4.69V-17.5h6.51v3.6H94.08v6.3a5.869,5.869,0,0,0,.613,2.94,1.966,1.966,0,0,0,1.8,1.05,2.412,2.412,0,0,0,1.873-.84A3.18,3.18,0,0,0,99.12-6.65ZM112.07.6A8.6,8.6,0,0,1,106.505-.98a5.078,5.078,0,0,1-1.925-4.13,4.716,4.716,0,0,1,1.8-3.867,9.336,9.336,0,0,1,5.162-1.733,18.472,18.472,0,0,0,4.043-.648q1.137-.4,1.138-1.172,0-.8-1.05-1.26a6.724,6.724,0,0,0-2.66-.455,5.935,5.935,0,0,0-2.537.472,2.014,2.014,0,0,0-1.207,1.313l-4.1-1.155a4.038,4.038,0,0,1,1.417-2.345,8.2,8.2,0,0,1,2.975-1.575,13.217,13.217,0,0,1,3.938-.56,8.738,8.738,0,0,1,5.9,1.8,6.125,6.125,0,0,1,2.082,4.883v5.6a1.9,1.9,0,0,0,.735,1.75,1.428,1.428,0,0,0,.84.245,2.948,2.948,0,0,0,.525-.07v3.85a4.233,4.233,0,0,1-1.855.42,4.1,4.1,0,0,1-1.47-.28,3.652,3.652,0,0,1-1.435-1,2.965,2.965,0,0,1-.7-1.452,3.424,3.424,0,0,1-2.118,2.1A9.206,9.206,0,0,1,112.07.6ZM112-3.185a4.746,4.746,0,0,0,3.482-1.33,4.859,4.859,0,0,0,1.383-3.535,3,3,0,0,1-1.645.752,27.561,27.561,0,0,1-3.325.438,3.684,3.684,0,0,0-1.943.577,1.515,1.515,0,0,0-.717,1.278,1.527,1.527,0,0,0,.753,1.313A3.546,3.546,0,0,0,112-3.185ZM129.92-23.52a2.963,2.963,0,0,1,.875-2.153,2.876,2.876,0,0,1,2.135-.892,2.933,2.933,0,0,1,2.153.892,2.933,2.933,0,0,1,.893,2.153,2.963,2.963,0,0,1-.875,2.153,2.917,2.917,0,0,1-2.17.892,2.9,2.9,0,0,1-2.135-.875A2.947,2.947,0,0,1,129.92-23.52ZM125.265-3.605h5.915V-13.9h-5.915v-3.64h10.6v13.93h5.5V0h-16.1ZM141.12-24.85h8.75V-6.965a3.564,3.564,0,0,0,.8,2.45,2.632,2.632,0,0,0,2.065.91,2.461,2.461,0,0,0,2.135-1.1,5.145,5.145,0,0,0,.77-2.992l3.85,1.75a6.348,6.348,0,0,1-1.838,4.69A6.759,6.759,0,0,1,152.74.49,8.208,8.208,0,0,1,148.8-.42a6.463,6.463,0,0,1-2.643-2.608,7.961,7.961,0,0,1-.945-3.938v-13.79h-4.1Z" transform="translate(476 238)" fill="#111"/>
    <rect id="Logo" width="50" height="50" rx="10" transform="translate(411 202)" fill="#4300ff"/>
  </g>
</svg>
