<svg xmlns="http://www.w3.org/2000/svg" xmlns:xlink="http://www.w3.org/1999/xlink" width="900" height="954" viewBox="0 0 900 954">
  <defs>
    <clipPath id="clip-dovetail-onboarding">
      <rect width="900" height="954"/>
    </clipPath>
  </defs>
  <g id="dovetail-onboarding" clip-path="url(#clip-dovetail-onboarding)">
    <path id="Background" d="M6.767,0H893.233C896.97,0,900,5.875,900,13.122V940.878c0,7.247-3.03,13.122-6.767,13.122H6.767C3.03,954,0,948.125,0,940.878V13.122C0,5.875,3.03,0,6.767,0Z" fill="#ece5ff"/>
    <g id="Code" transform="translate(40 40)">
      <rect id="Card" width="390" height="338" rx="20" fill="#fff"/>
      <g id="Heading">
        <path id="Path_2" data-name="Path 2" d="M9.072-16.8H2.52V0h2.4V-5.088H9.072c4.368,0,7.008-2.208,7.008-5.856S13.44-16.8,9.072-16.8ZM9-7.176H4.92v-7.536H9c3.072,0,4.68,1.368,4.68,3.768S12.072-7.176,9-7.176ZM19.512,0h2.3V-17.808h-2.3ZM37.7-6.288c0-3.912-2.616-6.552-6.288-6.552a6.23,6.23,0,0,0-6.384,6.48c0,3.792,2.736,6.5,6.84,6.5A6.385,6.385,0,0,0,36.888-1.92L35.616-3.408a4.749,4.749,0,0,1-3.672,1.536,4.308,4.308,0,0,1-4.608-3.72h10.32C37.68-5.808,37.7-6.1,37.7-6.288ZM31.416-10.9A3.967,3.967,0,0,1,35.5-7.248h-8.16A3.965,3.965,0,0,1,31.416-10.9ZM45.168-12.84a8.471,8.471,0,0,0-5.256,1.632l.96,1.728A6.433,6.433,0,0,1,44.9-10.848c2.28,0,3.408,1.128,3.408,3.072v.456H44.664c-3.792,0-5.112,1.68-5.112,3.72,0,2.208,1.824,3.744,4.7,3.744A4.722,4.722,0,0,0,48.432-1.68V0h2.184V-7.68C50.616-11.16,48.648-12.84,45.168-12.84ZM44.64-1.632c-1.752,0-2.808-.792-2.808-2.064,0-1.08.648-1.968,2.928-1.968h3.552v1.776A3.689,3.689,0,0,1,44.64-1.632ZM58.536.144c3.384,0,5.5-1.464,5.5-3.768,0-4.944-8.064-2.5-8.064-5.5,0-1.008.984-1.752,3-1.752A6.643,6.643,0,0,1,62.64-9.864l.984-1.824a9.256,9.256,0,0,0-4.632-1.152c-3.264,0-5.3,1.536-5.3,3.816,0,5.064,8.04,2.592,8.04,5.448,0,1.08-.888,1.728-3.024,1.728a8.174,8.174,0,0,1-4.464-1.32l-.96,1.824A9.18,9.18,0,0,0,58.536.144ZM78.408-6.288c0-3.912-2.616-6.552-6.288-6.552a6.23,6.23,0,0,0-6.384,6.48c0,3.792,2.736,6.5,6.84,6.5A6.385,6.385,0,0,0,77.592-1.92L76.32-3.408a4.749,4.749,0,0,1-3.672,1.536,4.308,4.308,0,0,1-4.608-3.72H78.36C78.384-5.808,78.408-6.1,78.408-6.288ZM72.12-10.9A3.967,3.967,0,0,1,76.2-7.248H68.04A3.965,3.965,0,0,1,72.12-10.9ZM99.552-6.288c0-3.912-2.616-6.552-6.288-6.552A6.23,6.23,0,0,0,86.88-6.36c0,3.792,2.736,6.5,6.84,6.5A6.385,6.385,0,0,0,98.736-1.92L97.464-3.408a4.749,4.749,0,0,1-3.672,1.536,4.308,4.308,0,0,1-4.608-3.72H99.5C99.528-5.808,99.552-6.1,99.552-6.288ZM93.264-10.9a3.967,3.967,0,0,1,4.08,3.648h-8.16A3.965,3.965,0,0,1,93.264-10.9Zm16.272-1.944a5.453,5.453,0,0,0-4.584,2.04v-1.92h-2.208V0h2.3V-6.552c0-2.76,1.584-4.224,4.032-4.224,2.184,0,3.432,1.224,3.432,3.72V0h2.3V-7.32C114.816-11.064,112.632-12.84,109.536-12.84ZM125.52-2.4a2.9,2.9,0,0,1-1.8.6,1.874,1.874,0,0,1-1.992-2.136v-6.888h3.648v-1.9h-3.648V-15.5h-2.3v2.784h-2.16v1.9h2.16V-3.84c0,2.568,1.464,3.984,4.032,3.984a4.346,4.346,0,0,0,2.784-.888Zm14.568-3.888c0-3.912-2.616-6.552-6.288-6.552a6.23,6.23,0,0,0-6.384,6.48c0,3.792,2.736,6.5,6.84,6.5a6.385,6.385,0,0,0,5.016-2.064L138-3.408a4.749,4.749,0,0,1-3.672,1.536,4.308,4.308,0,0,1-4.608-3.72h10.32C140.064-5.808,140.088-6.1,140.088-6.288ZM133.8-10.9a3.967,3.967,0,0,1,4.08,3.648h-8.16A3.965,3.965,0,0,1,133.8-10.9Zm11.688.312V-12.72H143.28V0h2.3V-6.336c0-2.784,1.536-4.3,4.008-4.3a4.068,4.068,0,0,1,.528.024V-12.84C147.888-12.84,146.3-12.072,145.488-10.584Zm23.088-2.136L164.184-2.544l-4.44-10.176h-2.4l5.616,12.7-.408.888c-.624,1.464-1.32,1.968-2.424,1.968a3.255,3.255,0,0,1-2.28-.936l-.984,1.728A4.776,4.776,0,0,0,160.128,4.8c1.944,0,3.408-.84,4.536-3.528l6.168-13.992ZM178.08.144a6.329,6.329,0,0,0,6.6-6.5,6.31,6.31,0,0,0-6.6-6.48,6.329,6.329,0,0,0-6.624,6.48A6.349,6.349,0,0,0,178.08.144Zm0-2.016a4.212,4.212,0,0,1-4.3-4.488,4.192,4.192,0,0,1,4.3-4.464,4.173,4.173,0,0,1,4.272,4.464A4.193,4.193,0,0,1,178.08-1.872ZM197.424-12.72v6.576c0,2.736-1.536,4.224-3.936,4.224-2.184,0-3.432-1.248-3.432-3.744V-12.72h-2.3V-5.4c0,3.744,2.184,5.544,5.472,5.544a5.175,5.175,0,0,0,4.32-2.064V0h2.184V-12.72Zm8.9,2.136V-12.72H204.12V0h2.3V-6.336c0-2.784,1.536-4.3,4.008-4.3a4.068,4.068,0,0,1,.528.024V-12.84C208.728-12.84,207.144-12.072,206.328-10.584Z" transform="translate(89.112 73)" fill="#110e32"/>
        <path id="Path_1" data-name="Path 1" d="M5.952-10.1H4.08l.456-4.608H12V-16.8H2.52L1.632-8.016H5.448c3.888,0,5.088,1.176,5.088,3.072,0,1.824-1.44,3-3.984,3a7.547,7.547,0,0,1-5.04-1.8l-1.1,1.9A9.623,9.623,0,0,0,6.576.192c4.3,0,6.36-2.328,6.36-5.232C12.936-8.016,10.968-10.1,5.952-10.1Zm9.192,4.512H21.6V-7.584H15.144ZM35.088-17.808V-10.8a5.412,5.412,0,0,0-4.44-2.04,6.174,6.174,0,0,0-6.432,6.48,6.193,6.193,0,0,0,6.432,6.5,5.374,5.374,0,0,0,4.536-2.16V0h2.208V-17.808ZM30.84-1.872a4.212,4.212,0,0,1-4.3-4.488,4.192,4.192,0,0,1,4.3-4.464A4.186,4.186,0,0,1,35.112-6.36,4.207,4.207,0,0,1,30.84-1.872Zm12.072-13.3a1.508,1.508,0,0,0,1.56-1.536,1.493,1.493,0,0,0-1.56-1.464,1.517,1.517,0,0,0-1.56,1.512A1.5,1.5,0,0,0,42.912-15.168ZM41.76,0h2.3V-12.72h-2.3ZM58.44-12.72v1.968a5.8,5.8,0,0,0-4.7-2.088c-3.672,0-6.456,2.472-6.456,6.144S50.064-.528,53.736-.528A5.82,5.82,0,0,0,58.32-2.5v1.008c0,2.88-1.368,4.272-4.368,4.272a7.764,7.764,0,0,1-4.9-1.656L47.952,2.9a9.417,9.417,0,0,0,6.072,1.9c4.32,0,6.6-2.04,6.6-6.528V-12.72ZM54-2.544A4.1,4.1,0,0,1,49.608-6.7,4.068,4.068,0,0,1,54-10.824,4.061,4.061,0,0,1,58.368-6.7,4.093,4.093,0,0,1,54-2.544ZM66.168-15.168a1.508,1.508,0,0,0,1.56-1.536,1.493,1.493,0,0,0-1.56-1.464,1.517,1.517,0,0,0-1.56,1.512A1.5,1.5,0,0,0,66.168-15.168ZM65.016,0h2.3V-12.72h-2.3ZM78.144-2.4a2.9,2.9,0,0,1-1.8.6,1.874,1.874,0,0,1-1.992-2.136v-6.888H78v-1.9H74.352V-15.5h-2.3v2.784h-2.16v1.9h2.16V-3.84c0,2.568,1.464,3.984,4.032,3.984a4.346,4.346,0,0,0,2.784-.888ZM92.736-12.84a8.471,8.471,0,0,0-5.256,1.632l.96,1.728a6.433,6.433,0,0,1,4.032-1.368c2.28,0,3.408,1.128,3.408,3.072v.456H92.232c-3.792,0-5.112,1.68-5.112,3.72,0,2.208,1.824,3.744,4.7,3.744A4.722,4.722,0,0,0,96-1.68V0h2.184V-7.68C98.184-11.16,96.216-12.84,92.736-12.84ZM92.208-1.632c-1.752,0-2.808-.792-2.808-2.064,0-1.08.648-1.968,2.928-1.968H95.88v1.776A3.689,3.689,0,0,1,92.208-1.632ZM108.072.144a5.691,5.691,0,0,0,5.184-2.736L111.5-3.7a3.965,3.965,0,0,1-3.456,1.824A4.215,4.215,0,0,1,103.68-6.36a4.221,4.221,0,0,1,4.368-4.464A3.965,3.965,0,0,1,111.5-9l1.752-1.128a5.673,5.673,0,0,0-5.184-2.712,6.355,6.355,0,0,0-6.72,6.48A6.374,6.374,0,0,0,108.072.144Zm13.512,0a5.691,5.691,0,0,0,5.184-2.736l-1.752-1.1a3.965,3.965,0,0,1-3.456,1.824,4.215,4.215,0,0,1-4.368-4.488,4.221,4.221,0,0,1,4.368-4.464A3.965,3.965,0,0,1,125.016-9l1.752-1.128a5.673,5.673,0,0,0-5.184-2.712,6.355,6.355,0,0,0-6.72,6.48A6.374,6.374,0,0,0,121.584.144Zm19.464-6.432c0-3.912-2.616-6.552-6.288-6.552a6.23,6.23,0,0,0-6.384,6.48c0,3.792,2.736,6.5,6.84,6.5a6.385,6.385,0,0,0,5.016-2.064L138.96-3.408a4.749,4.749,0,0,1-3.672,1.536,4.308,4.308,0,0,1-4.608-3.72H141C141.024-5.808,141.048-6.1,141.048-6.288ZM134.76-10.9a3.967,3.967,0,0,1,4.08,3.648h-8.16A3.965,3.965,0,0,1,134.76-10.9ZM147.888.144c3.384,0,5.5-1.464,5.5-3.768,0-4.944-8.064-2.5-8.064-5.5,0-1.008.984-1.752,3-1.752a6.643,6.643,0,0,1,3.672,1.008l.984-1.824a9.256,9.256,0,0,0-4.632-1.152c-3.264,0-5.3,1.536-5.3,3.816,0,5.064,8.04,2.592,8.04,5.448,0,1.08-.888,1.728-3.024,1.728a8.174,8.174,0,0,1-4.464-1.32l-.96,1.824A9.18,9.18,0,0,0,147.888.144Zm12.024,0c3.384,0,5.5-1.464,5.5-3.768,0-4.944-8.064-2.5-8.064-5.5,0-1.008.984-1.752,3-1.752a6.643,6.643,0,0,1,3.672,1.008L165-11.688a9.256,9.256,0,0,0-4.632-1.152c-3.264,0-5.3,1.536-5.3,3.816,0,5.064,8.04,2.592,8.04,5.448,0,1.08-.888,1.728-3.024,1.728a8.174,8.174,0,0,1-4.464-1.32l-.96,1.824A9.18,9.18,0,0,0,159.912.144Zm20.376,0a5.691,5.691,0,0,0,5.184-2.736L183.72-3.7a3.965,3.965,0,0,1-3.456,1.824A4.215,4.215,0,0,1,175.9-6.36a4.221,4.221,0,0,1,4.368-4.464A3.965,3.965,0,0,1,183.72-9l1.752-1.128a5.673,5.673,0,0,0-5.184-2.712,6.355,6.355,0,0,0-6.72,6.48A6.374,6.374,0,0,0,180.288.144Zm13.416,0a6.329,6.329,0,0,0,6.6-6.5,6.31,6.31,0,0,0-6.6-6.48,6.329,6.329,0,0,0-6.624,6.48A6.349,6.349,0,0,0,193.7.144Zm0-2.016a4.212,4.212,0,0,1-4.3-4.488,4.192,4.192,0,0,1,4.3-4.464,4.173,4.173,0,0,1,4.272,4.464A4.193,4.193,0,0,1,193.7-1.872Zm19.488-15.936V-10.8a5.412,5.412,0,0,0-4.44-2.04,6.174,6.174,0,0,0-6.432,6.48,6.193,6.193,0,0,0,6.432,6.5,5.374,5.374,0,0,0,4.536-2.16V0H215.5V-17.808ZM208.944-1.872a4.212,4.212,0,0,1-4.3-4.488,4.192,4.192,0,0,1,4.3-4.464,4.186,4.186,0,0,1,4.272,4.464A4.207,4.207,0,0,1,208.944-1.872ZM231.36-6.288c0-3.912-2.616-6.552-6.288-6.552a6.23,6.23,0,0,0-6.384,6.48c0,3.792,2.736,6.5,6.84,6.5a6.385,6.385,0,0,0,5.016-2.064l-1.272-1.488A4.749,4.749,0,0,1,225.6-1.872a4.308,4.308,0,0,1-4.608-3.72h10.32C231.336-5.808,231.36-6.1,231.36-6.288ZM225.072-10.9a3.967,3.967,0,0,1,4.08,3.648h-8.16A3.965,3.965,0,0,1,225.072-10.9Z" transform="translate(78.816 99)" fill="#110e32"/>
      </g>
      <g id="Box_1" data-name="Box 1" transform="translate(49 135)" fill="#fff" stroke="#4300ff" stroke-width="1" opacity="0.5">
        <rect width="49" height="49" rx="8" stroke="none"/>
        <rect x="0.5" y="0.5" width="48" height="48" rx="7.5" fill="none"/>
      </g>
      <path id="_7" data-name="7" d="M.72-16.8v5.088h2.3v-3H10.7L4.056,0H6.6l6.792-15.168V-16.8Z" transform="translate(66.824 168)" fill="#413e5b"/>
      <g id="Box_2" data-name="Box 2" transform="translate(110 135)" fill="#fff" stroke="#4300ff" stroke-width="1" opacity="0.5">
        <rect width="49" height="49" rx="8" stroke="none"/>
        <rect x="0.5" y="0.5" width="48" height="48" rx="7.5" fill="none"/>
      </g>
      <path id="_3" data-name="3" d="M7.584-9.744l4.392-5.424V-16.8H.888v2.088H8.976L4.752-9.528v1.68H6.1c2.88,0,4.152,1.152,4.152,2.928,0,1.824-1.44,2.976-3.96,2.976a7.566,7.566,0,0,1-5.064-1.8l-1.1,1.9A9.527,9.527,0,0,0,6.288.192c4.272,0,6.36-2.3,6.36-5.136C12.648-7.536,10.944-9.432,7.584-9.744Z" transform="translate(128.136 168)" fill="#413e5b"/>
      <g id="Box_3" data-name="Box 3" transform="translate(171 135)" fill="#fff" stroke="#4300ff" stroke-width="1" opacity="0.5">
        <rect width="49" height="49" rx="8" stroke="none"/>
        <rect x="0.5" y="0.5" width="48" height="48" rx="7.5" fill="none"/>
      </g>
      <path id="_1" data-name="1" d="M.192-16.8v2.088H3.984V0H6.36V-16.8Z" transform="translate(190.56 168)" fill="#413e5b"/>
      <rect id="Box_outline" data-name="Box outline" width="53" height="53" rx="9" transform="translate(230 133)" fill="#4300ff" opacity="0.15"/>
      <g id="Box_4" data-name="Box 4" transform="translate(232 135)" fill="#fff" stroke="#4300ff" stroke-width="1">
        <rect width="49" height="49" rx="8" stroke="none"/>
        <rect x="0.5" y="0.5" width="48" height="48" rx="7.5" fill="none"/>
      </g>
      <line id="Cursor" y2="28" transform="translate(256.5 145.5)" fill="none" stroke="#4300ff" stroke-width="1"/>
      <g id="Box_5" data-name="Box 5" transform="translate(293 135)" fill="#fff" stroke="#bfbfbf" stroke-width="1">
        <rect width="49" height="49" rx="8" stroke="none"/>
        <rect x="0.5" y="0.5" width="48" height="48" rx="7.5" fill="none"/>
      </g>
      <rect id="Button" width="293" height="45" rx="8" transform="translate(49 204)" fill="#4300ff"/>
      <path id="Continue" d="M7.524.144a6.252,6.252,0,0,0,4.806-1.98L11.16-2.97A4.685,4.685,0,0,1,7.614-1.458,4.759,4.759,0,0,1,2.664-6.3a4.759,4.759,0,0,1,4.95-4.842A4.669,4.669,0,0,1,11.16-9.648l1.17-1.134a6.226,6.226,0,0,0-4.788-1.962A6.373,6.373,0,0,0,.864-6.3,6.369,6.369,0,0,0,7.524.144ZM18.342.108a4.747,4.747,0,0,0,4.95-4.878,4.732,4.732,0,0,0-4.95-4.86,4.747,4.747,0,0,0-4.968,4.86A4.762,4.762,0,0,0,18.342.108Zm0-1.512A3.159,3.159,0,0,1,15.12-4.77a3.144,3.144,0,0,1,3.222-3.348,3.13,3.13,0,0,1,3.2,3.348A3.145,3.145,0,0,1,18.342-1.4ZM30.78-9.63A4.089,4.089,0,0,0,27.342-8.1V-9.54H25.686V0h1.728V-4.914a2.833,2.833,0,0,1,3.024-3.168c1.638,0,2.574.918,2.574,2.79V0H34.74V-5.49C34.74-8.3,33.1-9.63,30.78-9.63ZM42.768-1.8a2.176,2.176,0,0,1-1.35.45,1.406,1.406,0,0,1-1.494-1.6V-8.118H42.66V-9.54H39.924v-2.088H38.2V-9.54h-1.62v1.422H38.2V-2.88A2.722,2.722,0,0,0,41.22.108a3.26,3.26,0,0,0,2.088-.666Zm3.492-9.576a1.131,1.131,0,0,0,1.17-1.152,1.12,1.12,0,0,0-1.17-1.1,1.138,1.138,0,0,0-1.17,1.134A1.123,1.123,0,0,0,46.26-11.376ZM45.4,0h1.728V-9.54H45.4ZM55.512-9.63A4.089,4.089,0,0,0,52.074-8.1V-9.54H50.418V0h1.728V-4.914A2.833,2.833,0,0,1,55.17-8.082c1.638,0,2.574.918,2.574,2.79V0h1.728V-5.49C59.472-8.3,57.834-9.63,55.512-9.63Zm14.328.09v4.932c0,2.052-1.152,3.168-2.952,3.168-1.638,0-2.574-.936-2.574-2.808V-9.54H62.586v5.49c0,2.808,1.638,4.158,4.1,4.158A3.882,3.882,0,0,0,69.93-1.44V0h1.638V-9.54ZM83.484-4.716A4.6,4.6,0,0,0,78.768-9.63,4.672,4.672,0,0,0,73.98-4.77,4.776,4.776,0,0,0,79.11.108,4.788,4.788,0,0,0,82.872-1.44l-.954-1.116A3.562,3.562,0,0,1,79.164-1.4a3.231,3.231,0,0,1-3.456-2.79h7.74C83.466-4.356,83.484-4.572,83.484-4.716ZM78.768-8.172a2.975,2.975,0,0,1,3.06,2.736h-6.12A2.974,2.974,0,0,1,78.768-8.172Z" transform="translate(152.88 233)" fill="#fff"/>
      <path id="Need_help_" data-name="Need help?" d="M10.016-11.2v9.088L2.8-11.2H1.824V0H3.008V-9.088L10.208,0h.976V-11.2Zm11.92,6.992a4.01,4.01,0,0,0-4.08-4.272,4.053,4.053,0,0,0-4.112,4.272A4.168,4.168,0,0,0,18.16.08,4.143,4.143,0,0,0,21.408-1.3l-.64-.736a3.317,3.317,0,0,1-2.576,1.1A3.115,3.115,0,0,1,14.88-3.856h7.04C21.92-3.984,21.936-4.112,21.936-4.208Zm-4.08-3.3a2.927,2.927,0,0,1,2.992,2.8H14.88A2.923,2.923,0,0,1,17.856-7.5ZM31.6-4.208A4.01,4.01,0,0,0,27.52-8.48a4.053,4.053,0,0,0-4.112,4.272A4.168,4.168,0,0,0,27.824.08,4.143,4.143,0,0,0,31.072-1.3l-.64-.736a3.317,3.317,0,0,1-2.576,1.1,3.115,3.115,0,0,1-3.312-2.928h7.04C31.584-3.984,31.6-4.112,31.6-4.208ZM27.52-7.5a2.927,2.927,0,0,1,2.992,2.8H24.544A2.923,2.923,0,0,1,27.52-7.5Zm12.944-4.368v5.056a3.676,3.676,0,0,0-3.2-1.664,4.071,4.071,0,0,0-4.192,4.272A4.085,4.085,0,0,0,37.264.08a3.646,3.646,0,0,0,3.248-1.744V0H41.6V-11.872ZM37.36-.928a3.081,3.081,0,0,1-3.136-3.28,3.081,3.081,0,0,1,3.136-3.28,3.078,3.078,0,0,1,3.12,3.28A3.078,3.078,0,0,1,37.36-.928ZM53.248-8.48A3.557,3.557,0,0,0,50.1-6.944v-4.928H48.96V0H50.1V-4.416a2.759,2.759,0,0,1,2.944-3.04c1.6,0,2.528.912,2.528,2.688V0H56.7V-4.88C56.7-7.3,55.3-8.48,53.248-8.48Zm13.92,4.272a4.01,4.01,0,0,0-4.08-4.272,4.053,4.053,0,0,0-4.112,4.272A4.168,4.168,0,0,0,63.392.08,4.143,4.143,0,0,0,66.64-1.3L66-2.032a3.317,3.317,0,0,1-2.576,1.1,3.115,3.115,0,0,1-3.312-2.928h7.04C67.152-3.984,67.168-4.112,67.168-4.208Zm-4.08-3.3A2.927,2.927,0,0,1,66.08-4.7H60.112A2.923,2.923,0,0,1,63.088-7.5Zm6.4,7.5h1.136V-11.872H69.488Zm8.64-8.48A3.666,3.666,0,0,0,74.88-6.752V-8.416H73.792V3.1h1.136V-1.584A3.676,3.676,0,0,0,78.128.08,4.076,4.076,0,0,0,82.32-4.208,4.071,4.071,0,0,0,78.128-8.48Zm-.08,7.552a3.081,3.081,0,0,1-3.136-3.28,3.09,3.09,0,0,1,3.136-3.28,3.1,3.1,0,0,1,3.136,3.28A3.09,3.09,0,0,1,78.048-.928Zm8-2.432h1.184c0-2.288,2.928-2.416,2.928-5.152,0-1.712-1.44-2.784-3.68-2.784A4.889,4.889,0,0,0,82.5-9.632l.848.64a3.725,3.725,0,0,1,3.056-1.3c1.632,0,2.576.8,2.576,1.952C88.976-6.24,86.048-6,86.048-3.36ZM86.64.08a.84.84,0,0,0,.848-.832.817.817,0,0,0-.848-.816.813.813,0,0,0-.832.816A.837.837,0,0,0,86.64.08Z" transform="translate(149.32 284)" fill="#767488"/>
    </g>
    <g id="Greeting" transform="translate(470 40)">
      <rect id="Card-2" data-name="Card" width="390" height="269" rx="20" fill="#fff"/>
      <g id="Heading-2" data-name="Heading">
        <text id="Hi_You_must_be" data-name="Hi! You must be" transform="translate(98.904 73)" fill="#110e32" font-size="24" font-family="Montserrat-Medium, Montserrat" font-weight="500"><tspan x="0" y="0">Hi! You must be</tspan></text>
        <text id="from_unit_54_at_Ivy" data-name="from unit 54 at Ivy" transform="translate(83.1 99)" fill="#110e32" font-size="24" font-family="Montserrat-Medium, Montserrat" font-weight="500"><tspan x="0" y="0">from unit 54 at Ivy</tspan></text>
      </g>
      <rect id="Button-2" data-name="Button" width="293" height="45" rx="8" transform="translate(49 135)" fill="#4300ff"/>
      <text id="That_s_right_" data-name="That&apos;s right!" transform="translate(141.045 164)" fill="#fff" font-size="18" font-family="Montserrat-Medium, Montserrat" font-weight="500"><tspan x="0" y="0">That&apos;s right!</tspan></text>
      <path id="Arrow_icon" data-name="Arrow icon" d="M4.982,12.686h0A.591.591,0,0,1,4.9,12.61L.172,7.935a.575.575,0,0,1,0-.823.6.6,0,0,1,.769-.055l.067.057,3.734,3.694V.581A.591.591,0,0,1,5.918.5l.005.078V10.811l3.734-3.7a.6.6,0,0,1,.835,0,.576.576,0,0,1,.059.758l-.057.065L5.752,12.629a.6.6,0,0,1-.77.057Z" transform="translate(155.8 204.167) rotate(90)" fill="#767488"/>
      <text id="Retry_code" data-name="Retry code" transform="translate(160.672 215)" fill="#767488" font-size="16" font-family="Montserrat-Regular, Montserrat"><tspan x="0" y="0">Retry code</tspan></text>
    </g>
    <g id="Register" transform="translate(40 418)">
      <rect id="Card-3" data-name="Card" width="390" height="475" rx="20" fill="#fff"/>
      <g id="Heading-3" data-name="Heading">
        <path id="Path_4" data-name="Path 4" d="M2.52,0h11.5V-2.088H4.92V-16.8H2.52ZM27.768-6.288c0-3.912-2.616-6.552-6.288-6.552A6.23,6.23,0,0,0,15.1-6.36c0,3.792,2.736,6.5,6.84,6.5A6.385,6.385,0,0,0,26.952-1.92L25.68-3.408a4.749,4.749,0,0,1-3.672,1.536A4.308,4.308,0,0,1,17.4-5.592H27.72C27.744-5.808,27.768-6.1,27.768-6.288ZM21.48-10.9a3.967,3.967,0,0,1,4.08,3.648H17.4A3.965,3.965,0,0,1,21.48-10.9ZM37.392-2.4a2.9,2.9,0,0,1-1.8.6A1.874,1.874,0,0,1,33.6-3.936v-6.888h3.648v-1.9H33.6V-15.5H31.3v2.784h-2.16v1.9H31.3V-3.84C31.3-1.272,32.76.144,35.328.144a4.346,4.346,0,0,0,2.784-.888Zm2.976-7.92h1.7l.168-6.48H40.224ZM49.584.144c3.384,0,5.5-1.464,5.5-3.768,0-4.944-8.064-2.5-8.064-5.5,0-1.008.984-1.752,3-1.752a6.643,6.643,0,0,1,3.672,1.008l.984-1.824A9.256,9.256,0,0,0,50.04-12.84c-3.264,0-5.3,1.536-5.3,3.816,0,5.064,8.04,2.592,8.04,5.448,0,1.08-.888,1.728-3.024,1.728a8.174,8.174,0,0,1-4.464-1.32l-.96,1.824A9.18,9.18,0,0,0,49.584.144ZM74.4-12.72v1.968a5.8,5.8,0,0,0-4.7-2.088c-3.672,0-6.456,2.472-6.456,6.144S66.024-.528,69.7-.528A5.82,5.82,0,0,0,74.28-2.5v1.008c0,2.88-1.368,4.272-4.368,4.272a7.764,7.764,0,0,1-4.9-1.656L63.912,2.9a9.417,9.417,0,0,0,6.072,1.9c4.32,0,6.6-2.04,6.6-6.528V-12.72ZM69.96-2.544A4.1,4.1,0,0,1,65.568-6.7a4.068,4.068,0,0,1,4.392-4.128A4.061,4.061,0,0,1,74.328-6.7,4.093,4.093,0,0,1,69.96-2.544ZM92.472-6.288c0-3.912-2.616-6.552-6.288-6.552A6.23,6.23,0,0,0,79.8-6.36c0,3.792,2.736,6.5,6.84,6.5A6.385,6.385,0,0,0,91.656-1.92L90.384-3.408a4.749,4.749,0,0,1-3.672,1.536A4.308,4.308,0,0,1,82.1-5.592h10.32C92.448-5.808,92.472-6.1,92.472-6.288ZM86.184-10.9a3.967,3.967,0,0,1,4.08,3.648H82.1A3.965,3.965,0,0,1,86.184-10.9ZM102.1-2.4a2.9,2.9,0,0,1-1.8.6A1.874,1.874,0,0,1,98.3-3.936v-6.888h3.648v-1.9H98.3V-15.5H96v2.784H93.84v1.9H96V-3.84C96-1.272,97.464.144,100.032.144a4.346,4.346,0,0,0,2.784-.888Zm16.392,0a2.9,2.9,0,0,1-1.8.6A1.874,1.874,0,0,1,114.7-3.936v-6.888h3.648v-1.9H114.7V-15.5h-2.3v2.784h-2.16v1.9h2.16V-3.84c0,2.568,1.464,3.984,4.032,3.984a4.346,4.346,0,0,0,2.784-.888Zm8.52,2.544a6.329,6.329,0,0,0,6.6-6.5,6.31,6.31,0,0,0-6.6-6.48,6.329,6.329,0,0,0-6.624,6.48A6.349,6.349,0,0,0,127.008.144Zm0-2.016a4.212,4.212,0,0,1-4.3-4.488,4.192,4.192,0,0,1,4.3-4.464A4.173,4.173,0,0,1,131.28-6.36,4.193,4.193,0,0,1,127.008-1.872Z" transform="translate(127.692 73)" fill="#110e32"/>
        <path id="Path_3" data-name="Path 3" d="M11.9,0h2.832L8.856-7.464l5.352-5.256H11.424L4.488-6.384V-17.808h-2.3V0h2.3V-3.48l2.64-2.448ZM23.592-12.84a5.453,5.453,0,0,0-4.584,2.04v-1.92H16.8V0h2.3V-6.552c0-2.76,1.584-4.224,4.032-4.224,2.184,0,3.432,1.224,3.432,3.72V0h2.3V-7.32C28.872-11.064,26.688-12.84,23.592-12.84ZM38.664.144a6.329,6.329,0,0,0,6.6-6.5,6.31,6.31,0,0,0-6.6-6.48A6.329,6.329,0,0,0,32.04-6.36,6.349,6.349,0,0,0,38.664.144Zm0-2.016a4.212,4.212,0,0,1-4.3-4.488,4.192,4.192,0,0,1,4.3-4.464A4.173,4.173,0,0,1,42.936-6.36,4.193,4.193,0,0,1,38.664-1.872ZM65.28-12.72,61.488-2.544,57.72-12.72H55.776L51.936-2.592,48.24-12.72H46.056L50.784,0h2.208l3.72-9.648L60.384,0h2.208l4.752-12.72Zm19.848,0L80.736-2.544,76.3-12.72H73.9l5.616,12.7L79.1.864c-.624,1.464-1.32,1.968-2.424,1.968A3.255,3.255,0,0,1,74.4,1.9l-.984,1.728A4.776,4.776,0,0,0,76.68,4.8c1.944,0,3.408-.84,4.536-3.528L87.384-12.72ZM94.632.144a6.329,6.329,0,0,0,6.6-6.5,6.31,6.31,0,0,0-6.6-6.48,6.329,6.329,0,0,0-6.624,6.48A6.349,6.349,0,0,0,94.632.144Zm0-2.016a4.212,4.212,0,0,1-4.3-4.488,4.192,4.192,0,0,1,4.3-4.464A4.173,4.173,0,0,1,98.9-6.36,4.193,4.193,0,0,1,94.632-1.872ZM113.976-12.72v6.576c0,2.736-1.536,4.224-3.936,4.224-2.184,0-3.432-1.248-3.432-3.744V-12.72h-2.3V-5.4c0,3.744,2.184,5.544,5.472,5.544A5.175,5.175,0,0,0,114.1-1.92V0h2.184V-12.72Zm19.9-.12a5.412,5.412,0,0,0-4.44,2.04v-7.008h-2.3V0h2.208V-2.016a5.374,5.374,0,0,0,4.536,2.16,6.193,6.193,0,0,0,6.432-6.5A6.174,6.174,0,0,0,133.872-12.84ZM133.68-1.872a4.207,4.207,0,0,1-4.272-4.488,4.186,4.186,0,0,1,4.272-4.464,4.192,4.192,0,0,1,4.3,4.464A4.212,4.212,0,0,1,133.68-1.872Zm21.312-4.416c0-3.912-2.616-6.552-6.288-6.552a6.23,6.23,0,0,0-6.384,6.48c0,3.792,2.736,6.5,6.84,6.5a6.385,6.385,0,0,0,5.016-2.064L152.9-3.408a4.749,4.749,0,0,1-3.672,1.536,4.308,4.308,0,0,1-4.608-3.72h10.32C154.968-5.808,154.992-6.1,154.992-6.288ZM148.7-10.9a3.967,3.967,0,0,1,4.08,3.648h-8.16A3.965,3.965,0,0,1,148.7-10.9Zm15.912,8.5a2.9,2.9,0,0,1-1.8.6,1.874,1.874,0,0,1-1.992-2.136v-6.888h3.648v-1.9h-3.648V-15.5h-2.3v2.784h-2.16v1.9h2.16V-3.84c0,2.568,1.464,3.984,4.032,3.984a4.346,4.346,0,0,0,2.784-.888Zm9.624,0a2.9,2.9,0,0,1-1.8.6,1.874,1.874,0,0,1-1.992-2.136v-6.888H174.1v-1.9h-3.648V-15.5h-2.3v2.784h-2.16v1.9h2.16V-3.84c0,2.568,1.464,3.984,4.032,3.984a4.346,4.346,0,0,0,2.784-.888Zm14.568-3.888c0-3.912-2.616-6.552-6.288-6.552a6.23,6.23,0,0,0-6.384,6.48c0,3.792,2.736,6.5,6.84,6.5a6.385,6.385,0,0,0,5.016-2.064L186.72-3.408a4.749,4.749,0,0,1-3.672,1.536,4.308,4.308,0,0,1-4.608-3.72h10.32C188.784-5.808,188.808-6.1,188.808-6.288ZM182.52-10.9a3.967,3.967,0,0,1,4.08,3.648h-8.16A3.965,3.965,0,0,1,182.52-10.9Zm11.688.312V-12.72H192V0h2.3V-6.336c0-2.784,1.536-4.3,4.008-4.3a4.068,4.068,0,0,1,.528.024V-12.84C196.608-12.84,195.024-12.072,194.208-10.584Z" transform="translate(95.172 99)" fill="#110e32"/>
      </g>
      <g id="First_name_box" data-name="First name box" transform="translate(49 158)" fill="#fff" stroke="#4300ff" stroke-width="1" opacity="0.5">
        <rect width="293" height="42" rx="8" stroke="none"/>
        <rect x="0.5" y="0.5" width="292" height="41" rx="7.5" fill="none"/>
      </g>
      <path id="First_name" data-name="First name" d="M8.316-8.9v-.9H1.6V0H2.632V-4.158H7.7v-.9H2.632V-8.9Zm2.3-.07A.714.714,0,0,0,11.34-9.7a.706.706,0,0,0-.728-.686.717.717,0,0,0-.728.7A.72.72,0,0,0,10.612-8.974ZM10.108,0H11.1V-7.364h-.994Zm4.718-5.922V-7.364h-.952V0h.994V-3.752c0-1.736.938-2.716,2.478-2.716.07,0,.154.014.238.014V-7.42A2.777,2.777,0,0,0,14.826-5.922ZM21.406.07c1.918,0,3.038-.826,3.038-2.1,0-2.828-4.774-1.33-4.774-3.318,0-.7.588-1.218,1.918-1.218a3.775,3.775,0,0,1,2.17.63l.434-.8a4.99,4.99,0,0,0-2.6-.686c-1.876,0-2.912.9-2.912,2.1,0,2.912,4.774,1.4,4.774,3.318,0,.728-.574,1.2-1.974,1.2a4.448,4.448,0,0,1-2.618-.826L18.41-.84A4.92,4.92,0,0,0,21.406.07Zm8.4-1.232a1.645,1.645,0,0,1-1.092.378A1.179,1.179,0,0,1,27.44-2.128v-4.4h2.24v-.84H27.44v-1.61h-.994v1.61H25.13v.84h1.316v4.452A1.951,1.951,0,0,0,28.6.07a2.367,2.367,0,0,0,1.554-.518ZM39.382-7.42a3.1,3.1,0,0,0-2.8,1.414V-7.364H35.63V0h.994V-3.864A2.414,2.414,0,0,1,39.2-6.524a2.056,2.056,0,0,1,2.212,2.352V0h.994V-4.27A2.819,2.819,0,0,0,39.382-7.42Zm8.3,0a4.676,4.676,0,0,0-3,.994l.448.742a3.751,3.751,0,0,1,2.45-.868c1.372,0,2.086.686,2.086,1.946v.448H47.334c-2.114,0-2.842.952-2.842,2.086C44.492-.8,45.514.07,47.18.07a2.765,2.765,0,0,0,2.534-1.218V0h.952V-4.564C50.666-6.468,49.588-7.42,47.684-7.42Zm-.35,6.706c-1.176,0-1.862-.532-1.862-1.386,0-.756.462-1.316,1.89-1.316h2.31v1.2A2.356,2.356,0,0,1,47.334-.714ZM62.552-7.42A3.207,3.207,0,0,0,59.64-5.866,2.645,2.645,0,0,0,57.022-7.42a2.978,2.978,0,0,0-2.7,1.4V-7.364h-.952V0h.994V-3.864a2.373,2.373,0,0,1,2.464-2.66c1.344,0,2.128.8,2.128,2.352V0h.994V-3.864a2.367,2.367,0,0,1,2.464-2.66c1.33,0,2.114.8,2.114,2.352V0h.994V-4.27C65.52-6.384,64.344-7.42,62.552-7.42ZM74.676-3.682a3.509,3.509,0,0,0-3.57-3.738,3.547,3.547,0,0,0-3.6,3.738A3.647,3.647,0,0,0,71.372.07a3.625,3.625,0,0,0,2.842-1.2l-.56-.644A2.9,2.9,0,0,1,71.4-.812a2.726,2.726,0,0,1-2.9-2.562h6.16C74.662-3.486,74.676-3.6,74.676-3.682Zm-3.57-2.884a2.561,2.561,0,0,1,2.618,2.45H68.5A2.558,2.558,0,0,1,71.106-6.566Z" transform="translate(49.34 149)" fill="#767488"/>
      <path id="Marcus" d="M15.3,0l-.018-12.6H13.806L8.622-3.744,3.366-12.6H1.89V0H3.618V-9.126l4.554,7.6H9l4.554-7.65L13.572,0Zm7-9.63A6.353,6.353,0,0,0,18.36-8.406l.72,1.3A4.824,4.824,0,0,1,22.1-8.136c1.71,0,2.556.846,2.556,2.3v.342H21.924c-2.844,0-3.834,1.26-3.834,2.79,0,1.656,1.368,2.808,3.528,2.808A3.541,3.541,0,0,0,24.75-1.26V0h1.638V-5.76C26.388-8.37,24.912-9.63,22.3-9.63Zm-.4,8.406c-1.314,0-2.106-.594-2.106-1.548,0-.81.486-1.476,2.2-1.476H24.66v1.332A2.767,2.767,0,0,1,21.906-1.224Zm9.342-6.714v-1.6H29.592V0H31.32V-4.752c0-2.088,1.152-3.222,3.006-3.222a3.051,3.051,0,0,1,.4.018V-9.63A3.641,3.641,0,0,0,31.248-7.938ZM40.914.108A4.268,4.268,0,0,0,44.8-1.944l-1.314-.828A2.974,2.974,0,0,1,40.9-1.4,3.161,3.161,0,0,1,37.62-4.77,3.166,3.166,0,0,1,40.9-8.118,2.974,2.974,0,0,1,43.488-6.75L44.8-7.6A4.255,4.255,0,0,0,40.914-9.63a4.766,4.766,0,0,0-5.04,4.86A4.781,4.781,0,0,0,40.914.108ZM54.2-9.54v4.932c0,2.052-1.152,3.168-2.952,3.168-1.638,0-2.574-.936-2.574-2.808V-9.54H46.944v5.49c0,2.808,1.638,4.158,4.1,4.158a3.882,3.882,0,0,0,3.24-1.548V0h1.638V-9.54ZM61.956.108c2.538,0,4.122-1.1,4.122-2.826,0-3.708-6.048-1.872-6.048-4.122,0-.756.738-1.314,2.25-1.314a4.982,4.982,0,0,1,2.754.756l.738-1.368A6.942,6.942,0,0,0,62.3-9.63c-2.448,0-3.978,1.152-3.978,2.862,0,3.8,6.03,1.944,6.03,4.086,0,.81-.666,1.3-2.268,1.3a6.13,6.13,0,0,1-3.348-.99l-.72,1.368A6.885,6.885,0,0,0,61.956.108Z" transform="translate(62.7 185)" fill="#413e5b"/>
      <rect id="Email_address_box_outline" data-name="Email address box outline" width="297" height="46" rx="9" transform="translate(47 236)" fill="#4300ff" opacity="0.15"/>
      <g id="Email_address_box" data-name="Email address box" transform="translate(49 238)" fill="#fff" stroke="#4300ff" stroke-width="1">
        <rect width="293" height="42" rx="8" stroke="none"/>
        <rect x="0.5" y="0.5" width="292" height="41" rx="7.5" fill="none"/>
      </g>
      <path id="Email_address" data-name="Email address" d="M2.632-.9v-3.64H7.7v-.882H2.632V-8.9H8.316v-.9H1.6V0h6.93V-.9Zm17.3-6.524a3.207,3.207,0,0,0-2.912,1.554A2.645,2.645,0,0,0,14.406-7.42a2.978,2.978,0,0,0-2.7,1.4V-7.364h-.952V0h.994V-3.864a2.373,2.373,0,0,1,2.464-2.66c1.344,0,2.128.8,2.128,2.352V0h.994V-3.864A2.367,2.367,0,0,1,19.8-6.524c1.33,0,2.114.8,2.114,2.352V0H22.9V-4.27C22.9-6.384,21.728-7.42,19.936-7.42Zm8.246,0a4.676,4.676,0,0,0-3,.994l.448.742a3.751,3.751,0,0,1,2.45-.868c1.372,0,2.086.686,2.086,1.946v.448H27.832c-2.114,0-2.842.952-2.842,2.086C24.99-.8,26.012.07,27.678.07a2.765,2.765,0,0,0,2.534-1.218V0h.952V-4.564C31.164-6.468,30.086-7.42,28.182-7.42Zm-.35,6.706c-1.176,0-1.862-.532-1.862-1.386,0-.756.462-1.316,1.89-1.316h2.31v1.2A2.356,2.356,0,0,1,27.832-.714Zm6.538-8.26A.714.714,0,0,0,35.1-9.7a.706.706,0,0,0-.728-.686.717.717,0,0,0-.728.7A.72.72,0,0,0,34.37-8.974ZM33.866,0h.994V-7.364h-.994Zm3.766,0h.994V-10.388h-.994Zm10.01-7.42a4.676,4.676,0,0,0-3,.994l.448.742a3.751,3.751,0,0,1,2.45-.868c1.372,0,2.086.686,2.086,1.946v.448H47.292c-2.114,0-2.842.952-2.842,2.086C44.45-.8,45.472.07,47.138.07a2.765,2.765,0,0,0,2.534-1.218V0h.952V-4.564C50.624-6.468,49.546-7.42,47.642-7.42Zm-.35,6.706c-1.176,0-1.862-.532-1.862-1.386,0-.756.462-1.316,1.89-1.316h2.31v1.2A2.356,2.356,0,0,1,47.292-.714ZM59.08-10.388v4.424a3.216,3.216,0,0,0-2.8-1.456,3.562,3.562,0,0,0-3.668,3.738A3.574,3.574,0,0,0,56.28.07a3.19,3.19,0,0,0,2.842-1.526V0h.952V-10.388ZM56.364-.812a2.7,2.7,0,0,1-2.744-2.87,2.7,2.7,0,0,1,2.744-2.87,2.693,2.693,0,0,1,2.73,2.87A2.693,2.693,0,0,1,56.364-.812Zm12.208-9.576v4.424a3.216,3.216,0,0,0-2.8-1.456A3.562,3.562,0,0,0,62.1-3.682,3.574,3.574,0,0,0,65.772.07a3.19,3.19,0,0,0,2.842-1.526V0h.952V-10.388ZM65.856-.812a2.7,2.7,0,0,1-2.744-2.87,2.7,2.7,0,0,1,2.744-2.87,2.693,2.693,0,0,1,2.73,2.87A2.693,2.693,0,0,1,65.856-.812Zm7.434-5.11V-7.364h-.952V0h.994V-3.752c0-1.736.938-2.716,2.478-2.716.07,0,.154.014.238.014V-7.42A2.777,2.777,0,0,0,73.29-5.922ZM84.2-3.682a3.509,3.509,0,0,0-3.57-3.738,3.547,3.547,0,0,0-3.6,3.738A3.647,3.647,0,0,0,80.892.07a3.625,3.625,0,0,0,2.842-1.2l-.56-.644a2.9,2.9,0,0,1-2.254.966,2.726,2.726,0,0,1-2.9-2.562h6.16C84.182-3.486,84.2-3.6,84.2-3.682Zm-3.57-2.884a2.561,2.561,0,0,1,2.618,2.45H78.022A2.558,2.558,0,0,1,80.626-6.566ZM88.2.07c1.918,0,3.038-.826,3.038-2.1,0-2.828-4.774-1.33-4.774-3.318,0-.7.588-1.218,1.918-1.218a3.775,3.775,0,0,1,2.17.63l.434-.8a4.99,4.99,0,0,0-2.6-.686c-1.876,0-2.912.9-2.912,2.1,0,2.912,4.774,1.4,4.774,3.318,0,.728-.574,1.2-1.974,1.2a4.448,4.448,0,0,1-2.618-.826L85.2-.84A4.92,4.92,0,0,0,88.2.07Zm6.846,0c1.918,0,3.038-.826,3.038-2.1,0-2.828-4.774-1.33-4.774-3.318,0-.7.588-1.218,1.918-1.218a3.775,3.775,0,0,1,2.17.63l.434-.8a4.99,4.99,0,0,0-2.6-.686c-1.876,0-2.912.9-2.912,2.1,0,2.912,4.774,1.4,4.774,3.318,0,.728-.574,1.2-1.974,1.2A4.448,4.448,0,0,1,92.5-1.624L92.05-.84A4.92,4.92,0,0,0,95.046.07Z" transform="translate(48.734 229)" fill="#4300ff"/>
      <path id="ma" d="M13.572-9.63A4.3,4.3,0,0,0,9.9-7.866,3.531,3.531,0,0,0,6.588-9.63,3.867,3.867,0,0,0,3.294-8.118V-9.54H1.638V0H3.366V-4.914c0-2.07,1.134-3.168,2.862-3.168,1.566,0,2.466.918,2.466,2.79V0h1.728V-4.914c0-2.07,1.134-3.168,2.862-3.168,1.566,0,2.466.918,2.466,2.79V0h1.728V-5.49C17.478-8.3,15.894-9.63,13.572-9.63Zm10.566,0A6.353,6.353,0,0,0,20.2-8.406l.72,1.3A4.824,4.824,0,0,1,23.94-8.136c1.71,0,2.556.846,2.556,2.3v.342H23.76c-2.844,0-3.834,1.26-3.834,2.79,0,1.656,1.368,2.808,3.528,2.808A3.541,3.541,0,0,0,26.586-1.26V0h1.638V-5.76C28.224-8.37,26.748-9.63,24.138-9.63Zm-.4,8.406c-1.314,0-2.106-.594-2.106-1.548,0-.81.486-1.476,2.2-1.476H26.5v1.332A2.767,2.767,0,0,1,23.742-1.224Z" transform="translate(63.105 265)" fill="#110e32"/>
      <line id="Cursor-2" data-name="Cursor" y2="26" transform="translate(95 246)" fill="none" stroke="#4300ff" stroke-width="1"/>
      <g id="Password_box" data-name="Password box" transform="translate(49 318)" fill="#fff" stroke="#bfbfbf" stroke-width="1">
        <rect width="293" height="42" rx="8" stroke="none"/>
        <rect x="0.5" y="0.5" width="292" height="41" rx="7.5" fill="none"/>
      </g>
      <path id="Password" d="M5.264-9.8H1.6V0H2.632V-3.094H5.264c2.492,0,4-1.26,4-3.346S7.756-9.8,5.264-9.8ZM5.236-4h-2.6V-8.9h2.6c1.96,0,3,.9,3,2.464C8.232-4.9,7.2-4,5.236-4ZM13.8-7.42a4.676,4.676,0,0,0-3,.994l.448.742a3.751,3.751,0,0,1,2.45-.868c1.372,0,2.086.686,2.086,1.946v.448H13.454c-2.114,0-2.842.952-2.842,2.086C10.612-.8,11.634.07,13.3.07a2.765,2.765,0,0,0,2.534-1.218V0h.952V-4.564C16.786-6.468,15.708-7.42,13.8-7.42Zm-.35,6.706c-1.176,0-1.862-.532-1.862-1.386,0-.756.462-1.316,1.89-1.316h2.31v1.2A2.356,2.356,0,0,1,13.454-.714ZM21.462.07C23.38.07,24.5-.756,24.5-2.03c0-2.828-4.774-1.33-4.774-3.318,0-.7.588-1.218,1.918-1.218a3.775,3.775,0,0,1,2.17.63l.434-.8a4.99,4.99,0,0,0-2.6-.686c-1.876,0-2.912.9-2.912,2.1,0,2.912,4.774,1.4,4.774,3.318,0,.728-.574,1.2-1.974,1.2a4.448,4.448,0,0,1-2.618-.826l-.448.784A4.92,4.92,0,0,0,21.462.07Zm6.846,0c1.918,0,3.038-.826,3.038-2.1,0-2.828-4.774-1.33-4.774-3.318,0-.7.588-1.218,1.918-1.218a3.775,3.775,0,0,1,2.17.63l.434-.8a4.99,4.99,0,0,0-2.6-.686c-1.876,0-2.912.9-2.912,2.1,0,2.912,4.774,1.4,4.774,3.318,0,.728-.574,1.2-1.974,1.2a4.448,4.448,0,0,1-2.618-.826l-.448.784A4.92,4.92,0,0,0,28.308.07Zm14.63-7.434L40.6-1.106,38.248-7.364h-.854L35.028-1.106l-2.31-6.258h-.952L34.538,0h.938L37.8-6.034,40.124,0h.938l2.786-7.364ZM48.146.07a3.622,3.622,0,0,0,3.738-3.752A3.611,3.611,0,0,0,48.146-7.42a3.622,3.622,0,0,0-3.752,3.738A3.634,3.634,0,0,0,48.146.07Zm0-.882A2.7,2.7,0,0,1,45.4-3.682a2.7,2.7,0,0,1,2.744-2.87,2.685,2.685,0,0,1,2.73,2.87A2.685,2.685,0,0,1,48.146-.812Zm6.72-5.11V-7.364h-.952V0h.994V-3.752c0-1.736.938-2.716,2.478-2.716.07,0,.154.014.238.014V-7.42A2.777,2.777,0,0,0,54.866-5.922Zm10.206-4.466v4.424a3.216,3.216,0,0,0-2.8-1.456A3.562,3.562,0,0,0,58.6-3.682,3.574,3.574,0,0,0,62.272.07a3.19,3.19,0,0,0,2.842-1.526V0h.952V-10.388ZM62.356-.812a2.7,2.7,0,0,1-2.744-2.87,2.7,2.7,0,0,1,2.744-2.87,2.693,2.693,0,0,1,2.73,2.87A2.693,2.693,0,0,1,62.356-.812Z" transform="translate(49.274 309)" fill="#767488"/>
      <rect id="Button-3" data-name="Button" width="293" height="45" rx="8" transform="translate(49 380)" fill="#4300ff"/>
      <path id="Continue-2" data-name="Continue" d="M7.524.144a6.252,6.252,0,0,0,4.806-1.98L11.16-2.97A4.685,4.685,0,0,1,7.614-1.458,4.759,4.759,0,0,1,2.664-6.3a4.759,4.759,0,0,1,4.95-4.842A4.669,4.669,0,0,1,11.16-9.648l1.17-1.134a6.226,6.226,0,0,0-4.788-1.962A6.373,6.373,0,0,0,.864-6.3,6.369,6.369,0,0,0,7.524.144ZM18.342.108a4.747,4.747,0,0,0,4.95-4.878,4.732,4.732,0,0,0-4.95-4.86,4.747,4.747,0,0,0-4.968,4.86A4.762,4.762,0,0,0,18.342.108Zm0-1.512A3.159,3.159,0,0,1,15.12-4.77a3.144,3.144,0,0,1,3.222-3.348,3.13,3.13,0,0,1,3.2,3.348A3.145,3.145,0,0,1,18.342-1.4ZM30.78-9.63A4.089,4.089,0,0,0,27.342-8.1V-9.54H25.686V0h1.728V-4.914a2.833,2.833,0,0,1,3.024-3.168c1.638,0,2.574.918,2.574,2.79V0H34.74V-5.49C34.74-8.3,33.1-9.63,30.78-9.63ZM42.768-1.8a2.176,2.176,0,0,1-1.35.45,1.406,1.406,0,0,1-1.494-1.6V-8.118H42.66V-9.54H39.924v-2.088H38.2V-9.54h-1.62v1.422H38.2V-2.88A2.722,2.722,0,0,0,41.22.108a3.26,3.26,0,0,0,2.088-.666Zm3.492-9.576a1.131,1.131,0,0,0,1.17-1.152,1.12,1.12,0,0,0-1.17-1.1,1.138,1.138,0,0,0-1.17,1.134A1.123,1.123,0,0,0,46.26-11.376ZM45.4,0h1.728V-9.54H45.4ZM55.512-9.63A4.089,4.089,0,0,0,52.074-8.1V-9.54H50.418V0h1.728V-4.914A2.833,2.833,0,0,1,55.17-8.082c1.638,0,2.574.918,2.574,2.79V0h1.728V-5.49C59.472-8.3,57.834-9.63,55.512-9.63Zm14.328.09v4.932c0,2.052-1.152,3.168-2.952,3.168-1.638,0-2.574-.936-2.574-2.808V-9.54H62.586v5.49c0,2.808,1.638,4.158,4.1,4.158A3.882,3.882,0,0,0,69.93-1.44V0h1.638V-9.54ZM83.484-4.716A4.6,4.6,0,0,0,78.768-9.63,4.672,4.672,0,0,0,73.98-4.77,4.776,4.776,0,0,0,79.11.108,4.788,4.788,0,0,0,82.872-1.44l-.954-1.116A3.562,3.562,0,0,1,79.164-1.4a3.231,3.231,0,0,1-3.456-2.79h7.74C83.466-4.356,83.484-4.572,83.484-4.716ZM78.768-8.172a2.975,2.975,0,0,1,3.06,2.736h-6.12A2.974,2.974,0,0,1,78.768-8.172Z" transform="translate(152.88 409)" fill="#fff"/>
    </g>
    <g id="Verify" transform="translate(470 349)">
      <rect id="Card-4" data-name="Card" width="390" height="256" rx="20" fill="#fff"/>
      <g id="Heading-4" data-name="Heading">
        <path id="Path_8" data-name="Path 8" d="M9.072-16.8H2.52V0h2.4V-5.088H9.072c4.368,0,7.008-2.208,7.008-5.856S13.44-16.8,9.072-16.8ZM9-7.176H4.92v-7.536H9c3.072,0,4.68,1.368,4.68,3.768S12.072-7.176,9-7.176ZM19.512,0h2.3V-17.808h-2.3ZM37.7-6.288c0-3.912-2.616-6.552-6.288-6.552a6.23,6.23,0,0,0-6.384,6.48c0,3.792,2.736,6.5,6.84,6.5A6.385,6.385,0,0,0,36.888-1.92L35.616-3.408a4.749,4.749,0,0,1-3.672,1.536,4.308,4.308,0,0,1-4.608-3.72h10.32C37.68-5.808,37.7-6.1,37.7-6.288ZM31.416-10.9A3.967,3.967,0,0,1,35.5-7.248h-8.16A3.965,3.965,0,0,1,31.416-10.9ZM45.168-12.84a8.471,8.471,0,0,0-5.256,1.632l.96,1.728A6.433,6.433,0,0,1,44.9-10.848c2.28,0,3.408,1.128,3.408,3.072v.456H44.664c-3.792,0-5.112,1.68-5.112,3.72,0,2.208,1.824,3.744,4.7,3.744A4.722,4.722,0,0,0,48.432-1.68V0h2.184V-7.68C50.616-11.16,48.648-12.84,45.168-12.84ZM44.64-1.632c-1.752,0-2.808-.792-2.808-2.064,0-1.08.648-1.968,2.928-1.968h3.552v1.776A3.689,3.689,0,0,1,44.64-1.632ZM58.536.144c3.384,0,5.5-1.464,5.5-3.768,0-4.944-8.064-2.5-8.064-5.5,0-1.008.984-1.752,3-1.752A6.643,6.643,0,0,1,62.64-9.864l.984-1.824a9.256,9.256,0,0,0-4.632-1.152c-3.264,0-5.3,1.536-5.3,3.816,0,5.064,8.04,2.592,8.04,5.448,0,1.08-.888,1.728-3.024,1.728a8.174,8.174,0,0,1-4.464-1.32l-.96,1.824A9.18,9.18,0,0,0,58.536.144ZM78.408-6.288c0-3.912-2.616-6.552-6.288-6.552a6.23,6.23,0,0,0-6.384,6.48c0,3.792,2.736,6.5,6.84,6.5A6.385,6.385,0,0,0,77.592-1.92L76.32-3.408a4.749,4.749,0,0,1-3.672,1.536,4.308,4.308,0,0,1-4.608-3.72H78.36C78.384-5.808,78.408-6.1,78.408-6.288ZM72.12-10.9A3.967,3.967,0,0,1,76.2-7.248H68.04A3.965,3.965,0,0,1,72.12-10.9ZM97.056-12.72,92.592-2.52l-4.368-10.2h-2.4L91.392,0h2.352l5.568-12.72Zm15.552,6.432c0-3.912-2.616-6.552-6.288-6.552a6.23,6.23,0,0,0-6.384,6.48c0,3.792,2.736,6.5,6.84,6.5a6.385,6.385,0,0,0,5.016-2.064L110.52-3.408a4.749,4.749,0,0,1-3.672,1.536,4.308,4.308,0,0,1-4.608-3.72h10.32C112.584-5.808,112.608-6.1,112.608-6.288ZM106.32-10.9a3.967,3.967,0,0,1,4.08,3.648h-8.16A3.965,3.965,0,0,1,106.32-10.9Zm11.688.312V-12.72H115.8V0h2.3V-6.336c0-2.784,1.536-4.3,4.008-4.3a4.068,4.068,0,0,1,.528.024V-12.84C120.408-12.84,118.824-12.072,118.008-10.584Zm8.616-4.584a1.508,1.508,0,0,0,1.56-1.536,1.493,1.493,0,0,0-1.56-1.464,1.517,1.517,0,0,0-1.56,1.512A1.5,1.5,0,0,0,126.624-15.168ZM125.472,0h2.3V-12.72h-2.3Zm11.352-16.056a2.984,2.984,0,0,1,1.776.6l.7-1.752a4.3,4.3,0,0,0-2.592-.744,3.823,3.823,0,0,0-4.2,4.1v1.128h-2.16v1.9h2.16V0h2.3V-10.824h3.648v-1.9h-3.7v-1.1C134.76-15.288,135.456-16.056,136.824-16.056ZM149.88-12.72,145.488-2.544l-4.44-10.176h-2.4l5.616,12.7-.408.888c-.624,1.464-1.32,1.968-2.424,1.968a3.255,3.255,0,0,1-2.28-.936l-.984,1.728A4.776,4.776,0,0,0,141.432,4.8c1.944,0,3.408-.84,4.536-3.528l6.168-13.992Zm19.872,0L165.36-2.544,160.92-12.72h-2.4l5.616,12.7-.408.888c-.624,1.464-1.32,1.968-2.424,1.968a3.255,3.255,0,0,1-2.28-.936l-.984,1.728A4.776,4.776,0,0,0,161.3,4.8c1.944,0,3.408-.84,4.536-3.528l6.168-13.992Zm9.5,12.864a6.329,6.329,0,0,0,6.6-6.5,6.31,6.31,0,0,0-6.6-6.48,6.329,6.329,0,0,0-6.624,6.48A6.349,6.349,0,0,0,179.256.144Zm0-2.016a4.212,4.212,0,0,1-4.3-4.488,4.192,4.192,0,0,1,4.3-4.464,4.173,4.173,0,0,1,4.272,4.464A4.193,4.193,0,0,1,179.256-1.872ZM198.6-12.72v6.576c0,2.736-1.536,4.224-3.936,4.224-2.184,0-3.432-1.248-3.432-3.744V-12.72h-2.3V-5.4c0,3.744,2.184,5.544,5.472,5.544a5.175,5.175,0,0,0,4.32-2.064V0H200.9V-12.72Zm8.9,2.136V-12.72H205.3V0h2.3V-6.336c0-2.784,1.536-4.3,4.008-4.3a4.068,4.068,0,0,1,.528.024V-12.84C209.9-12.84,208.32-12.072,207.5-10.584Z" transform="translate(88.524 73)" fill="#110e32"/>
        <path id="Path_7" data-name="Path 7" d="M13.68-6.288c0-3.912-2.616-6.552-6.288-6.552A6.23,6.23,0,0,0,1.008-6.36c0,3.792,2.736,6.5,6.84,6.5A6.385,6.385,0,0,0,12.864-1.92L11.592-3.408A4.749,4.749,0,0,1,7.92-1.872a4.308,4.308,0,0,1-4.608-3.72h10.32C13.656-5.808,13.68-6.1,13.68-6.288ZM7.392-10.9a3.967,3.967,0,0,1,4.08,3.648H3.312A3.965,3.965,0,0,1,7.392-10.9ZM32.784-12.84a5.732,5.732,0,0,0-4.9,2.352,4.708,4.708,0,0,0-4.416-2.352,5.156,5.156,0,0,0-4.392,2.016v-1.9H16.872V0h2.3V-6.552c0-2.76,1.512-4.224,3.816-4.224,2.088,0,3.288,1.224,3.288,3.72V0h2.3V-6.552c0-2.76,1.512-4.224,3.816-4.224,2.088,0,3.288,1.224,3.288,3.72V0h2.3V-7.32C37.992-11.064,35.88-12.84,32.784-12.84Zm14.088,0a8.471,8.471,0,0,0-5.256,1.632l.96,1.728a6.433,6.433,0,0,1,4.032-1.368c2.28,0,3.408,1.128,3.408,3.072v.456H46.368c-3.792,0-5.112,1.68-5.112,3.72,0,2.208,1.824,3.744,4.7,3.744A4.722,4.722,0,0,0,50.136-1.68V0H52.32V-7.68C52.32-11.16,50.352-12.84,46.872-12.84ZM46.344-1.632c-1.752,0-2.808-.792-2.808-2.064,0-1.08.648-1.968,2.928-1.968h3.552v1.776A3.689,3.689,0,0,1,46.344-1.632Zm11.4-13.536A1.508,1.508,0,0,0,59.3-16.7a1.493,1.493,0,0,0-1.56-1.464,1.517,1.517,0,0,0-1.56,1.512A1.5,1.5,0,0,0,57.744-15.168ZM56.592,0h2.3V-12.72h-2.3Zm6.7,0h2.3V-17.808h-2.3ZM81.072-12.84a8.471,8.471,0,0,0-5.256,1.632l.96,1.728a6.433,6.433,0,0,1,4.032-1.368c2.28,0,3.408,1.128,3.408,3.072v.456H80.568c-3.792,0-5.112,1.68-5.112,3.72,0,2.208,1.824,3.744,4.7,3.744A4.722,4.722,0,0,0,84.336-1.68V0H86.52V-7.68C86.52-11.16,84.552-12.84,81.072-12.84ZM80.544-1.632c-1.752,0-2.808-.792-2.808-2.064,0-1.08.648-1.968,2.928-1.968h3.552v1.776A3.689,3.689,0,0,1,80.544-1.632ZM100.56-17.808V-10.8a5.412,5.412,0,0,0-4.44-2.04,6.174,6.174,0,0,0-6.432,6.48A6.193,6.193,0,0,0,96.12.144a5.374,5.374,0,0,0,4.536-2.16V0h2.208V-17.808ZM96.312-1.872a4.212,4.212,0,0,1-4.3-4.488,4.192,4.192,0,0,1,4.3-4.464,4.186,4.186,0,0,1,4.272,4.464A4.207,4.207,0,0,1,96.312-1.872Zm20.616-15.936V-10.8a5.412,5.412,0,0,0-4.44-2.04,6.174,6.174,0,0,0-6.432,6.48,6.193,6.193,0,0,0,6.432,6.5,5.374,5.374,0,0,0,4.536-2.16V0h2.208V-17.808ZM112.68-1.872a4.212,4.212,0,0,1-4.3-4.488,4.192,4.192,0,0,1,4.3-4.464,4.186,4.186,0,0,1,4.272,4.464A4.207,4.207,0,0,1,112.68-1.872Zm13.128-8.712V-12.72H123.6V0h2.3V-6.336c0-2.784,1.536-4.3,4.008-4.3a4.068,4.068,0,0,1,.528.024V-12.84C128.208-12.84,126.624-12.072,125.808-10.584Zm18.84,4.3c0-3.912-2.616-6.552-6.288-6.552a6.23,6.23,0,0,0-6.384,6.48c0,3.792,2.736,6.5,6.84,6.5a6.385,6.385,0,0,0,5.016-2.064L142.56-3.408a4.749,4.749,0,0,1-3.672,1.536,4.308,4.308,0,0,1-4.608-3.72H144.6C144.624-5.808,144.648-6.1,144.648-6.288ZM138.36-10.9a3.967,3.967,0,0,1,4.08,3.648h-8.16A3.965,3.965,0,0,1,138.36-10.9ZM151.488.144c3.384,0,5.5-1.464,5.5-3.768,0-4.944-8.064-2.5-8.064-5.5,0-1.008.984-1.752,3-1.752a6.643,6.643,0,0,1,3.672,1.008l.984-1.824a9.256,9.256,0,0,0-4.632-1.152c-3.264,0-5.3,1.536-5.3,3.816,0,5.064,8.04,2.592,8.04,5.448,0,1.08-.888,1.728-3.024,1.728a8.174,8.174,0,0,1-4.464-1.32l-.96,1.824A9.18,9.18,0,0,0,151.488.144Zm12.024,0c3.384,0,5.5-1.464,5.5-3.768,0-4.944-8.064-2.5-8.064-5.5,0-1.008.984-1.752,3-1.752a6.643,6.643,0,0,1,3.672,1.008l.984-1.824a9.256,9.256,0,0,0-4.632-1.152c-3.264,0-5.3,1.536-5.3,3.816,0,5.064,8.04,2.592,8.04,5.448,0,1.08-.888,1.728-3.024,1.728a8.174,8.174,0,0,1-4.464-1.32l-.96,1.824A9.18,9.18,0,0,0,163.512.144Z" transform="translate(110.148 99)" fill="#110e32"/>
      </g>
      <rect id="Highlight" width="226" height="32" rx="5" transform="translate(82 130)" fill="#ece5ff"/>
      <path id="marcus88_gmail.com" data-name="marcus88@gmail.com" d="M13.572-9.63A4.3,4.3,0,0,0,9.9-7.866,3.531,3.531,0,0,0,6.588-9.63,3.867,3.867,0,0,0,3.294-8.118V-9.54H1.638V0H3.366V-4.914c0-2.07,1.134-3.168,2.862-3.168,1.566,0,2.466.918,2.466,2.79V0h1.728V-4.914c0-2.07,1.134-3.168,2.862-3.168,1.566,0,2.466.918,2.466,2.79V0h1.728V-5.49C17.478-8.3,15.894-9.63,13.572-9.63Zm10.566,0A6.353,6.353,0,0,0,20.2-8.406l.72,1.3A4.824,4.824,0,0,1,23.94-8.136c1.71,0,2.556.846,2.556,2.3v.342H23.76c-2.844,0-3.834,1.26-3.834,2.79,0,1.656,1.368,2.808,3.528,2.808A3.541,3.541,0,0,0,26.586-1.26V0h1.638V-5.76C28.224-8.37,26.748-9.63,24.138-9.63Zm-.4,8.406c-1.314,0-2.106-.594-2.106-1.548,0-.81.486-1.476,2.2-1.476H26.5v1.332A2.767,2.767,0,0,1,23.742-1.224Zm9.342-6.714v-1.6H31.428V0h1.728V-4.752c0-2.088,1.152-3.222,3.006-3.222a3.051,3.051,0,0,1,.4.018V-9.63A3.641,3.641,0,0,0,33.084-7.938ZM42.75.108a4.268,4.268,0,0,0,3.888-2.052l-1.314-.828A2.974,2.974,0,0,1,42.732-1.4,3.161,3.161,0,0,1,39.456-4.77a3.166,3.166,0,0,1,3.276-3.348A2.974,2.974,0,0,1,45.324-6.75L46.638-7.6A4.255,4.255,0,0,0,42.75-9.63a4.766,4.766,0,0,0-5.04,4.86A4.781,4.781,0,0,0,42.75.108ZM56.034-9.54v4.932c0,2.052-1.152,3.168-2.952,3.168-1.638,0-2.574-.936-2.574-2.808V-9.54H48.78v5.49c0,2.808,1.638,4.158,4.1,4.158a3.882,3.882,0,0,0,3.24-1.548V0h1.638V-9.54ZM63.792.108c2.538,0,4.122-1.1,4.122-2.826,0-3.708-6.048-1.872-6.048-4.122,0-.756.738-1.314,2.25-1.314A4.982,4.982,0,0,1,66.87-7.4l.738-1.368a6.942,6.942,0,0,0-3.474-.864c-2.448,0-3.978,1.152-3.978,2.862,0,3.8,6.03,1.944,6.03,4.086,0,.81-.666,1.3-2.268,1.3a6.13,6.13,0,0,1-3.348-.99l-.72,1.368A6.885,6.885,0,0,0,63.792.108ZM77-6.606a2.864,2.864,0,0,0,1.782-2.718c0-2.106-1.836-3.42-4.572-3.42-2.718,0-4.536,1.314-4.536,3.42a2.848,2.848,0,0,0,1.764,2.718,3.124,3.124,0,0,0-2.214,3.042c0,2.286,1.926,3.708,4.986,3.708,3.078,0,5.022-1.422,5.022-3.708A3.134,3.134,0,0,0,77-6.606Zm-2.79-4.68c1.692,0,2.808.774,2.808,2.034,0,1.242-1.062,2.016-2.808,2.016-1.728,0-2.754-.774-2.754-2.016C71.46-10.512,72.522-11.286,74.214-11.286Zm0,9.972c-2,0-3.186-.882-3.186-2.3,0-1.386,1.188-2.25,3.186-2.25s3.222.864,3.222,2.25C77.436-2.2,76.212-1.314,74.214-1.314ZM88.6-6.606a2.864,2.864,0,0,0,1.782-2.718c0-2.106-1.836-3.42-4.572-3.42-2.718,0-4.536,1.314-4.536,3.42a2.848,2.848,0,0,0,1.764,2.718A3.124,3.124,0,0,0,80.82-3.564c0,2.286,1.926,3.708,4.986,3.708,3.078,0,5.022-1.422,5.022-3.708A3.134,3.134,0,0,0,88.6-6.606Zm-2.79-4.68c1.692,0,2.808.774,2.808,2.034,0,1.242-1.062,2.016-2.808,2.016-1.728,0-2.754-.774-2.754-2.016C83.052-10.512,84.114-11.286,85.806-11.286Zm0,9.972c-2,0-3.186-.882-3.186-2.3,0-1.386,1.188-2.25,3.186-2.25s3.222.864,3.222,2.25C89.028-2.2,87.8-1.314,85.806-1.314ZM100.98-12.726c-5.04,0-8.5,3.4-8.5,8.154,0,4.77,3.42,8.208,8.424,8.208a9.072,9.072,0,0,0,3.87-.846l-.4-1.152a7.767,7.767,0,0,1-3.474.792,6.709,6.709,0,0,1-7.11-7c0-4.086,2.88-6.966,7.182-6.966,4.248,0,7.164,2.7,7.164,6.732,0,2.25-.612,3.546-1.674,3.546-.558,0-1.026-.342-1.026-1.3v-6.48h-1.566v1.458a3.923,3.923,0,0,0-3.294-1.53,4.342,4.342,0,0,0-4.41,4.59,4.372,4.372,0,0,0,4.41,4.626A3.852,3.852,0,0,0,104-1.6a2.025,2.025,0,0,0,2.16,1.71c2.034,0,3.2-1.872,3.2-4.932C109.368-9.486,105.912-12.726,100.98-12.726ZM100.836-1.3a2.984,2.984,0,0,1-3.06-3.222,2.959,2.959,0,0,1,3.06-3.2,2.982,2.982,0,0,1,3.078,3.2A3,3,0,0,1,100.836-1.3ZM119.358-9.54v1.476A4.353,4.353,0,0,0,115.83-9.63a4.555,4.555,0,0,0-4.842,4.608A4.569,4.569,0,0,0,115.83-.4a4.365,4.365,0,0,0,3.438-1.476v.756c0,2.16-1.026,3.2-3.276,3.2A5.823,5.823,0,0,1,112.32.846l-.828,1.332A7.063,7.063,0,0,0,116.046,3.6c3.24,0,4.95-1.53,4.95-4.9V-9.54Zm-3.33,7.632a3.075,3.075,0,0,1-3.294-3.114,3.051,3.051,0,0,1,3.294-3.1,3.046,3.046,0,0,1,3.276,3.1A3.07,3.07,0,0,1,116.028-1.908Zm20.2-7.722a4.3,4.3,0,0,0-3.672,1.764A3.531,3.531,0,0,0,129.24-9.63a3.867,3.867,0,0,0-3.294,1.512V-9.54H124.29V0h1.728V-4.914c0-2.07,1.134-3.168,2.862-3.168,1.566,0,2.466.918,2.466,2.79V0h1.728V-4.914c0-2.07,1.134-3.168,2.862-3.168,1.566,0,2.466.918,2.466,2.79V0h1.728V-5.49C140.13-8.3,138.546-9.63,136.224-9.63Zm10.566,0a6.353,6.353,0,0,0-3.942,1.224l.72,1.3a4.824,4.824,0,0,1,3.024-1.026c1.71,0,2.556.846,2.556,2.3v.342h-2.736c-2.844,0-3.834,1.26-3.834,2.79,0,1.656,1.368,2.808,3.528,2.808a3.541,3.541,0,0,0,3.132-1.368V0h1.638V-5.76C150.876-8.37,149.4-9.63,146.79-9.63Zm-.4,8.406c-1.314,0-2.106-.594-2.106-1.548,0-.81.486-1.476,2.2-1.476h2.664v1.332A2.767,2.767,0,0,1,146.394-1.224Zm8.55-10.152a1.131,1.131,0,0,0,1.17-1.152,1.12,1.12,0,0,0-1.17-1.1,1.138,1.138,0,0,0-1.17,1.134A1.123,1.123,0,0,0,154.944-11.376ZM154.08,0h1.728V-9.54H154.08ZM159.1,0h1.728V-13.356H159.1Zm5.436.108a1.2,1.2,0,0,0,1.188-1.242,1.184,1.184,0,0,0-1.188-1.224,1.2,1.2,0,0,0-1.224,1.224A1.218,1.218,0,0,0,164.538.108Zm7.614,0a4.268,4.268,0,0,0,3.888-2.052l-1.314-.828A2.974,2.974,0,0,1,172.134-1.4a3.161,3.161,0,0,1-3.276-3.366,3.166,3.166,0,0,1,3.276-3.348,2.974,2.974,0,0,1,2.592,1.368L176.04-7.6a4.255,4.255,0,0,0-3.888-2.034,4.766,4.766,0,0,0-5.04,4.86A4.781,4.781,0,0,0,172.152.108Zm10.062,0a4.747,4.747,0,0,0,4.95-4.878,4.732,4.732,0,0,0-4.95-4.86,4.747,4.747,0,0,0-4.968,4.86A4.762,4.762,0,0,0,182.214.108Zm0-1.512a3.159,3.159,0,0,1-3.222-3.366,3.144,3.144,0,0,1,3.222-3.348,3.13,3.13,0,0,1,3.2,3.348A3.145,3.145,0,0,1,182.214-1.4ZM201.492-9.63a4.3,4.3,0,0,0-3.672,1.764,3.531,3.531,0,0,0-3.312-1.764,3.867,3.867,0,0,0-3.294,1.512V-9.54h-1.656V0h1.728V-4.914c0-2.07,1.134-3.168,2.862-3.168,1.566,0,2.466.918,2.466,2.79V0h1.728V-4.914c0-2.07,1.134-3.168,2.862-3.168,1.566,0,2.466.918,2.466,2.79V0H205.4V-5.49C205.4-8.3,203.814-9.63,201.492-9.63Z" transform="translate(91.527 152)" fill="#4300ff"/>
      <path id="Resend_email" data-name="Resend email" d="M10.768,0,8.032-3.84a3.472,3.472,0,0,0,2.56-3.52c0-2.4-1.728-3.84-4.576-3.84H1.824V0H3.008V-3.552H6.016a7.973,7.973,0,0,0,.9-.048L9.472,0ZM5.984-4.56H3.008v-5.616H5.984c2.24,0,3.424,1.024,3.424,2.816C9.408-5.6,8.224-4.56,5.984-4.56ZM20.5-4.208a4.01,4.01,0,0,0-4.08-4.272A4.053,4.053,0,0,0,12.3-4.208,4.168,4.168,0,0,0,16.72.08,4.143,4.143,0,0,0,19.968-1.3l-.64-.736a3.317,3.317,0,0,1-2.576,1.1A3.115,3.115,0,0,1,13.44-3.856h7.04C20.48-3.984,20.5-4.112,20.5-4.208Zm-4.08-3.3a2.927,2.927,0,0,1,2.992,2.8H13.44A2.923,2.923,0,0,1,16.416-7.5ZM25.072.08c2.192,0,3.472-.944,3.472-2.4,0-3.232-5.456-1.52-5.456-3.792,0-.8.672-1.392,2.192-1.392a4.314,4.314,0,0,1,2.48.72l.5-.912A5.7,5.7,0,0,0,25.28-8.48c-2.144,0-3.328,1.024-3.328,2.4,0,3.328,5.456,1.6,5.456,3.792,0,.832-.656,1.376-2.256,1.376a5.083,5.083,0,0,1-2.992-.944l-.512.9A5.622,5.622,0,0,0,25.072.08ZM37.984-4.208A4.01,4.01,0,0,0,33.9-8.48a4.053,4.053,0,0,0-4.112,4.272A4.168,4.168,0,0,0,34.208.08,4.143,4.143,0,0,0,37.456-1.3l-.64-.736a3.317,3.317,0,0,1-2.576,1.1,3.115,3.115,0,0,1-3.312-2.928h7.04C37.968-3.984,37.984-4.112,37.984-4.208ZM33.9-7.5A2.927,2.927,0,0,1,36.9-4.7H30.928A2.923,2.923,0,0,1,33.9-7.5ZM44.592-8.48a3.537,3.537,0,0,0-3.2,1.616V-8.416H40.3V0H41.44V-4.416a2.759,2.759,0,0,1,2.944-3.04c1.6,0,2.528.912,2.528,2.688V0h1.136V-4.88C48.048-7.3,46.64-8.48,44.592-8.48Zm13.12-3.392v5.056a3.676,3.676,0,0,0-3.2-1.664A4.071,4.071,0,0,0,50.32-4.208,4.085,4.085,0,0,0,54.512.08,3.646,3.646,0,0,0,57.76-1.664V0h1.088V-11.872ZM54.608-.928a3.081,3.081,0,0,1-3.136-3.28,3.081,3.081,0,0,1,3.136-3.28,3.078,3.078,0,0,1,3.12,3.28A3.078,3.078,0,0,1,54.608-.928Zm18.944-3.28a4.01,4.01,0,0,0-4.08-4.272A4.053,4.053,0,0,0,65.36-4.208,4.168,4.168,0,0,0,69.776.08,4.143,4.143,0,0,0,73.024-1.3l-.64-.736a3.317,3.317,0,0,1-2.576,1.1A3.115,3.115,0,0,1,66.5-3.856h7.04C73.536-3.984,73.552-4.112,73.552-4.208Zm-4.08-3.3a2.927,2.927,0,0,1,2.992,2.8H66.5A2.923,2.923,0,0,1,69.472-7.5Zm16.9-.976A3.665,3.665,0,0,0,83.04-6.7,3.023,3.023,0,0,0,80.048-8.48a3.4,3.4,0,0,0-3.088,1.6V-8.416H75.872V0h1.136V-4.416a2.713,2.713,0,0,1,2.816-3.04c1.536,0,2.432.912,2.432,2.688V0h1.136V-4.416c0-1.92,1.088-3.04,2.816-3.04,1.52,0,2.416.912,2.416,2.688V0H89.76V-4.88C89.76-7.3,88.416-8.48,86.368-8.48Zm9.424,0a5.344,5.344,0,0,0-3.424,1.136l.512.848a4.287,4.287,0,0,1,2.8-.992c1.568,0,2.384.784,2.384,2.224v.512H95.392c-2.416,0-3.248,1.088-3.248,2.384C92.144-.912,93.312.08,95.216.08a3.16,3.16,0,0,0,2.9-1.392V0H99.2V-5.216C99.2-7.392,97.968-8.48,95.792-8.48Zm-.4,7.664c-1.344,0-2.128-.608-2.128-1.584,0-.864.528-1.5,2.16-1.5h2.64v1.376A2.693,2.693,0,0,1,95.392-.816Zm7.472-9.44a.816.816,0,0,0,.832-.832.807.807,0,0,0-.832-.784.82.82,0,0,0-.832.8A.823.823,0,0,0,102.864-10.256ZM102.288,0h1.136V-8.416h-1.136Zm4.3,0h1.136V-11.872h-1.136Z" transform="translate(140.344 202)" fill="#767488"/>
    </g>
    <g id="Invite" transform="translate(470 645)">
      <rect id="Card-5" data-name="Card" width="390" height="269" rx="20" fill="#fff"/>
      <g id="Heading-5" data-name="Heading">
        <path id="Path_6" data-name="Path 6" d="M14.568-16.8v7.224H4.92V-16.8H2.52V0h2.4V-7.488h9.648V0h2.4V-16.8ZM26.3-12.84a8.471,8.471,0,0,0-5.256,1.632l.96,1.728a6.433,6.433,0,0,1,4.032-1.368c2.28,0,3.408,1.128,3.408,3.072v.456H25.8c-3.792,0-5.112,1.68-5.112,3.72,0,2.208,1.824,3.744,4.7,3.744A4.722,4.722,0,0,0,29.568-1.68V0h2.184V-7.68C31.752-11.16,29.784-12.84,26.3-12.84ZM25.776-1.632c-1.752,0-2.808-.792-2.808-2.064,0-1.08.648-1.968,2.928-1.968h3.552v1.776A3.689,3.689,0,0,1,25.776-1.632ZM44.784-12.72,40.32-2.52l-4.368-10.2h-2.4L39.12,0h2.352L47.04-12.72ZM60.336-6.288c0-3.912-2.616-6.552-6.288-6.552a6.23,6.23,0,0,0-6.384,6.48c0,3.792,2.736,6.5,6.84,6.5A6.385,6.385,0,0,0,59.52-1.92L58.248-3.408a4.749,4.749,0,0,1-3.672,1.536,4.308,4.308,0,0,1-4.608-3.72h10.32C60.312-5.808,60.336-6.1,60.336-6.288ZM54.048-10.9a3.967,3.967,0,0,1,4.08,3.648h-8.16A3.965,3.965,0,0,1,54.048-10.9ZM75.432.144a6.329,6.329,0,0,0,6.6-6.5,6.31,6.31,0,0,0-6.6-6.48,6.329,6.329,0,0,0-6.624,6.48A6.349,6.349,0,0,0,75.432.144Zm0-2.016a4.212,4.212,0,0,1-4.3-4.488,4.192,4.192,0,0,1,4.3-4.464A4.173,4.173,0,0,1,79.7-6.36,4.193,4.193,0,0,1,75.432-1.872ZM91.656-2.4a2.9,2.9,0,0,1-1.8.6,1.874,1.874,0,0,1-1.992-2.136v-6.888h3.648v-1.9H87.864V-15.5h-2.3v2.784H83.4v1.9h2.16V-3.84c0,2.568,1.464,3.984,4.032,3.984a4.346,4.346,0,0,0,2.784-.888Zm10.3-10.44a5.516,5.516,0,0,0-4.488,1.92v-6.888h-2.3V0h2.3V-6.552c0-2.76,1.584-4.224,4.032-4.224,2.184,0,3.432,1.224,3.432,3.72V0h2.3V-7.32C107.232-11.064,105.048-12.84,101.952-12.84Zm21.12,6.552c0-3.912-2.616-6.552-6.288-6.552A6.23,6.23,0,0,0,110.4-6.36c0,3.792,2.736,6.5,6.84,6.5a6.385,6.385,0,0,0,5.016-2.064l-1.272-1.488a4.749,4.749,0,0,1-3.672,1.536,4.308,4.308,0,0,1-4.608-3.72h10.32C123.048-5.808,123.072-6.1,123.072-6.288ZM116.784-10.9a3.967,3.967,0,0,1,4.08,3.648H112.7A3.965,3.965,0,0,1,116.784-10.9Zm11.688.312V-12.72h-2.208V0h2.3V-6.336c0-2.784,1.536-4.3,4.008-4.3a4.068,4.068,0,0,1,.528.024V-12.84C130.872-12.84,129.288-12.072,128.472-10.584ZM149.3-12.84a5.417,5.417,0,0,0-4.536,2.136V-12.72H142.56V4.656h2.3V-1.92A5.432,5.432,0,0,0,149.3.144a6.18,6.18,0,0,0,6.432-6.5A6.174,6.174,0,0,0,149.3-12.84Zm-.192,10.968A4.207,4.207,0,0,1,144.84-6.36a4.2,4.2,0,0,1,4.272-4.464,4.2,4.2,0,0,1,4.3,4.464A4.212,4.212,0,0,1,149.112-1.872Zm21.312-4.416c0-3.912-2.616-6.552-6.288-6.552a6.23,6.23,0,0,0-6.384,6.48c0,3.792,2.736,6.5,6.84,6.5a6.385,6.385,0,0,0,5.016-2.064l-1.272-1.488a4.749,4.749,0,0,1-3.672,1.536,4.308,4.308,0,0,1-4.608-3.72h10.32C170.4-5.808,170.424-6.1,170.424-6.288ZM164.136-10.9a3.967,3.967,0,0,1,4.08,3.648h-8.16A3.965,3.965,0,0,1,164.136-10.9ZM179.064.144a6.329,6.329,0,0,0,6.6-6.5,6.31,6.31,0,0,0-6.6-6.48,6.329,6.329,0,0,0-6.624,6.48A6.349,6.349,0,0,0,179.064.144Zm0-2.016a4.212,4.212,0,0,1-4.3-4.488,4.192,4.192,0,0,1,4.3-4.464,4.173,4.173,0,0,1,4.272,4.464A4.193,4.193,0,0,1,179.064-1.872ZM195.6-12.84a5.417,5.417,0,0,0-4.536,2.136V-12.72h-2.208V4.656h2.3V-1.92A5.432,5.432,0,0,0,195.6.144a6.18,6.18,0,0,0,6.432-6.5A6.174,6.174,0,0,0,195.6-12.84Zm-.192,10.968a4.207,4.207,0,0,1-4.272-4.488,4.2,4.2,0,0,1,4.272-4.464,4.2,4.2,0,0,1,4.3,4.464A4.212,4.212,0,0,1,195.408-1.872ZM205.224,0h2.3V-17.808h-2.3Zm18.192-6.288c0-3.912-2.616-6.552-6.288-6.552a6.23,6.23,0,0,0-6.384,6.48c0,3.792,2.736,6.5,6.84,6.5A6.385,6.385,0,0,0,222.6-1.92l-1.272-1.488a4.749,4.749,0,0,1-3.672,1.536,4.308,4.308,0,0,1-4.608-3.72h10.32C223.392-5.808,223.416-6.1,223.416-6.288ZM217.128-10.9a3.967,3.967,0,0,1,4.08,3.648h-8.16A3.965,3.965,0,0,1,217.128-10.9Z" transform="translate(82.788 73)" fill="#110e32"/>
        <path id="Path_5" data-name="Path 5" d="M8.616-2.4a2.9,2.9,0,0,1-1.8.6A1.874,1.874,0,0,1,4.824-3.936v-6.888H8.472v-1.9H4.824V-15.5H2.52v2.784H.36v1.9H2.52V-3.84C2.52-1.272,3.984.144,6.552.144A4.346,4.346,0,0,0,9.336-.744Zm10.3-10.44a5.516,5.516,0,0,0-4.488,1.92v-6.888h-2.3V0h2.3V-6.552c0-2.76,1.584-4.224,4.032-4.224,2.184,0,3.432,1.224,3.432,3.72V0h2.3V-7.32C24.192-11.064,22.008-12.84,18.912-12.84Zm14.184,0a8.471,8.471,0,0,0-5.256,1.632L28.8-9.48a6.433,6.433,0,0,1,4.032-1.368c2.28,0,3.408,1.128,3.408,3.072v.456H32.592C28.8-7.32,27.48-5.64,27.48-3.6c0,2.208,1.824,3.744,4.7,3.744A4.722,4.722,0,0,0,36.36-1.68V0h2.184V-7.68C38.544-11.16,36.576-12.84,33.1-12.84ZM32.568-1.632c-1.752,0-2.808-.792-2.808-2.064,0-1.08.648-1.968,2.928-1.968H36.24v1.776A3.689,3.689,0,0,1,32.568-1.632ZM49.248-2.4a2.9,2.9,0,0,1-1.8.6,1.874,1.874,0,0,1-1.992-2.136v-6.888H49.1v-1.9H45.456V-15.5h-2.3v2.784h-2.16v1.9h2.16V-3.84c0,2.568,1.464,3.984,4.032,3.984a4.346,4.346,0,0,0,2.784-.888Zm18.96-10.32L63.816-2.544,59.376-12.72h-2.4l5.616,12.7-.408.888c-.624,1.464-1.32,1.968-2.424,1.968A3.255,3.255,0,0,1,57.48,1.9L56.5,3.624A4.776,4.776,0,0,0,59.76,4.8c1.944,0,3.408-.84,4.536-3.528L70.464-12.72ZM77.712.144a6.329,6.329,0,0,0,6.6-6.5,6.31,6.31,0,0,0-6.6-6.48,6.329,6.329,0,0,0-6.624,6.48A6.349,6.349,0,0,0,77.712.144Zm0-2.016a4.212,4.212,0,0,1-4.3-4.488,4.192,4.192,0,0,1,4.3-4.464A4.173,4.173,0,0,1,81.984-6.36,4.193,4.193,0,0,1,77.712-1.872ZM97.056-12.72v6.576c0,2.736-1.536,4.224-3.936,4.224-2.184,0-3.432-1.248-3.432-3.744V-12.72h-2.3V-5.4c0,3.744,2.184,5.544,5.472,5.544a5.175,5.175,0,0,0,4.32-2.064V0H99.36V-12.72ZM110.208,0h2.3V-17.808h-2.3Zm7.848-15.168a1.508,1.508,0,0,0,1.56-1.536,1.493,1.493,0,0,0-1.56-1.464,1.517,1.517,0,0,0-1.56,1.512A1.5,1.5,0,0,0,118.056-15.168ZM116.9,0h2.3V-12.72h-2.3Zm15.7-12.72-4.464,10.2-4.368-10.2h-2.4L126.936,0h2.352l5.568-12.72Zm15.552,6.432c0-3.912-2.616-6.552-6.288-6.552a6.23,6.23,0,0,0-6.384,6.48c0,3.792,2.736,6.5,6.84,6.5a6.385,6.385,0,0,0,5.016-2.064l-1.272-1.488a4.749,4.749,0,0,1-3.672,1.536,4.308,4.308,0,0,1-4.608-3.72H148.1C148.128-5.808,148.152-6.1,148.152-6.288ZM141.864-10.9a3.967,3.967,0,0,1,4.08,3.648h-8.16A3.965,3.965,0,0,1,141.864-10.9Zm33.12-1.824L171.192-2.544,167.424-12.72H165.48L161.64-2.592l-3.7-10.128H155.76L160.488,0H162.7l3.72-9.648L170.088,0H172.3l4.752-12.72Zm5.544-2.448a1.508,1.508,0,0,0,1.56-1.536,1.493,1.493,0,0,0-1.56-1.464,1.517,1.517,0,0,0-1.56,1.512A1.5,1.5,0,0,0,180.528-15.168ZM179.376,0h2.3V-12.72h-2.3ZM192.5-2.4a2.9,2.9,0,0,1-1.8.6,1.874,1.874,0,0,1-1.992-2.136v-6.888h3.648v-1.9h-3.648V-15.5h-2.3v2.784h-2.16v1.9h2.16V-3.84c0,2.568,1.464,3.984,4.032,3.984a4.346,4.346,0,0,0,2.784-.888Zm10.3-10.44a5.516,5.516,0,0,0-4.488,1.92v-6.888h-2.3V0h2.3V-6.552c0-2.76,1.584-4.224,4.032-4.224,2.184,0,3.432,1.224,3.432,3.72V0h2.3V-7.32C208.08-11.064,205.9-12.84,202.8-12.84ZM214.512-5.3h2.4c0-3.144,4.248-3.408,4.248-7.416,0-2.664-2.232-4.272-5.688-4.272a7.462,7.462,0,0,0-6.216,2.688l1.752,1.248a5.111,5.111,0,0,1,4.3-1.9c2.16,0,3.432,1.056,3.432,2.592C218.736-9.6,214.512-9.072,214.512-5.3ZM215.736.144a1.516,1.516,0,0,0,1.536-1.536,1.5,1.5,0,0,0-1.536-1.536,1.508,1.508,0,0,0-1.56,1.536A1.522,1.522,0,0,0,215.736.144Z" transform="translate(83.604 99)" fill="#110e32"/>
      </g>
      <rect id="Button-4" data-name="Button" width="293" height="45" rx="8" transform="translate(49 135)" fill="#4300ff"/>
      <path id="Share_an_invite" data-name="Share an invite" d="M5.562.144c3.33,0,4.878-1.656,4.878-3.582,0-4.626-7.632-2.7-7.632-5.778,0-1.1.918-2,3.06-2a6.507,6.507,0,0,1,3.456,1.026l.594-1.44a7.413,7.413,0,0,0-4.05-1.116c-3.312,0-4.824,1.656-4.824,3.6,0,4.68,7.632,2.736,7.632,5.814,0,1.1-.936,1.944-3.114,1.944A6.485,6.485,0,0,1,1.4-2.844L.738-1.44A7.479,7.479,0,0,0,5.562.144ZM17.91-9.63a4.137,4.137,0,0,0-3.366,1.44v-5.166H12.816V0h1.728V-4.914a2.833,2.833,0,0,1,3.024-3.168c1.638,0,2.574.918,2.574,2.79V0H21.87V-5.49C21.87-8.3,20.232-9.63,17.91-9.63Zm10.638,0a6.353,6.353,0,0,0-3.942,1.224l.72,1.3A4.824,4.824,0,0,1,28.35-8.136c1.71,0,2.556.846,2.556,2.3v.342H28.17c-2.844,0-3.834,1.26-3.834,2.79,0,1.656,1.368,2.808,3.528,2.808A3.541,3.541,0,0,0,31-1.26V0h1.638V-5.76C32.634-8.37,31.158-9.63,28.548-9.63Zm-.4,8.406c-1.314,0-2.106-.594-2.106-1.548,0-.81.486-1.476,2.2-1.476h2.664v1.332A2.767,2.767,0,0,1,28.152-1.224Zm9.342-6.714v-1.6H35.838V0h1.728V-4.752c0-2.088,1.152-3.222,3.006-3.222a3.051,3.051,0,0,1,.4.018V-9.63A3.641,3.641,0,0,0,37.494-7.938Zm14.13,3.222A4.6,4.6,0,0,0,46.908-9.63,4.672,4.672,0,0,0,42.12-4.77,4.776,4.776,0,0,0,47.25.108,4.788,4.788,0,0,0,51.012-1.44l-.954-1.116A3.562,3.562,0,0,1,47.3-1.4a3.231,3.231,0,0,1-3.456-2.79h7.74C51.606-4.356,51.624-4.572,51.624-4.716ZM46.908-8.172a2.975,2.975,0,0,1,3.06,2.736h-6.12A2.974,2.974,0,0,1,46.908-8.172ZM62.334-9.63a6.353,6.353,0,0,0-3.942,1.224l.72,1.3a4.824,4.824,0,0,1,3.024-1.026c1.71,0,2.556.846,2.556,2.3v.342H61.956c-2.844,0-3.834,1.26-3.834,2.79,0,1.656,1.368,2.808,3.528,2.808A3.541,3.541,0,0,0,64.782-1.26V0H66.42V-5.76C66.42-8.37,64.944-9.63,62.334-9.63Zm-.4,8.406c-1.314,0-2.106-.594-2.106-1.548,0-.81.486-1.476,2.2-1.476h2.664v1.332A2.767,2.767,0,0,1,61.938-1.224ZM74.718-9.63A4.089,4.089,0,0,0,71.28-8.1V-9.54H69.624V0h1.728V-4.914a2.833,2.833,0,0,1,3.024-3.168c1.638,0,2.574.918,2.574,2.79V0h1.728V-5.49C78.678-8.3,77.04-9.63,74.718-9.63Zm12.87-1.746a1.131,1.131,0,0,0,1.17-1.152,1.12,1.12,0,0,0-1.17-1.1,1.138,1.138,0,0,0-1.17,1.134A1.123,1.123,0,0,0,87.588-11.376ZM86.724,0h1.728V-9.54H86.724ZM96.84-9.63A4.089,4.089,0,0,0,93.4-8.1V-9.54H91.746V0h1.728V-4.914A2.833,2.833,0,0,1,96.5-8.082c1.638,0,2.574.918,2.574,2.79V0H100.8V-5.49C100.8-8.3,99.162-9.63,96.84-9.63Zm13.734.09-3.348,7.65L103.95-9.54h-1.8L106.326,0h1.764l4.176-9.54Zm4.176-1.836a1.131,1.131,0,0,0,1.17-1.152,1.12,1.12,0,0,0-1.17-1.1,1.138,1.138,0,0,0-1.17,1.134A1.123,1.123,0,0,0,114.75-11.376ZM113.886,0h1.728V-9.54h-1.728Zm9.846-1.8a2.176,2.176,0,0,1-1.35.45,1.406,1.406,0,0,1-1.494-1.6V-8.118h2.736V-9.54h-2.736v-2.088H119.16V-9.54h-1.62v1.422h1.62V-2.88A2.722,2.722,0,0,0,122.184.108a3.26,3.26,0,0,0,2.088-.666Zm10.926-2.916a4.6,4.6,0,0,0-4.716-4.914,4.672,4.672,0,0,0-4.788,4.86,4.776,4.776,0,0,0,5.13,4.878,4.788,4.788,0,0,0,3.762-1.548l-.954-1.116A3.562,3.562,0,0,1,130.338-1.4a3.231,3.231,0,0,1-3.456-2.79h7.74C134.64-4.356,134.658-4.572,134.658-4.716Zm-4.716-3.456A2.975,2.975,0,0,1,133-5.436h-6.12A2.974,2.974,0,0,1,129.942-8.172Z" transform="translate(127.293 164)" fill="#fff"/>
      <path id="Skip" d="M4.912.1C7.776.1,9.088-1.312,9.088-2.96c0-4.08-6.9-2.224-6.9-5.3,0-1.12.912-2.032,2.96-2.032a5.766,5.766,0,0,1,3.072.928l.4-.944A6.322,6.322,0,0,0,5.152-11.3C2.3-11.3,1.024-9.872,1.024-8.224c0,4.144,6.9,2.256,6.9,5.328,0,1.1-.912,1.984-3.008,1.984a5.5,5.5,0,0,1-3.7-1.36L.752-1.36A6.073,6.073,0,0,0,4.912.1ZM17.936,0h1.392L15.392-4.976l3.6-3.44H17.584L12.56-3.824v-8.048H11.424V0H12.56V-2.4l1.984-1.824Zm3.552-10.256a.816.816,0,0,0,.832-.832.807.807,0,0,0-.832-.784.82.82,0,0,0-.832.8A.823.823,0,0,0,21.488-10.256ZM20.912,0h1.136V-8.416H20.912Zm8.64-8.48A3.666,3.666,0,0,0,26.3-6.752V-8.416H25.216V3.1h1.136V-1.584A3.676,3.676,0,0,0,29.552.08a4.076,4.076,0,0,0,4.192-4.288A4.071,4.071,0,0,0,29.552-8.48Zm-.08,7.552a3.081,3.081,0,0,1-3.136-3.28,3.09,3.09,0,0,1,3.136-3.28,3.1,3.1,0,0,1,3.136,3.28A3.09,3.09,0,0,1,29.472-.928Z" transform="translate(168.86 215)" fill="#767488"/>
      <path id="Arrow_icon-2" data-name="Arrow icon" d="M4.982.115h0A.591.591,0,0,0,4.9.19L.172,4.865a.575.575,0,0,0,0,.823.6.6,0,0,0,.769.055l.067-.057L4.743,1.991V12.219a.591.591,0,0,0,1.175.078l.005-.078V1.99l3.734,3.7a.6.6,0,0,0,.835,0,.576.576,0,0,0,.059-.758L10.5,4.865,5.752.172a.6.6,0,0,0-.77-.057Z" transform="translate(220.9 204.167) rotate(90)" fill="#767488"/>
    </g>
  </g>
</svg>
