<svg xmlns="http://www.w3.org/2000/svg" xmlns:xlink="http://www.w3.org/1999/xlink" width="900" height="956" viewBox="0 0 900 956">
  <defs>
    <clipPath id="clip-dovetail-onboarding">
      <rect width="900" height="956"/>
    </clipPath>
  </defs>
  <g id="dovetail-onboarding" clip-path="url(#clip-dovetail-onboarding)">
    <g id="Code">
      <rect id="Card" width="430" height="373" rx="20" fill="#fff"/>
      <g id="Heading" transform="translate(87.35 60.853)">
        <path id="Please_enter_your" data-name="Please enter your" d="M9.744-16.7H2.52V1.826H5.166v-5.61H9.744c4.816,0,7.727-2.434,7.727-6.457S14.56-16.7,9.744-16.7ZM9.665-6.086h-4.5v-8.309h4.5c3.387,0,5.16,1.508,5.16,4.154S13.052-6.086,9.665-6.086Zm11.59,7.912H23.8V-17.808h-2.54ZM41.313-5.106c0-4.313-2.884-7.224-6.933-7.224a6.868,6.868,0,0,0-7.039,7.145c0,4.181,3.017,7.171,7.542,7.171A7.039,7.039,0,0,0,40.413-.29l-1.4-1.641A5.236,5.236,0,0,1,34.962-.238c-2.778,0-4.763-1.641-5.081-4.1H41.26C41.286-4.577,41.313-4.895,41.313-5.106ZM34.38-10.187a4.374,4.374,0,0,1,4.5,4.022h-9A4.372,4.372,0,0,1,34.38-10.187ZM49.542-12.33a9.34,9.34,0,0,0-5.8,1.8l1.058,1.905a7.092,7.092,0,0,1,4.446-1.508c2.514,0,3.758,1.244,3.758,3.387v.5H48.986c-4.181,0-5.636,1.852-5.636,4.1,0,2.434,2.011,4.128,5.186,4.128,2.2,0,3.758-.741,4.6-2.011V1.826h2.408V-6.641C55.549-10.478,53.379-12.33,49.542-12.33ZM48.96.027c-1.932,0-3.1-.873-3.1-2.276,0-1.191.714-2.17,3.228-2.17h3.916V-2.46A4.067,4.067,0,0,1,48.96.027ZM64.281,1.985c3.731,0,6.06-1.614,6.06-4.154,0-5.451-8.891-2.752-8.891-6.06,0-1.111,1.085-1.932,3.308-1.932a7.324,7.324,0,0,1,4.049,1.111l1.085-2.011a10.2,10.2,0,0,0-5.107-1.27c-3.6,0-5.848,1.694-5.848,4.207,0,5.583,8.865,2.858,8.865,6.007,0,1.191-.979,1.905-3.334,1.905a9.012,9.012,0,0,1-4.922-1.455L58.486.345A10.122,10.122,0,0,0,64.281,1.985Zm21.91-7.092c0-4.313-2.884-7.224-6.933-7.224A6.868,6.868,0,0,0,72.22-5.186c0,4.181,3.017,7.171,7.542,7.171A7.039,7.039,0,0,0,85.292-.29l-1.4-1.641A5.236,5.236,0,0,1,79.841-.238c-2.778,0-4.763-1.641-5.081-4.1H86.138C86.165-4.577,86.191-4.895,86.191-5.106Zm-6.933-5.081a4.374,4.374,0,0,1,4.5,4.022h-9A4.372,4.372,0,0,1,79.258-10.187ZM109.5-5.106c0-4.313-2.884-7.224-6.933-7.224a6.868,6.868,0,0,0-7.039,7.145c0,4.181,3.017,7.171,7.542,7.171A7.039,7.039,0,0,0,108.6-.29l-1.4-1.641a5.236,5.236,0,0,1-4.049,1.694c-2.778,0-4.763-1.641-5.081-4.1h11.378C109.478-4.577,109.5-4.895,109.5-5.106Zm-6.933-5.081a4.374,4.374,0,0,1,4.5,4.022h-9A4.372,4.372,0,0,1,102.571-10.187Zm17.941-2.143a6.012,6.012,0,0,0-5.054,2.249V-12.2h-2.434V1.826h2.54V-5.4c0-3.043,1.746-4.657,4.446-4.657,2.408,0,3.784,1.35,3.784,4.1v7.78h2.54V-6.244C126.334-10.372,123.926-12.33,120.512-12.33ZM138.135-.82a3.2,3.2,0,0,1-1.985.662,2.067,2.067,0,0,1-2.2-2.355v-7.594h4.022V-12.2h-4.022v-3.07h-2.54v3.07h-2.382v2.09h2.382v7.7c0,2.831,1.614,4.393,4.446,4.393a4.792,4.792,0,0,0,3.07-.979ZM154.2-5.106c0-4.313-2.884-7.224-6.933-7.224a6.868,6.868,0,0,0-7.039,7.145c0,4.181,3.017,7.171,7.542,7.171A7.039,7.039,0,0,0,153.3-.29l-1.4-1.641a5.236,5.236,0,0,1-4.049,1.694c-2.778,0-4.763-1.641-5.081-4.1h11.378C154.171-4.577,154.2-4.895,154.2-5.106Zm-6.933-5.081a4.374,4.374,0,0,1,4.5,4.022h-9A4.372,4.372,0,0,1,147.265-10.187Zm12.887.344V-12.2h-2.434V1.826h2.54V-5.159c0-3.07,1.694-4.737,4.419-4.737a4.486,4.486,0,0,1,.582.026V-12.33C162.8-12.33,161.051-11.484,160.151-9.843ZM185.607-12.2,180.765-.978l-4.9-11.22h-2.646l6.192,14-.45.979c-.688,1.614-1.455,2.17-2.673,2.17a3.588,3.588,0,0,1-2.514-1.032l-1.085,1.905a5.266,5.266,0,0,0,3.6,1.3c2.143,0,3.758-.926,5-3.89l6.8-15.427ZM196.086,1.985a6.978,6.978,0,0,0,7.277-7.171,6.957,6.957,0,0,0-7.277-7.145,6.979,6.979,0,0,0-7.3,7.145A7,7,0,0,0,196.086,1.985Zm0-2.223a4.644,4.644,0,0,1-4.737-4.948,4.622,4.622,0,0,1,4.737-4.922,4.6,4.6,0,0,1,4.71,4.922A4.623,4.623,0,0,1,196.086-.238ZM217.414-12.2v7.25c0,3.017-1.694,4.657-4.34,4.657-2.408,0-3.784-1.376-3.784-4.128V-12.2h-2.54v8.071c0,4.128,2.408,6.113,6.033,6.113A5.706,5.706,0,0,0,217.546-.29V1.826h2.408V-12.2Zm9.817,2.355V-12.2H224.8V1.826h2.54V-5.159c0-3.07,1.694-4.737,4.419-4.737a4.485,4.485,0,0,1,.582.026V-12.33C229.878-12.33,228.131-11.484,227.231-9.843Z" transform="translate(11.161 17.808)" fill="#110e32"/>
        <path id="_5-digit_access_code" data-name="5-digit access code" d="M6.521-9.277H4.457l.5-5.081h8.23v-2.3H2.737L1.758-6.975H5.965c4.287,0,5.61,1.3,5.61,3.387,0,2.011-1.588,3.308-4.393,3.308A8.321,8.321,0,0,1,1.625-2.265L.408-.174a10.61,10.61,0,0,0,6.8,2.249c4.737,0,7.012-2.567,7.012-5.769C14.221-6.975,12.051-9.277,6.521-9.277ZM16.655-4.3h7.118V-6.5H16.655Zm21.99-13.469v7.727a5.968,5.968,0,0,0-4.9-2.249,6.807,6.807,0,0,0-7.092,7.145A6.828,6.828,0,0,0,33.75,2.022a5.925,5.925,0,0,0,5-2.382V1.863h2.434V-17.771ZM33.961-.2a4.644,4.644,0,0,1-4.737-4.948,4.622,4.622,0,0,1,4.737-4.922,4.616,4.616,0,0,1,4.71,4.922A4.638,4.638,0,0,1,33.961-.2Zm13.31-14.66a1.662,1.662,0,0,0,1.72-1.694,1.646,1.646,0,0,0-1.72-1.614,1.673,1.673,0,0,0-1.72,1.667A1.651,1.651,0,0,0,47.271-14.86ZM46,1.863h2.54V-12.161H46ZM64.392-12.161v2.17a6.4,6.4,0,0,0-5.186-2.3c-4.049,0-7.118,2.726-7.118,6.774s3.07,6.8,7.118,6.8A6.417,6.417,0,0,0,64.26-.889V.223c0,3.175-1.508,4.71-4.816,4.71a8.56,8.56,0,0,1-5.4-1.826L52.828,5.065a10.383,10.383,0,0,0,6.695,2.09c4.763,0,7.277-2.249,7.277-7.2V-12.161ZM59.5-.942a4.52,4.52,0,0,1-4.842-4.578c0-2.726,2.011-4.551,4.842-4.551a4.477,4.477,0,0,1,4.816,4.551A4.513,4.513,0,0,1,59.5-.942ZM72.913-14.86a1.662,1.662,0,0,0,1.72-1.694,1.646,1.646,0,0,0-1.72-1.614,1.673,1.673,0,0,0-1.72,1.667A1.651,1.651,0,0,0,72.913-14.86ZM71.642,1.863h2.54V-12.161h-2.54ZM86.117-.783a3.2,3.2,0,0,1-1.985.662,2.067,2.067,0,0,1-2.2-2.355v-7.594h4.022v-2.09H81.936v-3.07H79.4v3.07H77.014v2.09H79.4v7.7c0,2.831,1.614,4.393,4.446,4.393a4.792,4.792,0,0,0,3.07-.979Zm16.089-11.511a9.34,9.34,0,0,0-5.8,1.8l1.058,1.905a7.092,7.092,0,0,1,4.446-1.508c2.514,0,3.758,1.244,3.758,3.387v.5H101.65c-4.181,0-5.636,1.852-5.636,4.1,0,2.434,2.011,4.128,5.186,4.128,2.2,0,3.758-.741,4.6-2.011V1.863h2.408V-6.6C108.212-10.441,106.042-12.294,102.206-12.294ZM101.623.064c-1.932,0-3.1-.873-3.1-2.276,0-1.191.714-2.17,3.228-2.17h3.916v1.958A4.067,4.067,0,0,1,101.623.064Zm17.491,1.958A6.275,6.275,0,0,0,124.83-.994L122.9-2.212A4.372,4.372,0,0,1,119.088-.2a4.647,4.647,0,0,1-4.816-4.948,4.654,4.654,0,0,1,4.816-4.922A4.372,4.372,0,0,1,122.9-8.06L124.83-9.3a6.255,6.255,0,0,0-5.716-2.99c-4.313,0-7.409,2.964-7.409,7.145A7.028,7.028,0,0,0,119.114,2.022Zm14.9,0a6.275,6.275,0,0,0,5.716-3.017L137.8-2.212A4.372,4.372,0,0,1,133.986-.2a4.647,4.647,0,0,1-4.816-4.948,4.654,4.654,0,0,1,4.816-4.922A4.372,4.372,0,0,1,137.8-8.06L139.728-9.3a6.255,6.255,0,0,0-5.716-2.99c-4.313,0-7.409,2.964-7.409,7.145A7.028,7.028,0,0,0,134.012,2.022Zm21.46-7.092c0-4.313-2.884-7.224-6.933-7.224A6.868,6.868,0,0,0,141.5-5.149c0,4.181,3.017,7.171,7.542,7.171a7.039,7.039,0,0,0,5.53-2.276l-1.4-1.641A5.236,5.236,0,0,1,149.122-.2c-2.778,0-4.763-1.641-5.081-4.1H155.42C155.446-4.54,155.473-4.858,155.473-5.07ZM148.54-10.15a4.374,4.374,0,0,1,4.5,4.022h-9A4.372,4.372,0,0,1,148.54-10.15ZM163.014,2.022c3.731,0,6.06-1.614,6.06-4.154,0-5.451-8.891-2.752-8.891-6.06,0-1.111,1.085-1.932,3.308-1.932a7.324,7.324,0,0,1,4.049,1.111l1.085-2.011a10.205,10.205,0,0,0-5.107-1.27c-3.6,0-5.848,1.694-5.848,4.207,0,5.583,8.865,2.858,8.865,6.007,0,1.191-.979,1.905-3.334,1.905a9.012,9.012,0,0,1-4.922-1.455L157.219.382A10.122,10.122,0,0,0,163.014,2.022Zm13.257,0c3.731,0,6.06-1.614,6.06-4.154,0-5.451-8.891-2.752-8.891-6.06,0-1.111,1.085-1.932,3.308-1.932A7.324,7.324,0,0,1,180.8-9.012l1.085-2.011a10.205,10.205,0,0,0-5.107-1.27c-3.6,0-5.848,1.694-5.848,4.207,0,5.583,8.865,2.858,8.865,6.007,0,1.191-.979,1.905-3.334,1.905a9.012,9.012,0,0,1-4.922-1.455L170.476.382A10.122,10.122,0,0,0,176.271,2.022Zm22.466,0a6.275,6.275,0,0,0,5.716-3.017l-1.932-1.217A4.372,4.372,0,0,1,198.711-.2a4.647,4.647,0,0,1-4.816-4.948,4.654,4.654,0,0,1,4.816-4.922,4.372,4.372,0,0,1,3.81,2.011L204.453-9.3a6.255,6.255,0,0,0-5.716-2.99c-4.313,0-7.409,2.964-7.409,7.145A7.028,7.028,0,0,0,198.737,2.022Zm14.792,0a6.978,6.978,0,0,0,7.277-7.171,6.957,6.957,0,0,0-7.277-7.145,6.979,6.979,0,0,0-7.3,7.145A7,7,0,0,0,213.529,2.022Zm0-2.223a4.644,4.644,0,0,1-4.737-4.948,4.622,4.622,0,0,1,4.737-4.922,4.6,4.6,0,0,1,4.71,4.922A4.623,4.623,0,0,1,213.529-.2Zm21.487-17.57v7.727a5.967,5.967,0,0,0-4.9-2.249,6.807,6.807,0,0,0-7.092,7.145,6.828,6.828,0,0,0,7.092,7.171,5.925,5.925,0,0,0,5-2.382V1.863h2.434V-17.771ZM230.332-.2A4.644,4.644,0,0,1,225.6-5.149a4.622,4.622,0,0,1,4.737-4.922,4.616,4.616,0,0,1,4.71,4.922A4.638,4.638,0,0,1,230.332-.2ZM255.047-5.07c0-4.313-2.884-7.224-6.933-7.224a6.868,6.868,0,0,0-7.039,7.145c0,4.181,3.017,7.171,7.542,7.171a7.039,7.039,0,0,0,5.53-2.276l-1.4-1.641A5.236,5.236,0,0,1,248.7-.2c-2.778,0-4.763-1.641-5.081-4.1h11.378C255.021-4.54,255.047-4.858,255.047-5.07Zm-6.933-5.081a4.374,4.374,0,0,1,4.5,4.022h-9A4.372,4.372,0,0,1,248.114-10.15Z" transform="translate(-0.408 46.438)" fill="#110e32"/>
      </g>
      <g id="Box_1" data-name="Box 1" transform="translate(54 149)" fill="#fff" stroke="#4300ff" stroke-width="1.5" opacity="0.5">
        <rect width="54" height="54" rx="8" stroke="none"/>
        <rect x="0.75" y="0.75" width="52.5" height="52.5" rx="7.25" fill="none"/>
      </g>
      <path id="_7" data-name="7" d="M.72-16.8v5.61H3.26V-14.5h8.468L4.4,1.723H7.2L14.692-15v-1.8Z" transform="translate(73.752 183.508)" fill="#413e5b"/>
      <g id="Box_2" data-name="Box 2" transform="translate(121 149)" fill="#fff" stroke="#4300ff" stroke-width="1.5" opacity="0.5">
        <rect width="54" height="54" rx="8" stroke="none"/>
        <rect x="0.75" y="0.75" width="52.5" height="52.5" rx="7.25" fill="none"/>
      </g>
      <path id="_3" data-name="3" d="M8.35-9.02,13.192-15v-1.8H.967v2.3H9.884L5.227-8.782V-6.93H6.709c3.175,0,4.578,1.27,4.578,3.228C11.287-1.69,9.7-.42,6.921-.42A8.342,8.342,0,0,1,1.337-2.4L.12-.314a10.5,10.5,0,0,0,6.8,2.249c4.71,0,7.012-2.54,7.012-5.663C13.933-6.586,12.054-8.676,8.35-9.02Z" transform="translate(141.29 183.508)" fill="#413e5b"/>
      <g id="Box_3" data-name="Box 3" transform="translate(189 149)" fill="#fff" stroke="#4300ff" stroke-width="1.5" opacity="0.5">
        <rect width="54" height="54" rx="8" stroke="none"/>
        <rect x="0.75" y="0.75" width="52.5" height="52.5" rx="7.25" fill="none"/>
      </g>
      <path id="_1" data-name="1" d="M.192-16.8v2.3H4.373V1.723h2.62V-16.8Z" transform="translate(210.124 183.508)" fill="#413e5b"/>
      <rect id="Box_outline" data-name="Box outline" width="58" height="58" rx="8.5" transform="translate(254 147)" fill="#4300ff" opacity="0.15"/>
      <g id="Box_4" data-name="Box 4" transform="translate(256 149)" fill="#fff" stroke="#4300ff" stroke-width="1.5">
        <rect width="54" height="54" rx="8" stroke="none"/>
        <rect x="0.75" y="0.75" width="52.5" height="52.5" rx="7.25" fill="none"/>
      </g>
      <line id="Cursor" y2="30.872" transform="translate(282.808 160.423)" fill="none" stroke="#4300ff" stroke-width="1"/>
      <g id="Box_5" data-name="Box 5" transform="translate(323 149)" fill="#fff" stroke="#bfbfbf" stroke-width="1.5">
        <rect width="54" height="54" rx="8" stroke="none"/>
        <rect x="0.75" y="0.75" width="52.5" height="52.5" rx="7.25" fill="none"/>
      </g>
      <rect id="Button" width="323" height="50" rx="8" transform="translate(54 225)" fill="#4300ff"/>
      <path id="Continue" d="M8.207,1.556a6.893,6.893,0,0,0,5.3-2.183l-1.29-1.25A5.166,5.166,0,0,1,8.306-.21,5.247,5.247,0,0,1,2.849-5.549a5.247,5.247,0,0,1,5.458-5.339,5.148,5.148,0,0,1,3.91,1.647l1.29-1.25a6.865,6.865,0,0,0-5.279-2.163,7.027,7.027,0,0,0-7.363,7.1A7.022,7.022,0,0,0,8.207,1.556Zm11.928-.04a5.234,5.234,0,0,0,5.458-5.378A5.218,5.218,0,0,0,20.135-9.22a5.234,5.234,0,0,0-5.478,5.358A5.25,5.25,0,0,0,20.135,1.517Zm0-1.667a3.483,3.483,0,0,1-3.552-3.711,3.466,3.466,0,0,1,3.552-3.691,3.451,3.451,0,0,1,3.533,3.691A3.468,3.468,0,0,1,20.135-.15ZM33.848-9.22a4.509,4.509,0,0,0-3.791,1.687V-9.121H28.232V1.4h1.905V-4.02c0-2.282,1.31-3.493,3.334-3.493,1.806,0,2.838,1.012,2.838,3.076V1.4h1.905V-4.656C38.214-7.752,36.408-9.22,33.848-9.22ZM47.066-.587a2.4,2.4,0,0,1-1.488.5A1.55,1.55,0,0,1,43.93-1.857v-5.7h3.017V-9.121H43.93v-2.3H42.025v2.3H40.239v1.568h1.786v5.775a3,3,0,0,0,3.334,3.294,3.594,3.594,0,0,0,2.3-.734Zm3.85-10.558a1.247,1.247,0,0,0,1.29-1.27,1.235,1.235,0,0,0-1.29-1.211,1.254,1.254,0,0,0-1.29,1.25A1.238,1.238,0,0,0,50.916-11.145ZM49.963,1.4h1.905V-9.121H49.963ZM61.117-9.22a4.509,4.509,0,0,0-3.791,1.687V-9.121H55.5V1.4h1.905V-4.02c0-2.282,1.31-3.493,3.334-3.493,1.806,0,2.838,1.012,2.838,3.076V1.4h1.905V-4.656C65.483-7.752,63.677-9.22,61.117-9.22Zm15.8.1v5.438c0,2.262-1.27,3.493-3.255,3.493-1.806,0-2.838-1.032-2.838-3.1V-9.121H68.916v6.053c0,3.1,1.806,4.584,4.525,4.584A4.28,4.28,0,0,0,77.014-.19V1.4H78.82V-9.121ZM91.958-3.8a5.072,5.072,0,0,0-5.2-5.418,5.151,5.151,0,0,0-5.279,5.358c0,3.136,2.262,5.378,5.656,5.378A5.28,5.28,0,0,0,91.283-.19l-1.052-1.23A3.927,3.927,0,0,1,87.195-.15a3.563,3.563,0,0,1-3.81-3.076h8.534C91.938-3.405,91.958-3.643,91.958-3.8Zm-5.2-3.81A3.28,3.28,0,0,1,90.132-4.6H83.384A3.279,3.279,0,0,1,86.758-7.613Z" transform="translate(168.649 255.5)" fill="#fff"/>
      <path id="Need_help_" data-name="Need help?" d="M10.856-11.131v10.02L2.9-11.131H1.824V1.218H3.129V-8.8l7.938,10.02h1.076V-11.131ZM24-3.422a4.422,4.422,0,0,0-4.5-4.71,4.469,4.469,0,0,0-4.534,4.71,4.6,4.6,0,0,0,4.869,4.728A4.568,4.568,0,0,0,23.417-.211l-.706-.811A3.658,3.658,0,0,1,19.871.194a3.435,3.435,0,0,1-3.652-3.228h7.762C23.981-3.175,24-3.316,24-3.422ZM19.5-7.056a3.227,3.227,0,0,1,3.3,3.087h-6.58A3.223,3.223,0,0,1,19.5-7.056ZM34.654-3.422a4.422,4.422,0,0,0-4.5-4.71,4.469,4.469,0,0,0-4.534,4.71,4.6,4.6,0,0,0,4.869,4.728A4.568,4.568,0,0,0,34.072-.211l-.706-.811A3.658,3.658,0,0,1,30.526.194a3.435,3.435,0,0,1-3.652-3.228h7.762C34.636-3.175,34.654-3.316,34.654-3.422Zm-4.5-3.634a3.227,3.227,0,0,1,3.3,3.087h-6.58A3.223,3.223,0,0,1,30.155-7.056Zm14.272-4.816V-6.3A4.053,4.053,0,0,0,40.9-8.132a4.489,4.489,0,0,0-4.622,4.71A4.5,4.5,0,0,0,40.9,1.306,4.02,4.02,0,0,0,44.48-.617V1.218h1.2v-13.09ZM41,.194a3.4,3.4,0,0,1-3.458-3.616A3.4,3.4,0,0,1,41-7.038a3.394,3.394,0,0,1,3.44,3.616A3.394,3.394,0,0,1,41,.194ZM58.522-8.132a3.921,3.921,0,0,0-3.475,1.694v-5.433H53.794V1.218h1.253V-3.651A3.042,3.042,0,0,1,58.293-7C60.057-7,61.08-6,61.08-4.039V1.218h1.253V-4.163C62.333-6.827,60.78-8.132,58.522-8.132ZM73.87-3.422a4.422,4.422,0,0,0-4.5-4.71,4.469,4.469,0,0,0-4.534,4.71,4.6,4.6,0,0,0,4.869,4.728A4.568,4.568,0,0,0,73.288-.211l-.706-.811A3.658,3.658,0,0,1,69.742.194,3.435,3.435,0,0,1,66.09-3.034h7.762C73.852-3.175,73.87-3.316,73.87-3.422Zm-4.5-3.634a3.227,3.227,0,0,1,3.3,3.087H66.09A3.223,3.223,0,0,1,69.371-7.056Zm7.056,8.274H77.68v-13.09H76.428Zm9.526-9.35a4.042,4.042,0,0,0-3.581,1.905V-8.062h-1.2V4.64h1.253V-.529a4.053,4.053,0,0,0,3.528,1.835,4.494,4.494,0,0,0,4.622-4.728A4.489,4.489,0,0,0,85.954-8.132ZM85.866.194a3.4,3.4,0,0,1-3.458-3.616,3.407,3.407,0,0,1,3.458-3.616,3.417,3.417,0,0,1,3.458,3.616A3.407,3.407,0,0,1,85.866.194Zm8.821-2.681h1.305c0-2.523,3.228-2.664,3.228-5.68,0-1.888-1.588-3.07-4.057-3.07A5.39,5.39,0,0,0,90.77-9.4l.935.706a4.107,4.107,0,0,1,3.369-1.429c1.8,0,2.84.882,2.84,2.152C97.915-5.662,94.686-5.4,94.686-2.487Zm.653,3.793a.926.926,0,0,0,.935-.917.9.9,0,0,0-.935-.9.9.9,0,0,0-.917.9A.922.922,0,0,0,95.339,1.306Z" transform="translate(164.822 311.911)" fill="#767488"/>
    </g>
    <g id="Greeting" transform="translate(470)">
      <rect id="Card-2" data-name="Card" width="430" height="297" rx="20" fill="#fff"/>
      <g id="Heading-2" data-name="Heading" transform="translate(92.02 60.456)">
        <path id="Hi_You_must_be" data-name="Hi! You must be" d="M15.8-16.66v7.965H5.166V-16.66H2.52V1.863H5.166V-6.393H15.8V1.863H18.45V-16.66Zm9.1,1.8a1.662,1.662,0,0,0,1.72-1.694,1.646,1.646,0,0,0-1.72-1.614,1.673,1.673,0,0,0-1.72,1.667A1.651,1.651,0,0,0,24.906-14.86ZM23.636,1.863h2.54V-12.161h-2.54Zm7.515-5.848h2.011l.5-12.675h-2.99Zm1.032,6.007A1.672,1.672,0,0,0,33.877.329a1.656,1.656,0,0,0-1.694-1.694A1.685,1.685,0,0,0,30.437.329,1.7,1.7,0,0,0,32.183,2.022ZM60.047-16.66h-2.62L51.474-6.9,45.546-16.66H42.715L50.071-4.593V1.863h2.62v-6.4ZM66.769,2.022a6.978,6.978,0,0,0,7.277-7.171,6.957,6.957,0,0,0-7.277-7.145,6.979,6.979,0,0,0-7.3,7.145A7,7,0,0,0,66.769,2.022Zm0-2.223a4.644,4.644,0,0,1-4.737-4.948,4.622,4.622,0,0,1,4.737-4.922,4.6,4.6,0,0,1,4.71,4.922A4.623,4.623,0,0,1,66.769-.2ZM88.1-12.161v7.25c0,3.017-1.694,4.657-4.34,4.657-2.408,0-3.784-1.376-3.784-4.128v-7.78h-2.54V-4.09c0,4.128,2.408,6.113,6.033,6.113A5.706,5.706,0,0,0,88.229-.254V1.863h2.408V-12.161Zm32.045-.132a6.32,6.32,0,0,0-5.4,2.593,5.191,5.191,0,0,0-4.869-2.593,5.684,5.684,0,0,0-4.842,2.223v-2.09H102.6V1.863h2.54V-5.361c0-3.043,1.667-4.657,4.207-4.657,2.3,0,3.625,1.35,3.625,4.1v7.78h2.54V-5.361c0-3.043,1.667-4.657,4.207-4.657,2.3,0,3.625,1.35,3.625,4.1v7.78h2.54V-6.207C125.884-10.335,123.555-12.294,120.142-12.294Zm20.958.132v7.25c0,3.017-1.694,4.657-4.34,4.657-2.408,0-3.784-1.376-3.784-4.128v-7.78h-2.54V-4.09c0,4.128,2.408,6.113,6.033,6.113a5.706,5.706,0,0,0,4.763-2.276V1.863h2.408V-12.161ZM152.5,2.022c3.731,0,6.06-1.614,6.06-4.154,0-5.451-8.891-2.752-8.891-6.06,0-1.111,1.085-1.932,3.308-1.932a7.324,7.324,0,0,1,4.049,1.111l1.085-2.011a10.2,10.2,0,0,0-5.107-1.27c-3.6,0-5.848,1.694-5.848,4.207,0,5.583,8.865,2.858,8.865,6.007,0,1.191-.979,1.905-3.334,1.905a9.012,9.012,0,0,1-4.922-1.455L146.709.382A10.122,10.122,0,0,0,152.5,2.022Zm16.327-2.8a3.2,3.2,0,0,1-1.985.662,2.067,2.067,0,0,1-2.2-2.355v-7.594h4.022v-2.09H164.65v-3.07h-2.54v3.07h-2.382v2.09h2.382v7.7c0,2.831,1.614,4.393,4.446,4.393a4.792,4.792,0,0,0,3.07-.979Zm18.417-11.511a5.967,5.967,0,0,0-4.9,2.249v-7.727h-2.54V1.863h2.434V-.359a5.925,5.925,0,0,0,5,2.382,6.828,6.828,0,0,0,7.092-7.171A6.807,6.807,0,0,0,187.248-12.294ZM187.036-.2a4.638,4.638,0,0,1-4.71-4.948,4.616,4.616,0,0,1,4.71-4.922,4.622,4.622,0,0,1,4.737,4.922A4.644,4.644,0,0,1,187.036-.2Zm23.5-4.869c0-4.313-2.884-7.224-6.933-7.224a6.868,6.868,0,0,0-7.039,7.145c0,4.181,3.017,7.171,7.542,7.171a7.039,7.039,0,0,0,5.53-2.276l-1.4-1.641A5.236,5.236,0,0,1,204.183-.2c-2.778,0-4.763-1.641-5.081-4.1h11.378C210.508-4.54,210.534-4.858,210.534-5.07ZM203.6-10.15a4.374,4.374,0,0,1,4.5,4.022h-9A4.372,4.372,0,0,1,203.6-10.15Z" transform="translate(17.286 18.168)" fill="#110e32"/>
        <path id="from_unit_54_at_Ivy" data-name="from, unit 54 at Ivy" d="M7.5-15.839a3.29,3.29,0,0,1,1.958.662l.767-1.932a4.739,4.739,0,0,0-2.858-.82c-2.99,0-4.631,1.8-4.631,4.525v1.244H.36v2.09H2.742V1.863h2.54V-10.071H9.3v-2.09H5.229v-1.217C5.229-14.993,6-15.839,7.5-15.839Zm8.759,6.033v-2.355H13.829V1.863h2.54V-5.122c0-3.07,1.694-4.737,4.419-4.737a4.485,4.485,0,0,1,.582.026v-2.461C18.91-12.294,17.163-11.447,16.263-9.806Zm14.1,11.828a6.978,6.978,0,0,0,7.277-7.171,6.957,6.957,0,0,0-7.277-7.145,6.979,6.979,0,0,0-7.3,7.145A7,7,0,0,0,30.367,2.022Zm0-2.223a4.644,4.644,0,0,1-4.737-4.948,4.622,4.622,0,0,1,4.737-4.922,4.6,4.6,0,0,1,4.71,4.922A4.623,4.623,0,0,1,30.367-.2Zm28.34-12.093A6.32,6.32,0,0,0,53.31-9.7a5.191,5.191,0,0,0-4.869-2.593A5.684,5.684,0,0,0,43.6-10.071v-2.09H41.164V1.863H43.7V-5.361c0-3.043,1.667-4.657,4.207-4.657,2.3,0,3.625,1.35,3.625,4.1v7.78h2.54V-5.361c0-3.043,1.667-4.657,4.207-4.657,2.3,0,3.625,1.35,3.625,4.1v7.78h2.54V-6.207C64.45-10.335,62.121-12.294,58.708-12.294Zm28.076.132v7.25c0,3.017-1.694,4.657-4.34,4.657-2.408,0-3.784-1.376-3.784-4.128v-7.78h-2.54V-4.09c0,4.128,2.408,6.113,6.033,6.113A5.706,5.706,0,0,0,86.916-.254V1.863h2.408V-12.161Zm14.871-.132A6.012,6.012,0,0,0,96.6-10.044v-2.117H94.166V1.863h2.54V-5.361c0-3.043,1.746-4.657,4.446-4.657,2.408,0,3.784,1.35,3.784,4.1v7.78h2.54V-6.207C107.476-10.335,105.068-12.294,101.655-12.294Zm11.8-2.567a1.662,1.662,0,0,0,1.72-1.694,1.646,1.646,0,0,0-1.72-1.614,1.673,1.673,0,0,0-1.72,1.667A1.651,1.651,0,0,0,113.457-14.86Zm-1.27,16.724h2.54V-12.161h-2.54ZM126.661-.783a3.2,3.2,0,0,1-1.985.662,2.067,2.067,0,0,1-2.2-2.355v-7.594H126.5v-2.09H122.48v-3.07h-2.54v3.07h-2.382v2.09h2.382v7.7c0,2.831,1.614,4.393,4.446,4.393a4.792,4.792,0,0,0,3.07-.979ZM141.8-9.277h-2.064l.5-5.081h8.23v-2.3H138.013l-.979,9.685h4.207c4.287,0,5.61,1.3,5.61,3.387,0,2.011-1.588,3.308-4.393,3.308A8.321,8.321,0,0,1,136.9-2.265l-1.217,2.09a10.61,10.61,0,0,0,6.8,2.249c4.737,0,7.012-2.567,7.012-5.769C149.5-6.975,147.327-9.277,141.8-9.277Zm26.012,4.313h-3.519V-8.986H161.8v4.022h-7.118l9.076-11.7H160.9L151.429-4.54v1.852h10.294V1.863h2.567V-2.688h3.519Zm14.951-7.33a9.34,9.34,0,0,0-5.8,1.8l1.058,1.905a7.092,7.092,0,0,1,4.446-1.508c2.514,0,3.758,1.244,3.758,3.387v.5H182.2c-4.181,0-5.636,1.852-5.636,4.1,0,2.434,2.011,4.128,5.186,4.128,2.2,0,3.758-.741,4.6-2.011V1.863h2.408V-6.6C188.766-10.441,186.6-12.294,182.759-12.294ZM182.177.064c-1.932,0-3.1-.873-3.1-2.276,0-1.191.714-2.17,3.228-2.17h3.916v1.958A4.067,4.067,0,0,1,182.177.064Zm18.391-.847a3.2,3.2,0,0,1-1.985.662,2.067,2.067,0,0,1-2.2-2.355v-7.594h4.022v-2.09h-4.022v-3.07h-2.54v3.07h-2.382v2.09h2.382v7.7c0,2.831,1.614,4.393,4.446,4.393a4.792,4.792,0,0,0,3.07-.979ZM211.92,1.863h2.646V-16.66H211.92Zm17.756-14.025L224.754-.915l-4.816-11.246h-2.646l6.139,14.025h2.593l6.139-14.025Zm14.58,0L239.414-.942l-4.9-11.22h-2.646l6.192,14-.45.979c-.688,1.614-1.455,2.17-2.673,2.17a3.588,3.588,0,0,1-2.514-1.032l-1.085,1.905a5.266,5.266,0,0,0,3.6,1.3c2.143,0,3.758-.926,5-3.89l6.8-15.427Z" transform="translate(-0.36 46.835)" fill="#110e32"/>
      </g>
      <rect id="Button-2" data-name="Button" width="323" height="49" rx="8" transform="translate(54 149)" fill="#4300ff"/>
      <path id="That_s_right_" data-name="That&apos;s right!" d="M4.835,1.4H6.8V-10.768h4.763v-1.727H.072v1.727H4.835ZM19.065-9.22a4.561,4.561,0,0,0-3.711,1.588v-5.7H13.448V1.4h1.905V-4.02c0-2.282,1.31-3.493,3.334-3.493,1.806,0,2.838,1.012,2.838,3.076V1.4h1.905V-4.656C23.431-7.752,21.625-9.22,19.065-9.22Zm11.729,0a7,7,0,0,0-4.346,1.35l.794,1.429a5.319,5.319,0,0,1,3.334-1.131c1.885,0,2.818.933,2.818,2.54v.377H30.377c-3.136,0-4.227,1.389-4.227,3.076,0,1.826,1.508,3.1,3.89,3.1A3.9,3.9,0,0,0,33.493.008V1.4H35.3V-4.953C35.3-7.831,33.672-9.22,30.794-9.22ZM30.357.048c-1.449,0-2.322-.655-2.322-1.707,0-.893.536-1.627,2.421-1.627h2.937v1.469A3.05,3.05,0,0,1,30.357.048ZM44.15-.587a2.4,2.4,0,0,1-1.488.5,1.55,1.55,0,0,1-1.647-1.766v-5.7h3.017V-9.121H41.015v-2.3H39.109v2.3H37.323v1.568h1.786v5.775a3,3,0,0,0,3.334,3.294,3.594,3.594,0,0,0,2.3-.734Zm2.461-6.549H48.02l.139-5.358H46.492Zm7.621,8.653c2.8,0,4.545-1.211,4.545-3.116,0-4.088-6.668-2.064-6.668-4.545,0-.834.814-1.449,2.481-1.449a5.493,5.493,0,0,1,3.036.834l.814-1.508a7.654,7.654,0,0,0-3.83-.953c-2.7,0-4.386,1.27-4.386,3.156,0,4.188,6.648,2.143,6.648,4.505,0,.893-.734,1.429-2.5,1.429A6.759,6.759,0,0,1,50.68-1.222L49.886.286A7.592,7.592,0,0,0,54.232,1.517ZM68.323-7.355V-9.121H66.5V1.4H68.4V-3.842c0-2.3,1.27-3.552,3.314-3.552a3.364,3.364,0,0,1,.437.02V-9.22C70.308-9.22,69-8.585,68.323-7.355Zm7.125-3.791a1.247,1.247,0,0,0,1.29-1.27,1.235,1.235,0,0,0-1.29-1.211,1.254,1.254,0,0,0-1.29,1.25A1.238,1.238,0,0,0,75.448-11.145ZM74.5,1.4H76.4V-9.121H74.5ZM88.288-9.121v1.627A4.8,4.8,0,0,0,84.4-9.22,5.022,5.022,0,0,0,79.06-4.14,5.037,5.037,0,0,0,84.4.961,4.813,4.813,0,0,0,88.189-.666V.167c0,2.382-1.131,3.533-3.612,3.533A6.42,6.42,0,0,1,80.528,2.33L79.615,3.8a7.787,7.787,0,0,0,5.021,1.568c3.572,0,5.458-1.687,5.458-5.4v-9.09ZM84.617-.706A3.39,3.39,0,0,1,80.985-4.14a3.364,3.364,0,0,1,3.632-3.414A3.358,3.358,0,0,1,88.229-4.14,3.384,3.384,0,0,1,84.617-.706ZM99.342-9.22a4.561,4.561,0,0,0-3.711,1.588v-5.7H93.726V1.4h1.905V-4.02c0-2.282,1.31-3.493,3.334-3.493,1.806,0,2.838,1.012,2.838,3.076V1.4h1.905V-4.656C103.709-7.752,101.9-9.22,99.342-9.22ZM112.56-.587a2.4,2.4,0,0,1-1.488.5,1.55,1.55,0,0,1-1.647-1.766v-5.7h3.017V-9.121h-3.017v-2.3h-1.905v2.3h-1.786v1.568h1.786v5.775a3,3,0,0,0,3.334,3.294,3.594,3.594,0,0,0,2.3-.734Zm3-2.4h1.508l.377-9.506H115.2Zm.774,4.505A1.254,1.254,0,0,0,117.6.246a1.242,1.242,0,0,0-1.27-1.27,1.263,1.263,0,0,0-1.31,1.27A1.276,1.276,0,0,0,116.331,1.517Z" transform="translate(155.519 179.423)" fill="#fff"/>
      <path id="Arrow_icon" data-name="Arrow icon" d="M5.495,13.995h0a.652.652,0,0,1-.09-.084L.191,8.757a.634.634,0,0,1,0-.907.662.662,0,0,1,.848-.061l.074.063L5.23,11.924V.648a.652.652,0,0,1,1.3-.089l.006.086V11.928l4.117-4.079a.662.662,0,0,1,.921,0,.635.635,0,0,1,.065.836l-.063.072L6.343,13.932a.662.662,0,0,1-.849.063Z" transform="translate(171.787 225.106) rotate(90)" fill="#767488"/>
      <path id="Retry_code" data-name="Retry code" d="M11.685,1.218,8.669-3.016A3.828,3.828,0,0,0,11.491-6.9c0-2.646-1.905-4.234-5.045-4.234H1.824V1.218H3.129V-2.7H6.446a8.791,8.791,0,0,0,.988-.053l2.823,3.969ZM6.411-3.81H3.129V-10H6.411c2.47,0,3.775,1.129,3.775,3.1C10.186-4.957,8.88-3.81,6.411-3.81Zm16,.388a4.422,4.422,0,0,0-4.5-4.71,4.469,4.469,0,0,0-4.534,4.71,4.6,4.6,0,0,0,4.869,4.728A4.568,4.568,0,0,0,21.829-.211l-.706-.811A3.658,3.658,0,0,1,18.283.194a3.435,3.435,0,0,1-3.652-3.228h7.762C22.393-3.175,22.411-3.316,22.411-3.422Zm-4.5-3.634a3.227,3.227,0,0,1,3.3,3.087h-6.58A3.223,3.223,0,0,1,17.913-7.056Zm11.5,6.809A2.073,2.073,0,0,1,28.039.23a1.486,1.486,0,0,1-1.605-1.694V-7h2.823V-8.062H26.433V-10.09H25.181v2.029H23.522V-7h1.658v5.61a2.458,2.458,0,0,0,2.717,2.7A2.983,2.983,0,0,0,29.856.653Zm3.916-6V-8.062h-1.2V1.218h1.253V-3.51c0-2.187,1.182-3.422,3.122-3.422.088,0,.194.018.3.018V-8.132A3.5,3.5,0,0,0,33.331-6.245Zm12.7-1.817L42.539-.176,39.047-8.062H37.741L41.887,1.2l-.406.9c-.529,1.164-1.094,1.552-1.923,1.552a2.317,2.317,0,0,1-1.694-.706l-.582.935a3.175,3.175,0,0,0,2.258.847c1.323,0,2.311-.582,3.087-2.4l4.64-10.391ZM57.5,1.306A4.091,4.091,0,0,0,61.133-.529L60.2-1.164A3.139,3.139,0,0,1,57.5.194a3.4,3.4,0,0,1-3.511-3.616A3.409,3.409,0,0,1,57.5-7.038a3.154,3.154,0,0,1,2.7,1.376l.935-.635A4.053,4.053,0,0,0,57.5-8.132a4.568,4.568,0,0,0-4.781,4.71A4.582,4.582,0,0,0,57.5,1.306Zm9.72,0a4.564,4.564,0,0,0,4.71-4.728,4.55,4.55,0,0,0-4.71-4.71,4.564,4.564,0,0,0-4.728,4.71A4.579,4.579,0,0,0,67.219,1.306Zm0-1.111a3.4,3.4,0,0,1-3.458-3.616,3.4,3.4,0,0,1,3.458-3.616,3.384,3.384,0,0,1,3.44,3.616A3.384,3.384,0,0,1,67.219.194ZM81.7-11.872V-6.3a4.053,4.053,0,0,0-3.528-1.835,4.489,4.489,0,0,0-4.622,4.71,4.5,4.5,0,0,0,4.622,4.728A4.02,4.02,0,0,0,81.755-.617V1.218h1.2v-13.09ZM78.28.194a3.4,3.4,0,0,1-3.458-3.616A3.4,3.4,0,0,1,78.28-7.038a3.394,3.394,0,0,1,3.44,3.616A3.394,3.394,0,0,1,78.28.194ZM94.545-3.422a4.422,4.422,0,0,0-4.5-4.71,4.469,4.469,0,0,0-4.534,4.71,4.6,4.6,0,0,0,4.869,4.728A4.568,4.568,0,0,0,93.963-.211l-.706-.811A3.658,3.658,0,0,1,90.417.194a3.435,3.435,0,0,1-3.652-3.228h7.762C94.528-3.175,94.545-3.316,94.545-3.422Zm-4.5-3.634a3.227,3.227,0,0,1,3.3,3.087h-6.58A3.223,3.223,0,0,1,90.047-7.056Z" transform="translate(177.338 235.834)" fill="#767488"/>
    </g>
    <g id="Register" transform="translate(0 413)">
      <rect id="Card-3" data-name="Card" width="430" height="524" rx="20" fill="#fff"/>
      <g id="Heading-3" data-name="Heading" transform="translate(107.341 61.964)">
        <path id="Let_s_get_to" data-name="Let&apos;s get to" d="M2.52,1.723H15.2v-2.3H5.166V-16.8H2.52ZM30.358-5.21c0-4.313-2.884-7.224-6.933-7.224a6.868,6.868,0,0,0-7.039,7.145c0,4.181,3.017,7.171,7.542,7.171a7.039,7.039,0,0,0,5.53-2.276l-1.4-1.641A5.236,5.236,0,0,1,24.007-.341c-2.778,0-4.763-1.641-5.081-4.1H30.3C30.331-4.681,30.358-5,30.358-5.21ZM23.425-10.29a4.374,4.374,0,0,1,4.5,4.022h-9A4.372,4.372,0,0,1,23.425-10.29ZM40.969-.923a3.2,3.2,0,0,1-1.985.662,2.067,2.067,0,0,1-2.2-2.355v-7.594H40.81V-12.3H36.788v-3.07h-2.54v3.07H31.866v2.09h2.382v7.7c0,2.831,1.614,4.393,4.446,4.393A4.792,4.792,0,0,0,41.762.9ZM44.25-9.655h1.879l.185-7.145H44.091ZM54.411,1.882c3.731,0,6.06-1.614,6.06-4.154,0-5.451-8.891-2.752-8.891-6.06,0-1.111,1.085-1.932,3.308-1.932a7.324,7.324,0,0,1,4.049,1.111l1.085-2.011a10.205,10.205,0,0,0-5.107-1.27c-3.6,0-5.848,1.694-5.848,4.207,0,5.583,8.865,2.858,8.865,6.007,0,1.191-.979,1.905-3.334,1.905A9.012,9.012,0,0,1,49.674-1.77L48.616.241A10.122,10.122,0,0,0,54.411,1.882ZM81.772-12.3v2.17a6.4,6.4,0,0,0-5.186-2.3c-4.049,0-7.118,2.726-7.118,6.774s3.07,6.8,7.118,6.8a6.417,6.417,0,0,0,5.054-2.17V.082c0,3.175-1.508,4.71-4.816,4.71a8.56,8.56,0,0,1-5.4-1.826L70.209,4.925A10.383,10.383,0,0,0,76.9,7.015c4.763,0,7.277-2.249,7.277-7.2V-12.3Zm-4.9,11.22A4.52,4.52,0,0,1,72.034-5.66c0-2.726,2.011-4.551,4.842-4.551A4.477,4.477,0,0,1,81.693-5.66,4.513,4.513,0,0,1,76.877-1.082ZM101.7-5.21c0-4.313-2.884-7.224-6.933-7.224a6.868,6.868,0,0,0-7.039,7.145c0,4.181,3.017,7.171,7.542,7.171A7.039,7.039,0,0,0,100.8-.394L99.4-2.034A5.237,5.237,0,0,1,95.347-.341c-2.778,0-4.763-1.641-5.081-4.1h11.378C101.671-4.681,101.7-5,101.7-5.21ZM94.765-10.29a4.374,4.374,0,0,1,4.5,4.022h-9A4.372,4.372,0,0,1,94.765-10.29ZM112.309-.923a3.2,3.2,0,0,1-1.985.662,2.067,2.067,0,0,1-2.2-2.355v-7.594h4.022V-12.3h-4.022v-3.07h-2.54v3.07h-2.382v2.09h2.382v7.7c0,2.831,1.614,4.393,4.446,4.393A4.792,4.792,0,0,0,113.1.9Zm18.073,0a3.2,3.2,0,0,1-1.985.662,2.067,2.067,0,0,1-2.2-2.355v-7.594h4.022V-12.3H126.2v-3.07h-2.54v3.07h-2.382v2.09h2.382v7.7c0,2.831,1.614,4.393,4.446,4.393A4.792,4.792,0,0,0,131.176.9Zm9.394,2.8a6.978,6.978,0,0,0,7.277-7.171,6.957,6.957,0,0,0-7.277-7.145,6.979,6.979,0,0,0-7.3,7.145A7,7,0,0,0,139.776,1.882Zm0-2.223a4.644,4.644,0,0,1-4.737-4.948,4.622,4.622,0,0,1,4.737-4.922,4.6,4.6,0,0,1,4.71,4.922A4.623,4.623,0,0,1,139.776-.341Z" transform="translate(33.706 16.8)" fill="#110e32"/>
        <path id="know_you_better" data-name="know you better" d="M12.9,1.826h3.122L9.54-6.4l5.9-5.8h-3.07L4.724-5.212v-12.6H2.184V1.826h2.54V-2.01l2.911-2.7ZM25.788-12.33a6.012,6.012,0,0,0-5.054,2.249V-12.2H18.3V1.826h2.54V-5.4c0-3.043,1.746-4.657,4.446-4.657,2.408,0,3.784,1.35,3.784,4.1v7.78h2.54V-6.244C31.609-10.372,29.2-12.33,25.788-12.33ZM42.406,1.985a6.978,6.978,0,0,0,7.277-7.171,6.957,6.957,0,0,0-7.277-7.145,6.979,6.979,0,0,0-7.3,7.145A7,7,0,0,0,42.406,1.985Zm0-2.223a4.644,4.644,0,0,1-4.737-4.948,4.622,4.622,0,0,1,4.737-4.922,4.6,4.6,0,0,1,4.71,4.922A4.623,4.623,0,0,1,42.406-.238ZM71.751-12.2,67.57-.978,63.416-12.2H61.273L57.039-1.031,52.964-12.2H50.556L55.769,1.826H58.2L62.3-8.811,66.353,1.826h2.434L74.027-12.2Zm21.884,0L88.793-.978,83.9-12.2H81.251l6.192,14-.45.979c-.688,1.614-1.455,2.17-2.673,2.17a3.588,3.588,0,0,1-2.514-1.032L80.722,5.822a5.266,5.266,0,0,0,3.6,1.3c2.143,0,3.758-.926,5-3.89l6.8-15.427ZM104.114,1.985a6.978,6.978,0,0,0,7.277-7.171,6.957,6.957,0,0,0-7.277-7.145,6.979,6.979,0,0,0-7.3,7.145A7,7,0,0,0,104.114,1.985Zm0-2.223a4.644,4.644,0,0,1-4.737-4.948,4.622,4.622,0,0,1,4.737-4.922,4.6,4.6,0,0,1,4.71,4.922A4.623,4.623,0,0,1,104.114-.238ZM125.442-12.2v7.25c0,3.017-1.694,4.657-4.34,4.657-2.408,0-3.784-1.376-3.784-4.128V-12.2h-2.54v8.071c0,4.128,2.408,6.113,6.033,6.113A5.706,5.706,0,0,0,125.574-.29V1.826h2.408V-12.2Zm21.937-.132a5.968,5.968,0,0,0-4.9,2.249v-7.727h-2.54V1.826h2.434V-.4a5.925,5.925,0,0,0,5,2.382,6.828,6.828,0,0,0,7.092-7.171A6.807,6.807,0,0,0,147.378-12.33ZM147.167-.238a4.638,4.638,0,0,1-4.71-4.948,4.616,4.616,0,0,1,4.71-4.922A4.622,4.622,0,0,1,151.9-5.186,4.644,4.644,0,0,1,147.167-.238Zm23.5-4.869c0-4.313-2.884-7.224-6.933-7.224a6.868,6.868,0,0,0-7.039,7.145c0,4.181,3.017,7.171,7.542,7.171a7.039,7.039,0,0,0,5.53-2.276l-1.4-1.641a5.236,5.236,0,0,1-4.049,1.694c-2.778,0-4.763-1.641-5.081-4.1h11.378C170.638-4.577,170.665-4.895,170.665-5.106Zm-6.933-5.081a4.374,4.374,0,0,1,4.5,4.022h-9A4.372,4.372,0,0,1,163.732-10.187ZM181.276-.82a3.2,3.2,0,0,1-1.985.662,2.067,2.067,0,0,1-2.2-2.355v-7.594h4.022V-12.2h-4.022v-3.07h-2.54v3.07h-2.382v2.09h2.382v7.7c0,2.831,1.614,4.393,4.446,4.393a4.792,4.792,0,0,0,3.07-.979Zm10.611,0a3.2,3.2,0,0,1-1.985.662,2.067,2.067,0,0,1-2.2-2.355v-7.594h4.022V-12.2h-4.022v-3.07h-2.54v3.07h-2.382v2.09h2.382v7.7c0,2.831,1.614,4.393,4.446,4.393a4.792,4.792,0,0,0,3.07-.979Zm16.062-4.287c0-4.313-2.884-7.224-6.933-7.224a6.868,6.868,0,0,0-7.039,7.145c0,4.181,3.017,7.171,7.542,7.171a7.039,7.039,0,0,0,5.53-2.276l-1.4-1.641A5.236,5.236,0,0,1,201.6-.238c-2.778,0-4.763-1.641-5.081-4.1H207.9C207.922-4.577,207.949-4.895,207.949-5.106Zm-6.933-5.081a4.374,4.374,0,0,1,4.5,4.022h-9A4.372,4.372,0,0,1,201.016-10.187Zm12.887.344V-12.2h-2.434V1.826h2.54V-5.159c0-3.07,1.694-4.737,4.419-4.737a4.485,4.485,0,0,1,.582.026V-12.33C216.549-12.33,214.8-11.484,213.9-9.843Z" transform="translate(-2.184 45.363)" fill="#110e32"/>
      </g>
      <g id="First_name_box" data-name="First name box" transform="translate(54 174)" fill="#fff" stroke="#4300ff" stroke-width="1.5" opacity="0.5">
        <rect width="323" height="47" rx="8" stroke="none"/>
        <rect x="0.75" y="0.75" width="321.5" height="45.5" rx="7.25" fill="none"/>
      </g>
      <path id="First_name" data-name="First name" d="M9.005-8.752V-9.74H1.6V1.065H2.738V-3.519H8.326v-.988H2.738V-8.752Zm2.531-.077a.788.788,0,0,0,.8-.8.778.778,0,0,0-.8-.756.791.791,0,0,0-.8.772A.794.794,0,0,0,11.537-8.829Zm-.556,9.894h1.1V-7.054h-1.1Zm5.2-6.529v-1.59h-1.05V1.065h1.1V-3.071c0-1.914,1.034-2.995,2.732-2.995.077,0,.17.015.262.015V-7.116A3.062,3.062,0,0,0,16.183-5.464Zm7.255,6.607c2.115,0,3.35-.911,3.35-2.315,0-3.118-5.264-1.466-5.264-3.658,0-.772.648-1.343,2.115-1.343a4.162,4.162,0,0,1,2.393.695l.479-.88a5.5,5.5,0,0,0-2.871-.756c-2.068,0-3.211.988-3.211,2.315,0,3.211,5.264,1.544,5.264,3.658,0,.8-.633,1.327-2.176,1.327a4.9,4.9,0,0,1-2.887-.911l-.494.864A5.424,5.424,0,0,0,23.438,1.143ZM32.7-.216A1.814,1.814,0,0,1,31.5.2a1.3,1.3,0,0,1-1.4-1.482V-6.128h2.47v-.926h-2.47V-8.829h-1.1v1.775H27.544v.926h1.451v4.909a2.151,2.151,0,0,0,2.377,2.362A2.61,2.61,0,0,0,33.085.571Zm10.558-6.9A3.412,3.412,0,0,0,40.17-5.557v-1.5h-1.05V1.065h1.1v-4.26a2.662,2.662,0,0,1,2.84-2.933A2.267,2.267,0,0,1,45.5-3.534v4.6h1.1V-3.643C46.592-5.973,45.233-7.116,43.257-7.116Zm9.153,0a5.155,5.155,0,0,0-3.3,1.1L49.6-5.2a4.136,4.136,0,0,1,2.7-.957c1.513,0,2.3.756,2.3,2.146v.494H52.025c-2.331,0-3.133,1.05-3.133,2.3,0,1.4,1.127,2.362,2.964,2.362A3.049,3.049,0,0,0,54.649-.2V1.065H55.7V-3.967C55.7-6.066,54.51-7.116,52.411-7.116ZM52.025.278c-1.3,0-2.053-.587-2.053-1.528,0-.834.509-1.451,2.084-1.451H54.6v1.327A2.6,2.6,0,0,1,52.025.278ZM68.8-7.116A3.536,3.536,0,0,0,65.593-5.4a2.916,2.916,0,0,0-2.887-1.713,3.283,3.283,0,0,0-2.979,1.544V-7.054h-1.05V1.065h1.1v-4.26a2.617,2.617,0,0,1,2.717-2.933c1.482,0,2.346.88,2.346,2.593v4.6h1.1v-4.26A2.609,2.609,0,0,1,68.65-6.128c1.466,0,2.331.88,2.331,2.593v4.6h1.1V-3.643C72.076-5.973,70.78-7.116,68.8-7.116ZM82.171-2.994a3.869,3.869,0,0,0-3.936-4.121,3.91,3.91,0,0,0-3.967,4.121,4.021,4.021,0,0,0,4.26,4.137A4,4,0,0,0,81.662-.185l-.617-.71A3.2,3.2,0,0,1,78.559.17a3.005,3.005,0,0,1-3.2-2.825h6.792C82.156-2.778,82.171-2.9,82.171-2.994Zm-3.936-3.18a2.824,2.824,0,0,1,2.887,2.7H75.364A2.82,2.82,0,0,1,78.235-6.174Z" transform="translate(54.564 163.217)" fill="#767488"/>
      <path id="Marcus" d="M16.675,1.292,16.656-12.6H15.028L9.312-2.836,3.517-12.6H1.89V1.292H3.8V-8.77L8.816-.395h.913L14.75-8.829l.02,10.122ZM24.4-9.325a7,7,0,0,0-4.346,1.35l.794,1.429a5.319,5.319,0,0,1,3.334-1.131c1.885,0,2.818.933,2.818,2.54v.377H23.979c-3.136,0-4.227,1.389-4.227,3.076,0,1.826,1.508,3.1,3.89,3.1A3.9,3.9,0,0,0,27.095-.1V1.292H28.9V-5.058C28.9-7.936,27.273-9.325,24.4-9.325ZM23.959-.057c-1.449,0-2.322-.655-2.322-1.707,0-.893.536-1.627,2.421-1.627H27v1.469A3.05,3.05,0,0,1,23.959-.057Zm10.3-7.4V-9.226H32.433V1.292h1.905V-3.947c0-2.3,1.27-3.552,3.314-3.552a3.364,3.364,0,0,1,.437.02V-9.325C36.244-9.325,34.934-8.69,34.259-7.46ZM44.916,1.411A4.706,4.706,0,0,0,49.2-.851l-1.449-.913A3.279,3.279,0,0,1,44.9-.256a3.485,3.485,0,0,1-3.612-3.711A3.491,3.491,0,0,1,44.9-7.658,3.279,3.279,0,0,1,47.754-6.15L49.2-7.083a4.691,4.691,0,0,0-4.287-2.243A5.255,5.255,0,0,0,39.36-3.967,5.271,5.271,0,0,0,44.916,1.411ZM59.563-9.226v5.438c0,2.262-1.27,3.493-3.255,3.493-1.806,0-2.838-1.032-2.838-3.1V-9.226H51.565v6.053c0,3.1,1.806,4.584,4.525,4.584A4.28,4.28,0,0,0,59.662-.3V1.292h1.806V-9.226ZM68.117,1.411c2.8,0,4.545-1.211,4.545-3.116,0-4.088-6.668-2.064-6.668-4.545,0-.834.814-1.449,2.481-1.449a5.493,5.493,0,0,1,3.036.834l.814-1.508a7.654,7.654,0,0,0-3.83-.953c-2.7,0-4.386,1.27-4.386,3.156,0,4.188,6.648,2.143,6.648,4.505,0,.893-.734,1.429-2.5,1.429a6.759,6.759,0,0,1-3.691-1.092L63.77.181A7.592,7.592,0,0,0,68.117,1.411Z" transform="translate(69.325 202.682)" fill="#413e5b"/>
      <rect id="Email_address_box_outline" data-name="Email address box outline" width="327" height="51" rx="8.5" transform="translate(52 260)" fill="#4300ff" opacity="0.15"/>
      <g id="Email_address_box" data-name="Email address box" transform="translate(54 262)" fill="#fff" stroke="#4300ff" stroke-width="1.5">
        <rect width="323" height="47" rx="8" stroke="none"/>
        <rect x="0.75" y="0.75" width="321.5" height="45.5" rx="7.25" fill="none"/>
      </g>
      <path id="Email_address" data-name="Email address" d="M2.738.078V-3.936H8.326v-.972H2.738V-8.752H9.005V-9.74H1.6V1.065H9.237V.078ZM21.817-7.116A3.536,3.536,0,0,0,18.606-5.4,2.916,2.916,0,0,0,15.72-7.116a3.283,3.283,0,0,0-2.979,1.544V-7.054h-1.05V1.065h1.1v-4.26A2.617,2.617,0,0,1,15.5-6.128c1.482,0,2.346.88,2.346,2.593v4.6h1.1v-4.26a2.609,2.609,0,0,1,2.717-2.933c1.466,0,2.331.88,2.331,2.593v4.6h1.1V-3.643C25.089-5.973,23.793-7.116,21.817-7.116Zm9.092,0a5.155,5.155,0,0,0-3.3,1.1L28.1-5.2a4.136,4.136,0,0,1,2.7-.957c1.513,0,2.3.756,2.3,2.146v.494H30.523c-2.331,0-3.133,1.05-3.133,2.3,0,1.4,1.127,2.362,2.964,2.362A3.049,3.049,0,0,0,33.147-.2V1.065H34.2V-3.967C34.2-6.066,33.008-7.116,30.909-7.116ZM30.523.278c-1.3,0-2.053-.587-2.053-1.528,0-.834.509-1.451,2.084-1.451H33.1v1.327A2.6,2.6,0,0,1,30.523.278Zm7.209-9.107a.788.788,0,0,0,.8-.8.778.778,0,0,0-.8-.756.791.791,0,0,0-.8.772A.794.794,0,0,0,37.731-8.829Zm-.556,9.894h1.1V-7.054h-1.1Zm4.152,0h1.1V-10.388h-1.1ZM52.365-7.116a5.155,5.155,0,0,0-3.3,1.1l.494.818a4.136,4.136,0,0,1,2.7-.957c1.513,0,2.3.756,2.3,2.146v.494H51.979c-2.331,0-3.133,1.05-3.133,2.3,0,1.4,1.127,2.362,2.964,2.362A3.049,3.049,0,0,0,54.6-.2V1.065h1.05V-3.967C55.653-6.066,54.464-7.116,52.365-7.116ZM51.979.278c-1.3,0-2.053-.587-2.053-1.528,0-.834.509-1.451,2.084-1.451h2.547v1.327A2.6,2.6,0,0,1,51.979.278Zm13-10.666V-5.51a3.546,3.546,0,0,0-3.087-1.605,3.928,3.928,0,0,0-4.044,4.121,3.941,3.941,0,0,0,4.044,4.137A3.517,3.517,0,0,0,65.022-.54V1.065h1.05V-10.388ZM61.981.17a2.973,2.973,0,0,1-3.025-3.164,2.973,2.973,0,0,1,3.025-3.164,2.969,2.969,0,0,1,3.01,3.164A2.969,2.969,0,0,1,61.981.17Zm13.46-10.558V-5.51a3.546,3.546,0,0,0-3.087-1.605A3.928,3.928,0,0,0,68.31-2.994a3.941,3.941,0,0,0,4.044,4.137A3.517,3.517,0,0,0,75.488-.54V1.065h1.05V-10.388ZM72.447.17a2.973,2.973,0,0,1-3.025-3.164,2.973,2.973,0,0,1,3.025-3.164,2.969,2.969,0,0,1,3.01,3.164A2.969,2.969,0,0,1,72.447.17Zm8.2-5.634v-1.59h-1.05V1.065h1.1V-3.071c0-1.914,1.034-2.995,2.732-2.995.077,0,.17.015.262.015V-7.116A3.062,3.062,0,0,0,80.643-5.464Zm12.025,2.47a3.869,3.869,0,0,0-3.936-4.121,3.91,3.91,0,0,0-3.967,4.121,4.021,4.021,0,0,0,4.26,4.137A4,4,0,0,0,92.158-.185l-.617-.71A3.2,3.2,0,0,1,89.056.17a3.005,3.005,0,0,1-3.2-2.825h6.792C92.652-2.778,92.668-2.9,92.668-2.994Zm-3.936-3.18a2.824,2.824,0,0,1,2.887,2.7H85.861A2.82,2.82,0,0,1,88.732-6.174Zm8.351,7.317c2.115,0,3.35-.911,3.35-2.315,0-3.118-5.264-1.466-5.264-3.658,0-.772.648-1.343,2.115-1.343a4.162,4.162,0,0,1,2.393.695l.479-.88a5.5,5.5,0,0,0-2.871-.756c-2.068,0-3.211.988-3.211,2.315,0,3.211,5.264,1.544,5.264,3.658,0,.8-.633,1.327-2.176,1.327a4.9,4.9,0,0,1-2.887-.911l-.494.864A5.424,5.424,0,0,0,97.082,1.143Zm7.548,0c2.115,0,3.35-.911,3.35-2.315,0-3.118-5.264-1.466-5.264-3.658,0-.772.648-1.343,2.115-1.343a4.162,4.162,0,0,1,2.393.695l.479-.88a5.5,5.5,0,0,0-2.871-.756c-2.068,0-3.211.988-3.211,2.315,0,3.211,5.264,1.544,5.264,3.658,0,.8-.633,1.327-2.176,1.327a4.9,4.9,0,0,1-2.887-.911l-.494.864A5.424,5.424,0,0,0,104.631,1.143Z" transform="translate(53.896 251.422)" fill="#4300ff"/>
      <path id="ma" d="M14.8-9.63a4.74,4.74,0,0,0-4.049,1.945A3.893,3.893,0,0,0,7.1-9.63,4.263,4.263,0,0,0,3.464-7.963V-9.531H1.638V.988H3.543V-4.43c0-2.282,1.25-3.493,3.156-3.493,1.727,0,2.719,1.012,2.719,3.076V.988h1.905V-4.43c0-2.282,1.25-3.493,3.156-3.493,1.727,0,2.719,1.012,2.719,3.076V.988H19.1V-5.065C19.1-8.161,17.356-9.63,14.8-9.63Zm11.65,0A7,7,0,0,0,22.1-8.28l.794,1.429a5.319,5.319,0,0,1,3.334-1.131c1.885,0,2.818.933,2.818,2.54v.377H26.029c-3.136,0-4.227,1.389-4.227,3.076,0,1.826,1.508,3.1,3.89,3.1A3.9,3.9,0,0,0,29.145-.4V.988h1.806V-5.363C30.951-8.241,29.323-9.63,26.446-9.63ZM26.009-.362c-1.449,0-2.322-.655-2.322-1.707,0-.893.536-1.627,2.421-1.627h2.937v1.469A3.05,3.05,0,0,1,26.009-.362Z" transform="translate(69.745 291.192)" fill="#110e32"/>
      <line id="Cursor-2" data-name="Cursor" y2="29" transform="translate(105 271)" fill="none" stroke="#4300ff" stroke-width="1"/>
      <g id="Password_box" data-name="Password box" transform="translate(54 351)" fill="#fff" stroke="#bfbfbf" stroke-width="1.5">
        <rect width="323" height="46" rx="8" stroke="none"/>
        <rect x="0.75" y="0.75" width="321.5" height="44.5" rx="7.25" fill="none"/>
      </g>
      <path id="Password" d="M5.64-9.74H1.6V1.065H2.738V-2.346h2.9c2.748,0,4.415-1.389,4.415-3.689C10.055-8.35,8.388-9.74,5.64-9.74Zm-.031,6.39H2.738v-5.4H5.609c2.161,0,3.3.988,3.3,2.717C8.913-4.337,7.77-3.349,5.609-3.349Zm9.447-3.766a5.155,5.155,0,0,0-3.3,1.1l.494.818a4.136,4.136,0,0,1,2.7-.957c1.513,0,2.3.756,2.3,2.146v.494H14.67c-2.331,0-3.133,1.05-3.133,2.3,0,1.4,1.127,2.362,2.964,2.362A3.049,3.049,0,0,0,17.294-.2V1.065h1.05V-3.967C18.344-6.066,17.155-7.116,15.056-7.116ZM14.67.278c-1.3,0-2.053-.587-2.053-1.528,0-.834.509-1.451,2.084-1.451h2.547v1.327A2.6,2.6,0,0,1,14.67.278Zm8.829.864c2.115,0,3.35-.911,3.35-2.315,0-3.118-5.264-1.466-5.264-3.658,0-.772.648-1.343,2.115-1.343a4.162,4.162,0,0,1,2.393.695l.479-.88A5.5,5.5,0,0,0,23.7-7.116c-2.068,0-3.211.988-3.211,2.315,0,3.211,5.264,1.544,5.264,3.658,0,.8-.633,1.327-2.176,1.327A4.9,4.9,0,0,1,20.69-.725L20.2.139A5.424,5.424,0,0,0,23.5,1.143Zm7.548,0c2.115,0,3.35-.911,3.35-2.315,0-3.118-5.264-1.466-5.264-3.658,0-.772.648-1.343,2.115-1.343a4.162,4.162,0,0,1,2.393.695l.479-.88a5.5,5.5,0,0,0-2.871-.756c-2.068,0-3.211.988-3.211,2.315,0,3.211,5.264,1.544,5.264,3.658,0,.8-.633,1.327-2.176,1.327a4.9,4.9,0,0,1-2.887-.911l-.494.864A5.424,5.424,0,0,0,31.048,1.143Zm16.131-8.2L44.6-.154l-2.593-6.9h-.942l-2.609,6.9-2.547-6.9H34.86l3.056,8.119h1.034l2.562-6.653,2.562,6.653H45.11l3.072-8.119Zm5.742,8.2a3.994,3.994,0,0,0,4.121-4.137A3.981,3.981,0,0,0,52.92-7.116a3.994,3.994,0,0,0-4.137,4.121A4.006,4.006,0,0,0,52.92,1.143Zm0-.972a2.973,2.973,0,0,1-3.025-3.164A2.973,2.973,0,0,1,52.92-6.159a2.961,2.961,0,0,1,3.01,3.164A2.961,2.961,0,0,1,52.92.17ZM60.33-5.464v-1.59H59.28V1.065h1.1V-3.071c0-1.914,1.034-2.995,2.732-2.995.077,0,.17.015.262.015V-7.116A3.062,3.062,0,0,0,60.33-5.464Zm11.253-4.924V-5.51A3.546,3.546,0,0,0,68.5-7.116a3.928,3.928,0,0,0-4.044,4.121A3.941,3.941,0,0,0,68.5,1.143,3.517,3.517,0,0,0,71.629-.54V1.065h1.05V-10.388ZM68.588.17a2.973,2.973,0,0,1-3.025-3.164,2.973,2.973,0,0,1,3.025-3.164A2.969,2.969,0,0,1,71.6-2.994,2.969,2.969,0,0,1,68.588.17Z" transform="translate(54.491 339.627)" fill="#767488"/>
      <rect id="Button-3" data-name="Button" width="323" height="50" rx="8" transform="translate(54 419)" fill="#4300ff"/>
      <path id="Continue-2" data-name="Continue" d="M8.207,1.556a6.893,6.893,0,0,0,5.3-2.183l-1.29-1.25A5.166,5.166,0,0,1,8.306-.21,5.247,5.247,0,0,1,2.849-5.549a5.247,5.247,0,0,1,5.458-5.339,5.148,5.148,0,0,1,3.91,1.647l1.29-1.25a6.865,6.865,0,0,0-5.279-2.163,7.027,7.027,0,0,0-7.363,7.1A7.022,7.022,0,0,0,8.207,1.556Zm11.928-.04a5.234,5.234,0,0,0,5.458-5.378A5.218,5.218,0,0,0,20.135-9.22a5.234,5.234,0,0,0-5.478,5.358A5.25,5.25,0,0,0,20.135,1.517Zm0-1.667a3.483,3.483,0,0,1-3.552-3.711,3.466,3.466,0,0,1,3.552-3.691,3.451,3.451,0,0,1,3.533,3.691A3.468,3.468,0,0,1,20.135-.15ZM33.848-9.22a4.509,4.509,0,0,0-3.791,1.687V-9.121H28.232V1.4h1.905V-4.02c0-2.282,1.31-3.493,3.334-3.493,1.806,0,2.838,1.012,2.838,3.076V1.4h1.905V-4.656C38.214-7.752,36.408-9.22,33.848-9.22ZM47.066-.587a2.4,2.4,0,0,1-1.488.5A1.55,1.55,0,0,1,43.93-1.857v-5.7h3.017V-9.121H43.93v-2.3H42.025v2.3H40.239v1.568h1.786v5.775a3,3,0,0,0,3.334,3.294,3.594,3.594,0,0,0,2.3-.734Zm3.85-10.558a1.247,1.247,0,0,0,1.29-1.27,1.235,1.235,0,0,0-1.29-1.211,1.254,1.254,0,0,0-1.29,1.25A1.238,1.238,0,0,0,50.916-11.145ZM49.963,1.4h1.905V-9.121H49.963ZM61.117-9.22a4.509,4.509,0,0,0-3.791,1.687V-9.121H55.5V1.4h1.905V-4.02c0-2.282,1.31-3.493,3.334-3.493,1.806,0,2.838,1.012,2.838,3.076V1.4h1.905V-4.656C65.483-7.752,63.677-9.22,61.117-9.22Zm15.8.1v5.438c0,2.262-1.27,3.493-3.255,3.493-1.806,0-2.838-1.032-2.838-3.1V-9.121H68.916v6.053c0,3.1,1.806,4.584,4.525,4.584A4.28,4.28,0,0,0,77.014-.19V1.4H78.82V-9.121ZM91.958-3.8a5.072,5.072,0,0,0-5.2-5.418,5.151,5.151,0,0,0-5.279,5.358c0,3.136,2.262,5.378,5.656,5.378A5.28,5.28,0,0,0,91.283-.19l-1.052-1.23A3.927,3.927,0,0,1,87.195-.15a3.563,3.563,0,0,1-3.81-3.076h8.534C91.938-3.405,91.958-3.643,91.958-3.8Zm-5.2-3.81A3.28,3.28,0,0,1,90.132-4.6H83.384A3.279,3.279,0,0,1,86.758-7.613Z" transform="translate(168.649 449.551)" fill="#fff"/>
    </g>
    <g id="Verify" transform="translate(470 337)">
      <rect id="Card-4" data-name="Card" width="430" height="282" rx="20" fill="#fff"/>
      <g id="Heading-4" data-name="Heading" transform="translate(100.382 60.456)">
        <path id="Please_verify_your" data-name="Please verify your" d="M9.744-16.66H2.52V1.863H5.166v-5.61H9.744c4.816,0,7.727-2.434,7.727-6.457S14.56-16.66,9.744-16.66ZM9.665-6.049h-4.5v-8.309h4.5c3.387,0,5.16,1.508,5.16,4.154S13.052-6.049,9.665-6.049Zm11.59,7.912H23.8V-17.771h-2.54ZM41.313-5.07c0-4.313-2.884-7.224-6.933-7.224a6.868,6.868,0,0,0-7.039,7.145c0,4.181,3.017,7.171,7.542,7.171a7.039,7.039,0,0,0,5.53-2.276l-1.4-1.641A5.236,5.236,0,0,1,34.962-.2c-2.778,0-4.763-1.641-5.081-4.1H41.26C41.286-4.54,41.313-4.858,41.313-5.07ZM34.38-10.15a4.374,4.374,0,0,1,4.5,4.022h-9A4.372,4.372,0,0,1,34.38-10.15Zm15.162-2.143a9.34,9.34,0,0,0-5.8,1.8l1.058,1.905A7.092,7.092,0,0,1,49.251-10.1c2.514,0,3.758,1.244,3.758,3.387v.5H48.986c-4.181,0-5.636,1.852-5.636,4.1,0,2.434,2.011,4.128,5.186,4.128,2.2,0,3.758-.741,4.6-2.011V1.863h2.408V-6.6C55.549-10.441,53.379-12.294,49.542-12.294ZM48.96.064c-1.932,0-3.1-.873-3.1-2.276,0-1.191.714-2.17,3.228-2.17h3.916v1.958A4.067,4.067,0,0,1,48.96.064ZM64.281,2.022c3.731,0,6.06-1.614,6.06-4.154,0-5.451-8.891-2.752-8.891-6.06,0-1.111,1.085-1.932,3.308-1.932a7.324,7.324,0,0,1,4.049,1.111l1.085-2.011a10.2,10.2,0,0,0-5.107-1.27c-3.6,0-5.848,1.694-5.848,4.207,0,5.583,8.865,2.858,8.865,6.007,0,1.191-.979,1.905-3.334,1.905A9.012,9.012,0,0,1,59.545-1.63L58.486.382A10.122,10.122,0,0,0,64.281,2.022ZM86.191-5.07c0-4.313-2.884-7.224-6.933-7.224A6.868,6.868,0,0,0,72.22-5.149c0,4.181,3.017,7.171,7.542,7.171a7.039,7.039,0,0,0,5.53-2.276l-1.4-1.641A5.236,5.236,0,0,1,79.841-.2c-2.778,0-4.763-1.641-5.081-4.1H86.138C86.165-4.54,86.191-4.858,86.191-5.07ZM79.258-10.15a4.374,4.374,0,0,1,4.5,4.022h-9A4.372,4.372,0,0,1,79.258-10.15Zm27.494-2.011L101.83-.915,97.014-12.161H94.368l6.139,14.025H103.1l6.139-14.025ZM123.9-5.07c0-4.313-2.884-7.224-6.933-7.224a6.868,6.868,0,0,0-7.039,7.145c0,4.181,3.017,7.171,7.542,7.171A7.039,7.039,0,0,0,123-.254l-1.4-1.641A5.237,5.237,0,0,1,117.548-.2c-2.778,0-4.763-1.641-5.081-4.1h11.378C123.873-4.54,123.9-4.858,123.9-5.07Zm-6.933-5.081a4.374,4.374,0,0,1,4.5,4.022h-9A4.372,4.372,0,0,1,116.966-10.15Zm12.887.344v-2.355h-2.434V1.863h2.54V-5.122c0-3.07,1.694-4.737,4.419-4.737a4.486,4.486,0,0,1,.582.026v-2.461C132.5-12.294,130.753-11.447,129.853-9.806Zm9.5-5.054a1.662,1.662,0,0,0,1.72-1.694,1.646,1.646,0,0,0-1.72-1.614,1.673,1.673,0,0,0-1.72,1.667A1.651,1.651,0,0,0,139.353-14.86Zm-1.27,16.724h2.54V-12.161h-2.54Zm12.516-17.7a3.29,3.29,0,0,1,1.958.662l.767-1.932a4.739,4.739,0,0,0-2.858-.82c-2.99,0-4.631,1.8-4.631,4.525v1.244h-2.382v2.09h2.382V1.863h2.54V-10.071H152.4v-2.09h-4.075v-1.217C148.323-14.993,149.09-15.839,150.6-15.839Zm14.4,3.678L160.151-.942l-4.9-11.22H152.61l6.192,14-.45.979c-.688,1.614-1.455,2.17-2.673,2.17a3.588,3.588,0,0,1-2.514-1.032l-1.085,1.905a5.266,5.266,0,0,0,3.6,1.3c2.143,0,3.758-.926,5-3.89l6.8-15.427Zm21.91,0L182.062-.942l-4.9-11.22H174.52l6.192,14-.45.979c-.688,1.614-1.455,2.17-2.673,2.17a3.588,3.588,0,0,1-2.514-1.032l-1.085,1.905a5.266,5.266,0,0,0,3.6,1.3c2.143,0,3.758-.926,5-3.89l6.8-15.427ZM197.383,2.022a6.978,6.978,0,0,0,7.277-7.171,6.957,6.957,0,0,0-7.277-7.145,6.979,6.979,0,0,0-7.3,7.145A7,7,0,0,0,197.383,2.022Zm0-2.223a4.644,4.644,0,0,1-4.737-4.948,4.622,4.622,0,0,1,4.737-4.922,4.6,4.6,0,0,1,4.71,4.922A4.623,4.623,0,0,1,197.383-.2Zm21.328-11.961v7.25c0,3.017-1.694,4.657-4.34,4.657-2.408,0-3.784-1.376-3.784-4.128v-7.78h-2.54V-4.09c0,4.128,2.408,6.113,6.033,6.113a5.706,5.706,0,0,0,4.763-2.276V1.863h2.408V-12.161Zm9.817,2.355v-2.355h-2.434V1.863h2.54V-5.122c0-3.07,1.694-4.737,4.419-4.737a4.486,4.486,0,0,1,.582.026v-2.461C231.174-12.294,229.428-11.447,228.528-9.806Z" transform="translate(-2.52 18.168)" fill="#110e32"/>
        <path id="email_address-2" data-name="email address" d="M14.98-5.07c0-4.313-2.884-7.224-6.933-7.224A6.868,6.868,0,0,0,1.008-5.149c0,4.181,3.017,7.171,7.542,7.171A7.039,7.039,0,0,0,14.08-.254l-1.4-1.641A5.236,5.236,0,0,1,8.629-.2C5.85-.2,3.866-1.841,3.548-4.3H14.927C14.953-4.54,14.98-4.858,14.98-5.07ZM8.047-10.15a4.374,4.374,0,0,1,4.5,4.022h-9A4.372,4.372,0,0,1,8.047-10.15Zm28-2.143a6.32,6.32,0,0,0-5.4,2.593,5.191,5.191,0,0,0-4.869-2.593,5.684,5.684,0,0,0-4.842,2.223v-2.09H18.5V1.863h2.54V-5.361c0-3.043,1.667-4.657,4.207-4.657,2.3,0,3.625,1.35,3.625,4.1v7.78h2.54V-5.361c0-3.043,1.667-4.657,4.207-4.657,2.3,0,3.625,1.35,3.625,4.1v7.78h2.54V-6.207C41.785-10.335,39.457-12.294,36.043-12.294Zm15.533,0a9.34,9.34,0,0,0-5.8,1.8l1.058,1.905A7.092,7.092,0,0,1,51.285-10.1c2.514,0,3.758,1.244,3.758,3.387v.5H51.02c-4.181,0-5.636,1.852-5.636,4.1,0,2.434,2.011,4.128,5.186,4.128,2.2,0,3.758-.741,4.6-2.011V1.863h2.408V-6.6C57.583-10.441,55.413-12.294,51.576-12.294ZM50.994.064c-1.932,0-3.1-.873-3.1-2.276,0-1.191.714-2.17,3.228-2.17h3.916v1.958A4.067,4.067,0,0,1,50.994.064ZM63.563-14.86a1.662,1.662,0,0,0,1.72-1.694,1.646,1.646,0,0,0-1.72-1.614,1.673,1.673,0,0,0-1.72,1.667A1.651,1.651,0,0,0,63.563-14.86ZM62.293,1.863h2.54V-12.161h-2.54Zm7.383,0h2.54V-17.771h-2.54ZM89.284-12.294a9.34,9.34,0,0,0-5.8,1.8l1.058,1.905A7.092,7.092,0,0,1,88.993-10.1c2.514,0,3.758,1.244,3.758,3.387v.5H88.728c-4.181,0-5.636,1.852-5.636,4.1,0,2.434,2.011,4.128,5.186,4.128,2.2,0,3.758-.741,4.6-2.011V1.863H95.29V-6.6C95.29-10.441,93.121-12.294,89.284-12.294ZM88.7.064c-1.932,0-3.1-.873-3.1-2.276,0-1.191.714-2.17,3.228-2.17H92.75v1.958A4.067,4.067,0,0,1,88.7.064ZM110.77-17.771v7.727a5.968,5.968,0,0,0-4.9-2.249,6.807,6.807,0,0,0-7.092,7.145,6.828,6.828,0,0,0,7.092,7.171,5.925,5.925,0,0,0,5-2.382V1.863h2.434V-17.771ZM106.087-.2a4.644,4.644,0,0,1-4.737-4.948,4.622,4.622,0,0,1,4.737-4.922,4.616,4.616,0,0,1,4.71,4.922A4.638,4.638,0,0,1,106.087-.2Zm22.73-17.57v7.727a5.968,5.968,0,0,0-4.9-2.249,6.807,6.807,0,0,0-7.092,7.145,6.828,6.828,0,0,0,7.092,7.171,5.925,5.925,0,0,0,5-2.382V1.863h2.434V-17.771ZM124.134-.2A4.644,4.644,0,0,1,119.4-5.149a4.622,4.622,0,0,1,4.737-4.922,4.616,4.616,0,0,1,4.71,4.922A4.638,4.638,0,0,1,124.134-.2Zm14.474-9.606v-2.355h-2.434V1.863h2.54V-5.122c0-3.07,1.694-4.737,4.419-4.737a4.486,4.486,0,0,1,.582.026v-2.461C141.254-12.294,139.508-11.447,138.608-9.806ZM159.38-5.07c0-4.313-2.884-7.224-6.933-7.224a6.868,6.868,0,0,0-7.039,7.145c0,4.181,3.017,7.171,7.542,7.171a7.039,7.039,0,0,0,5.53-2.276l-1.4-1.641A5.236,5.236,0,0,1,153.03-.2c-2.778,0-4.763-1.641-5.081-4.1h11.378C159.354-4.54,159.38-4.858,159.38-5.07Zm-6.933-5.081a4.374,4.374,0,0,1,4.5,4.022h-9A4.372,4.372,0,0,1,152.447-10.15ZM166.922,2.022c3.731,0,6.06-1.614,6.06-4.154,0-5.451-8.891-2.752-8.891-6.06,0-1.111,1.085-1.932,3.308-1.932a7.324,7.324,0,0,1,4.049,1.111l1.085-2.011a10.205,10.205,0,0,0-5.107-1.27c-3.6,0-5.848,1.694-5.848,4.207,0,5.583,8.865,2.858,8.865,6.007,0,1.191-.979,1.905-3.334,1.905a9.012,9.012,0,0,1-4.922-1.455L161.127.382A10.122,10.122,0,0,0,166.922,2.022Zm13.257,0c3.731,0,6.06-1.614,6.06-4.154,0-5.451-8.891-2.752-8.891-6.06,0-1.111,1.085-1.932,3.308-1.932A7.324,7.324,0,0,1,184.7-9.012l1.085-2.011a10.205,10.205,0,0,0-5.107-1.27c-3.6,0-5.848,1.694-5.848,4.207,0,5.583,8.865,2.858,8.865,6.007,0,1.191-.979,1.905-3.334,1.905a9.012,9.012,0,0,1-4.922-1.455L174.384.382A10.122,10.122,0,0,0,180.179,2.022Z" transform="translate(21.167 46.835)" fill="#110e32"/>
      </g>
      <rect id="Highlight" width="250" height="36" rx="5" transform="translate(90 143)" fill="#ece5ff"/>
      <path id="marcus88_gmail.com" data-name="marcus88@gmail.com" d="M14.8-9.22a4.74,4.74,0,0,0-4.049,1.945A3.893,3.893,0,0,0,7.1-9.22,4.263,4.263,0,0,0,3.464-7.553V-9.121H1.638V1.4H3.543V-4.02c0-2.282,1.25-3.493,3.156-3.493,1.727,0,2.719,1.012,2.719,3.076V1.4h1.905V-4.02c0-2.282,1.25-3.493,3.156-3.493,1.727,0,2.719,1.012,2.719,3.076V1.4H19.1V-4.656C19.1-7.752,17.356-9.22,14.8-9.22Zm11.65,0A7,7,0,0,0,22.1-7.871l.794,1.429a5.319,5.319,0,0,1,3.334-1.131c1.885,0,2.818.933,2.818,2.54v.377H26.029c-3.136,0-4.227,1.389-4.227,3.076,0,1.826,1.508,3.1,3.89,3.1A3.9,3.9,0,0,0,29.145.008V1.4h1.806V-4.953C30.951-7.831,29.323-9.22,26.446-9.22ZM26.009.048c-1.449,0-2.322-.655-2.322-1.707,0-.893.536-1.627,2.421-1.627h2.937v1.469A3.05,3.05,0,0,1,26.009.048Zm10.3-7.4V-9.121H34.483V1.4h1.905V-3.842c0-2.3,1.27-3.552,3.314-3.552a3.364,3.364,0,0,1,.437.02V-9.22C38.294-9.22,36.984-8.585,36.309-7.355ZM46.967,1.517A4.706,4.706,0,0,0,51.253-.746L49.8-1.659A3.279,3.279,0,0,1,46.947-.15a3.485,3.485,0,0,1-3.612-3.711,3.491,3.491,0,0,1,3.612-3.691A3.279,3.279,0,0,1,49.8-6.045l1.449-.933A4.691,4.691,0,0,0,46.967-9.22,5.255,5.255,0,0,0,41.41-3.862,5.271,5.271,0,0,0,46.967,1.517ZM61.613-9.121v5.438c0,2.262-1.27,3.493-3.255,3.493-1.806,0-2.838-1.032-2.838-3.1V-9.121H53.615v6.053c0,3.1,1.806,4.584,4.525,4.584A4.28,4.28,0,0,0,61.712-.19V1.4h1.806V-9.121ZM70.167,1.517c2.8,0,4.545-1.211,4.545-3.116,0-4.088-6.668-2.064-6.668-4.545,0-.834.814-1.449,2.481-1.449a5.493,5.493,0,0,1,3.036.834l.814-1.508a7.654,7.654,0,0,0-3.83-.953c-2.7,0-4.386,1.27-4.386,3.156,0,4.188,6.648,2.143,6.648,4.505,0,.893-.734,1.429-2.5,1.429a6.759,6.759,0,0,1-3.691-1.092L65.82.286A7.592,7.592,0,0,0,70.167,1.517Zm14.567-7.4a3.158,3.158,0,0,0,1.965-3c0-2.322-2.024-3.771-5.041-3.771-3,0-5,1.449-5,3.771a3.14,3.14,0,0,0,1.945,3A3.444,3.444,0,0,0,76.16-2.532c0,2.52,2.124,4.088,5.5,4.088,3.394,0,5.537-1.568,5.537-4.088A3.455,3.455,0,0,0,84.734-5.886Zm-3.076-5.16c1.866,0,3.1.853,3.1,2.243,0,1.369-1.171,2.223-3.1,2.223-1.905,0-3.036-.853-3.036-2.223C78.621-10.193,79.792-11.046,81.658-11.046Zm0,10.995c-2.2,0-3.513-.972-3.513-2.54,0-1.528,1.31-2.481,3.513-2.481s3.552.953,3.552,2.481C85.21-1.024,83.861-.051,81.658-.051ZM97.515-5.886a3.158,3.158,0,0,0,1.965-3c0-2.322-2.024-3.771-5.041-3.771-3,0-5,1.449-5,3.771a3.14,3.14,0,0,0,1.945,3,3.444,3.444,0,0,0-2.441,3.354c0,2.52,2.124,4.088,5.5,4.088,3.394,0,5.537-1.568,5.537-4.088A3.455,3.455,0,0,0,97.515-5.886Zm-3.076-5.16c1.866,0,3.1.853,3.1,2.243,0,1.369-1.171,2.223-3.1,2.223-1.905,0-3.036-.853-3.036-2.223C91.4-10.193,92.573-11.046,94.439-11.046Zm0,10.995c-2.2,0-3.513-.972-3.513-2.54,0-1.528,1.31-2.481,3.513-2.481s3.552.953,3.552,2.481C97.991-1.024,96.642-.051,94.439-.051Zm16.73-12.582c-5.557,0-9.367,3.751-9.367,8.99,0,5.259,3.771,9.05,9.288,9.05a10,10,0,0,0,4.267-.933L114.92,3.2a8.564,8.564,0,0,1-3.83.873c-4.7,0-7.839-3.175-7.839-7.72,0-4.505,3.175-7.68,7.919-7.68,4.684,0,7.9,2.977,7.9,7.422,0,2.481-.675,3.91-1.846,3.91-.615,0-1.131-.377-1.131-1.429V-8.565h-1.727v1.608a4.325,4.325,0,0,0-3.632-1.687,4.787,4.787,0,0,0-4.862,5.061,4.821,4.821,0,0,0,4.862,5.1A4.247,4.247,0,0,0,114.5-.369a2.232,2.232,0,0,0,2.382,1.885c2.243,0,3.533-2.064,3.533-5.438C120.417-9.061,116.607-12.634,111.169-12.634Zm-.159,12.6a3.29,3.29,0,0,1-3.374-3.552,3.263,3.263,0,0,1,3.374-3.533A3.288,3.288,0,0,1,114.4-3.584,3.3,3.3,0,0,1,111.01-.031Zm20.422-9.09v1.627a4.8,4.8,0,0,0-3.89-1.727A5.022,5.022,0,0,0,122.2-4.14a5.037,5.037,0,0,0,5.339,5.1,4.813,4.813,0,0,0,3.791-1.627V.167c0,2.382-1.131,3.533-3.612,3.533a6.42,6.42,0,0,1-4.049-1.369L122.759,3.8a7.787,7.787,0,0,0,5.021,1.568c3.572,0,5.458-1.687,5.458-5.4v-9.09ZM127.76-.706a3.39,3.39,0,0,1-3.632-3.433,3.364,3.364,0,0,1,3.632-3.414,3.358,3.358,0,0,1,3.612,3.414A3.384,3.384,0,0,1,127.76-.706ZM150.028-9.22a4.74,4.74,0,0,0-4.049,1.945,3.893,3.893,0,0,0-3.652-1.945A4.263,4.263,0,0,0,138.7-7.553V-9.121H136.87V1.4h1.905V-4.02c0-2.282,1.25-3.493,3.156-3.493,1.727,0,2.719,1.012,2.719,3.076V1.4h1.905V-4.02c0-2.282,1.25-3.493,3.156-3.493,1.727,0,2.719,1.012,2.719,3.076V1.4h1.905V-4.656C154.334-7.752,152.588-9.22,150.028-9.22Zm11.65,0a7,7,0,0,0-4.346,1.35l.794,1.429a5.319,5.319,0,0,1,3.334-1.131c1.885,0,2.818.933,2.818,2.54v.377h-3.017c-3.136,0-4.227,1.389-4.227,3.076,0,1.826,1.508,3.1,3.89,3.1A3.9,3.9,0,0,0,164.376.008V1.4h1.806V-4.953C166.182-7.831,164.555-9.22,161.677-9.22ZM161.241.048c-1.449,0-2.322-.655-2.322-1.707,0-.893.536-1.627,2.421-1.627h2.937v1.469A3.05,3.05,0,0,1,161.241.048Zm9.427-11.193a1.247,1.247,0,0,0,1.29-1.27,1.235,1.235,0,0,0-1.29-1.211,1.254,1.254,0,0,0-1.29,1.25A1.238,1.238,0,0,0,170.668-11.145ZM169.715,1.4h1.905V-9.121h-1.905Zm5.537,0h1.905V-13.328h-1.905Zm5.994.119a1.323,1.323,0,0,0,1.31-1.369,1.306,1.306,0,0,0-1.31-1.35A1.326,1.326,0,0,0,179.9.147,1.343,1.343,0,0,0,181.246,1.517Zm8.395,0a4.706,4.706,0,0,0,4.287-2.262l-1.449-.913A3.279,3.279,0,0,1,189.621-.15a3.485,3.485,0,0,1-3.612-3.711,3.491,3.491,0,0,1,3.612-3.691,3.279,3.279,0,0,1,2.858,1.508l1.449-.933a4.691,4.691,0,0,0-4.287-2.243,5.255,5.255,0,0,0-5.557,5.358A5.271,5.271,0,0,0,189.641,1.517Zm11.094,0a5.234,5.234,0,0,0,5.458-5.378,5.218,5.218,0,0,0-5.458-5.358,5.234,5.234,0,0,0-5.478,5.358A5.25,5.25,0,0,0,200.735,1.517Zm0-1.667a3.483,3.483,0,0,1-3.552-3.711,3.466,3.466,0,0,1,3.552-3.691,3.451,3.451,0,0,1,3.533,3.691A3.468,3.468,0,0,1,200.735-.15ZM221.99-9.22a4.74,4.74,0,0,0-4.049,1.945A3.893,3.893,0,0,0,214.29-9.22a4.263,4.263,0,0,0-3.632,1.667V-9.121h-1.826V1.4h1.905V-4.02c0-2.282,1.25-3.493,3.156-3.493,1.727,0,2.719,1.012,2.719,3.076V1.4h1.905V-4.02c0-2.282,1.25-3.493,3.156-3.493,1.727,0,2.719,1.012,2.719,3.076V1.4H226.3V-4.656C226.3-7.752,224.55-9.22,221.99-9.22Z" transform="translate(101.082 166.192)" fill="#4300ff"/>
      <path id="Resend_email" data-name="Resend email" d="M11.685,1.218,8.669-3.016A3.828,3.828,0,0,0,11.491-6.9c0-2.646-1.905-4.234-5.045-4.234H1.824V1.218H3.129V-2.7H6.446a8.791,8.791,0,0,0,.988-.053l2.823,3.969ZM6.411-3.81H3.129V-10H6.411c2.47,0,3.775,1.129,3.775,3.1C10.186-4.957,8.88-3.81,6.411-3.81Zm16,.388a4.422,4.422,0,0,0-4.5-4.71,4.469,4.469,0,0,0-4.534,4.71,4.6,4.6,0,0,0,4.869,4.728A4.568,4.568,0,0,0,21.829-.211l-.706-.811A3.658,3.658,0,0,1,18.283.194a3.435,3.435,0,0,1-3.652-3.228h7.762C22.393-3.175,22.411-3.316,22.411-3.422Zm-4.5-3.634a3.227,3.227,0,0,1,3.3,3.087h-6.58A3.223,3.223,0,0,1,17.913-7.056Zm9.544,8.362c2.417,0,3.828-1.041,3.828-2.646,0-3.563-6.016-1.676-6.016-4.181,0-.882.741-1.535,2.417-1.535a4.756,4.756,0,0,1,2.734.794l.547-1.006a6.288,6.288,0,0,0-3.281-.864c-2.364,0-3.669,1.129-3.669,2.646,0,3.669,6.016,1.764,6.016,4.181,0,.917-.723,1.517-2.487,1.517a5.6,5.6,0,0,1-3.3-1.041l-.565.988A6.2,6.2,0,0,0,27.456,1.306ZM41.693-3.422a4.422,4.422,0,0,0-4.5-4.71,4.469,4.469,0,0,0-4.534,4.71,4.6,4.6,0,0,0,4.869,4.728A4.568,4.568,0,0,0,41.111-.211L40.4-1.023A3.658,3.658,0,0,1,37.565.194a3.435,3.435,0,0,1-3.652-3.228h7.762C41.675-3.175,41.693-3.316,41.693-3.422Zm-4.5-3.634a3.227,3.227,0,0,1,3.3,3.087h-6.58A3.223,3.223,0,0,1,37.194-7.056ZM48.978-8.132A3.9,3.9,0,0,0,45.45-6.35V-8.062h-1.2V1.218H45.5V-3.651A3.042,3.042,0,0,1,48.749-7C50.513-7,51.536-6,51.536-4.039V1.218h1.253V-4.163C52.789-6.827,51.237-8.132,48.978-8.132Zm14.466-3.74V-6.3a4.053,4.053,0,0,0-3.528-1.835,4.489,4.489,0,0,0-4.622,4.71,4.5,4.5,0,0,0,4.622,4.728A4.02,4.02,0,0,0,63.5-.617V1.218h1.2v-13.09ZM60.022.194a3.4,3.4,0,0,1-3.458-3.616,3.4,3.4,0,0,1,3.458-3.616,3.394,3.394,0,0,1,3.44,3.616A3.394,3.394,0,0,1,60.022.194ZM80.909-3.422a4.422,4.422,0,0,0-4.5-4.71,4.469,4.469,0,0,0-4.534,4.71,4.6,4.6,0,0,0,4.869,4.728A4.568,4.568,0,0,0,80.327-.211l-.706-.811A3.658,3.658,0,0,1,76.781.194a3.435,3.435,0,0,1-3.652-3.228h7.762C80.891-3.175,80.909-3.316,80.909-3.422Zm-4.5-3.634a3.227,3.227,0,0,1,3.3,3.087h-6.58A3.223,3.223,0,0,1,76.41-7.056ZM95.039-8.132A4.041,4.041,0,0,0,91.37-6.174a3.333,3.333,0,0,0-3.3-1.958,3.752,3.752,0,0,0-3.4,1.764V-8.062h-1.2V1.218h1.253V-3.651c0-2.117,1.217-3.352,3.1-3.352C89.518-7,90.505-6,90.505-4.039V1.218h1.253V-3.651c0-2.117,1.2-3.352,3.1-3.352C96.539-7,97.527-6,97.527-4.039V1.218h1.253V-4.163C98.779-6.827,97.3-8.132,95.039-8.132Zm10.391,0a5.892,5.892,0,0,0-3.775,1.253l.565.935a4.727,4.727,0,0,1,3.087-1.094c1.729,0,2.629.864,2.629,2.452v.565h-2.946c-2.664,0-3.581,1.2-3.581,2.629,0,1.605,1.288,2.7,3.387,2.7a3.484,3.484,0,0,0,3.193-1.535V1.218h1.2V-4.533C109.187-6.933,107.829-8.132,105.43-8.132Zm-.441,8.45c-1.482,0-2.346-.67-2.346-1.746,0-.953.582-1.658,2.382-1.658h2.911V-1.57A2.969,2.969,0,0,1,104.989.318Zm8.238-10.408a.9.9,0,0,0,.917-.917.89.89,0,0,0-.917-.864.9.9,0,0,0-.917.882A.907.907,0,0,0,113.227-10.09Zm-.635,11.308h1.253V-8.062h-1.253Zm4.745,0h1.253v-13.09h-1.253Z" transform="translate(154.925 221.5)" fill="#767488"/>
    </g>
    <g id="Invite" transform="translate(470 659)">
      <rect id="Card-5" data-name="Card" width="430" height="297" rx="20" transform="translate(0)" fill="#fff"/>
      <g id="Heading-5" data-name="Heading" transform="translate(92.576 60.853)">
        <path id="Have_other_people" data-name="Have other people" d="M15.8-16.7v7.965H5.166V-16.7H2.52V1.826H5.166V-6.43H15.8V1.826H18.45V-16.7Zm12.94,4.366a9.34,9.34,0,0,0-5.8,1.8l1.058,1.905a7.092,7.092,0,0,1,4.446-1.508c2.514,0,3.758,1.244,3.758,3.387v.5H28.188c-4.181,0-5.636,1.852-5.636,4.1,0,2.434,2.011,4.128,5.186,4.128,2.2,0,3.758-.741,4.6-2.011V1.826H34.75V-6.641C34.75-10.478,32.58-12.33,28.743-12.33ZM28.161.027c-1.932,0-3.1-.873-3.1-2.276,0-1.191.714-2.17,3.228-2.17H32.21V-2.46A4.067,4.067,0,0,1,28.161.027ZM49.119-12.2,44.2-.952,39.381-12.2H36.735L42.874,1.826h2.593L51.606-12.2ZM66.266-5.106c0-4.313-2.884-7.224-6.933-7.224a6.868,6.868,0,0,0-7.039,7.145c0,4.181,3.017,7.171,7.542,7.171A7.039,7.039,0,0,0,65.366-.29l-1.4-1.641A5.236,5.236,0,0,1,59.915-.238c-2.778,0-4.763-1.641-5.081-4.1H66.213C66.239-4.577,66.266-4.895,66.266-5.106Zm-6.933-5.081a4.374,4.374,0,0,1,4.5,4.022h-9A4.372,4.372,0,0,1,59.333-10.187ZM82.91,1.985a6.978,6.978,0,0,0,7.277-7.171A6.957,6.957,0,0,0,82.91-12.33a6.979,6.979,0,0,0-7.3,7.145A7,7,0,0,0,82.91,1.985Zm0-2.223a4.644,4.644,0,0,1-4.737-4.948,4.622,4.622,0,0,1,4.737-4.922,4.6,4.6,0,0,1,4.71,4.922A4.623,4.623,0,0,1,82.91-.238ZM100.8-.82a3.2,3.2,0,0,1-1.985.662,2.067,2.067,0,0,1-2.2-2.355v-7.594h4.022V-12.2H96.617v-3.07h-2.54v3.07H91.7v2.09h2.382v7.7c0,2.831,1.614,4.393,4.446,4.393a4.792,4.792,0,0,0,3.07-.979ZM112.15-12.33a6.081,6.081,0,0,0-4.948,2.117v-7.594h-2.54V1.826h2.54V-5.4c0-3.043,1.746-4.657,4.446-4.657,2.408,0,3.784,1.35,3.784,4.1v7.78h2.54V-6.244C117.972-10.372,115.564-12.33,112.15-12.33Zm23.286,7.224c0-4.313-2.884-7.224-6.933-7.224a6.868,6.868,0,0,0-7.039,7.145c0,4.181,3.017,7.171,7.542,7.171a7.039,7.039,0,0,0,5.53-2.276l-1.4-1.641a5.236,5.236,0,0,1-4.049,1.694c-2.778,0-4.763-1.641-5.081-4.1h11.378C135.41-4.577,135.436-4.895,135.436-5.106ZM128.5-10.187A4.374,4.374,0,0,1,133-6.165h-9A4.372,4.372,0,0,1,128.5-10.187Zm12.887.344V-12.2h-2.434V1.826h2.54V-5.159c0-3.07,1.694-4.737,4.419-4.737a4.485,4.485,0,0,1,.582.026V-12.33C144.036-12.33,142.29-11.484,141.39-9.843Zm22.969-2.487a5.973,5.973,0,0,0-5,2.355V-12.2h-2.434V6.96h2.54V-.29a5.989,5.989,0,0,0,4.9,2.276,6.814,6.814,0,0,0,7.092-7.171A6.807,6.807,0,0,0,164.359-12.33ZM164.147-.238a4.638,4.638,0,0,1-4.71-4.948,4.63,4.63,0,0,1,4.71-4.922,4.636,4.636,0,0,1,4.737,4.922A4.644,4.644,0,0,1,164.147-.238Zm23.5-4.869c0-4.313-2.884-7.224-6.933-7.224a6.868,6.868,0,0,0-7.039,7.145c0,4.181,3.017,7.171,7.542,7.171a7.039,7.039,0,0,0,5.53-2.276l-1.4-1.641a5.236,5.236,0,0,1-4.049,1.694c-2.778,0-4.763-1.641-5.081-4.1h11.378C187.618-4.577,187.645-4.895,187.645-5.106Zm-6.933-5.081a4.374,4.374,0,0,1,4.5,4.022h-9A4.372,4.372,0,0,1,180.712-10.187ZM197.171,1.985a6.978,6.978,0,0,0,7.277-7.171,6.957,6.957,0,0,0-7.277-7.145,6.979,6.979,0,0,0-7.3,7.145A7,7,0,0,0,197.171,1.985Zm0-2.223a4.644,4.644,0,0,1-4.737-4.948,4.622,4.622,0,0,1,4.737-4.922,4.6,4.6,0,0,1,4.71,4.922A4.623,4.623,0,0,1,197.171-.238ZM215.4-12.33a5.973,5.973,0,0,0-5,2.355V-12.2h-2.434V6.96h2.54V-.29a5.989,5.989,0,0,0,4.9,2.276,6.814,6.814,0,0,0,7.092-7.171A6.807,6.807,0,0,0,215.4-12.33ZM215.191-.238a4.638,4.638,0,0,1-4.71-4.948,4.63,4.63,0,0,1,4.71-4.922,4.636,4.636,0,0,1,4.737,4.922A4.644,4.644,0,0,1,215.191-.238Zm10.823,2.064h2.54V-17.808h-2.54Zm20.058-6.933c0-4.313-2.884-7.224-6.933-7.224A6.868,6.868,0,0,0,232.1-5.186c0,4.181,3.017,7.171,7.542,7.171a7.039,7.039,0,0,0,5.53-2.276l-1.4-1.641a5.236,5.236,0,0,1-4.049,1.694c-2.778,0-4.763-1.641-5.081-4.1h11.378C246.046-4.577,246.072-4.895,246.072-5.106Zm-6.933-5.081a4.374,4.374,0,0,1,4.5,4.022h-9A4.372,4.372,0,0,1,239.139-10.187Z" transform="translate(-1.038 17.808)" fill="#110e32"/>
        <path id="that_you_live_with_" data-name="that you live with?" d="M9.463-.783a3.2,3.2,0,0,1-1.985.662,2.067,2.067,0,0,1-2.2-2.355v-7.594H9.3v-2.09H5.282v-3.07H2.742v3.07H.36v2.09H2.742v7.7c0,2.831,1.614,4.393,4.446,4.393a4.792,4.792,0,0,0,3.07-.979ZM20.815-12.294a6.081,6.081,0,0,0-4.948,2.117v-7.594h-2.54V1.863h2.54V-5.361c0-3.043,1.746-4.657,4.446-4.657,2.408,0,3.784,1.35,3.784,4.1v7.78h2.54V-6.207C26.636-10.335,24.228-12.294,20.815-12.294Zm15.639,0a9.34,9.34,0,0,0-5.8,1.8l1.058,1.905A7.092,7.092,0,0,1,36.162-10.1c2.514,0,3.758,1.244,3.758,3.387v.5H35.9c-4.181,0-5.636,1.852-5.636,4.1,0,2.434,2.011,4.128,5.186,4.128,2.2,0,3.758-.741,4.6-2.011V1.863H42.46V-6.6C42.46-10.441,40.29-12.294,36.454-12.294ZM35.871.064c-1.932,0-3.1-.873-3.1-2.276,0-1.191.714-2.17,3.228-2.17H39.92v1.958A4.067,4.067,0,0,1,35.871.064ZM54.262-.783a3.2,3.2,0,0,1-1.985.662,2.067,2.067,0,0,1-2.2-2.355v-7.594H54.1v-2.09H50.081v-3.07h-2.54v3.07H45.159v2.09h2.382v7.7c0,2.831,1.614,4.393,4.446,4.393a4.792,4.792,0,0,0,3.07-.979Zm20.9-11.378L70.324-.942l-4.9-11.22H62.783l6.192,14-.45.979c-.688,1.614-1.455,2.17-2.673,2.17a3.588,3.588,0,0,1-2.514-1.032L62.254,5.859a5.266,5.266,0,0,0,3.6,1.3c2.143,0,3.758-.926,5-3.89l6.8-15.427ZM85.646,2.022a6.978,6.978,0,0,0,7.277-7.171,6.957,6.957,0,0,0-7.277-7.145,6.979,6.979,0,0,0-7.3,7.145A7,7,0,0,0,85.646,2.022Zm0-2.223a4.644,4.644,0,0,1-4.737-4.948,4.622,4.622,0,0,1,4.737-4.922,4.6,4.6,0,0,1,4.71,4.922A4.623,4.623,0,0,1,85.646-.2Zm21.328-11.961v7.25c0,3.017-1.694,4.657-4.34,4.657-2.408,0-3.784-1.376-3.784-4.128v-7.78H96.31V-4.09c0,4.128,2.408,6.113,6.033,6.113a5.706,5.706,0,0,0,4.763-2.276V1.863h2.408V-12.161Zm14.5,14.025h2.54V-17.771h-2.54Zm8.653-16.724a1.662,1.662,0,0,0,1.72-1.694,1.646,1.646,0,0,0-1.72-1.614,1.673,1.673,0,0,0-1.72,1.667A1.651,1.651,0,0,0,130.127-14.86Zm-1.27,16.724h2.54V-12.161h-2.54Zm17.306-14.025L141.241-.915l-4.816-11.246h-2.646l6.139,14.025h2.593l6.139-14.025ZM163.31-5.07c0-4.313-2.884-7.224-6.933-7.224a6.868,6.868,0,0,0-7.039,7.145c0,4.181,3.017,7.171,7.542,7.171a7.039,7.039,0,0,0,5.53-2.276l-1.4-1.641A5.236,5.236,0,0,1,156.959-.2c-2.778,0-4.763-1.641-5.081-4.1h11.378C163.284-4.54,163.31-4.858,163.31-5.07Zm-6.933-5.081a4.374,4.374,0,0,1,4.5,4.022h-9A4.372,4.372,0,0,1,156.377-10.15Zm36.517-2.011L188.713-.942l-4.154-11.22h-2.143L178.182-.994l-4.075-11.167H171.7l5.213,14.025h2.434l4.1-10.638L187.5,1.863h2.434l5.239-14.025Zm6.113-2.7a1.662,1.662,0,0,0,1.72-1.694,1.646,1.646,0,0,0-1.72-1.614,1.673,1.673,0,0,0-1.72,1.667A1.651,1.651,0,0,0,199.007-14.86Zm-1.27,16.724h2.54V-12.161h-2.54ZM212.211-.783a3.2,3.2,0,0,1-1.985.662,2.067,2.067,0,0,1-2.2-2.355v-7.594h4.022v-2.09H208.03v-3.07h-2.54v3.07h-2.382v2.09h2.382v7.7c0,2.831,1.614,4.393,4.446,4.393A4.792,4.792,0,0,0,213,1.043Zm11.352-11.511a6.081,6.081,0,0,0-4.948,2.117v-7.594h-2.54V1.863h2.54V-5.361c0-3.043,1.746-4.657,4.446-4.657,2.408,0,3.784,1.35,3.784,4.1v7.78h2.54V-6.207C229.385-10.335,226.977-12.294,223.563-12.294Zm12.913,8.309h2.646c0-3.466,4.684-3.758,4.684-8.177,0-2.937-2.461-4.71-6.271-4.71a8.228,8.228,0,0,0-6.854,2.964l1.932,1.376a5.635,5.635,0,0,1,4.737-2.09c2.382,0,3.784,1.164,3.784,2.858C241.134-8.721,236.476-8.139,236.476-3.985Zm1.35,6.007A1.672,1.672,0,0,0,239.519.329a1.656,1.656,0,0,0-1.694-1.694,1.662,1.662,0,0,0-1.72,1.694A1.678,1.678,0,0,0,237.826,2.022Z" transform="translate(-0.36 46.438)" fill="#110e32"/>
      </g>
      <rect id="Button-4" data-name="Button" width="323" height="49" rx="8" transform="translate(54 149)" fill="#4300ff"/>
      <path id="Share_an_invite" data-name="Share an invite" d="M6.057,1.556c3.672,0,5.378-1.826,5.378-3.949,0-5.1-8.415-2.977-8.415-6.371,0-1.211,1.012-2.2,3.374-2.2A7.174,7.174,0,0,1,10.2-9.835l.655-1.588a8.173,8.173,0,0,0-4.465-1.23c-3.652,0-5.319,1.826-5.319,3.969,0,5.16,8.415,3.017,8.415,6.41,0,1.211-1.032,2.143-3.433,2.143A7.15,7.15,0,0,1,1.472-1.738L.738-.19A8.246,8.246,0,0,0,6.057,1.556ZM19.671-9.22A4.561,4.561,0,0,0,15.96-7.632v-5.7H14.055V1.4H15.96V-4.02c0-2.282,1.31-3.493,3.334-3.493,1.806,0,2.838,1.012,2.838,3.076V1.4h1.905V-4.656C24.037-7.752,22.231-9.22,19.671-9.22Zm11.729,0a7,7,0,0,0-4.346,1.35l.794,1.429a5.319,5.319,0,0,1,3.334-1.131c1.885,0,2.818.933,2.818,2.54v.377H30.984c-3.136,0-4.227,1.389-4.227,3.076,0,1.826,1.508,3.1,3.89,3.1A3.9,3.9,0,0,0,34.1.008V1.4h1.806V-4.953C35.905-7.831,34.278-9.22,31.4-9.22ZM30.964.048c-1.449,0-2.322-.655-2.322-1.707,0-.893.536-1.627,2.421-1.627H34v1.469A3.05,3.05,0,0,1,30.964.048Zm10.3-7.4V-9.121H39.438V1.4h1.905V-3.842c0-2.3,1.27-3.552,3.314-3.552a3.364,3.364,0,0,1,.437.02V-9.22C43.248-9.22,41.939-8.585,41.264-7.355ZM56.843-3.8a5.072,5.072,0,0,0-5.2-5.418,5.151,5.151,0,0,0-5.279,5.358c0,3.136,2.262,5.378,5.656,5.378A5.28,5.28,0,0,0,56.168-.19l-1.052-1.23A3.927,3.927,0,0,1,52.08-.15a3.563,3.563,0,0,1-3.81-3.076H56.8C56.823-3.405,56.843-3.643,56.843-3.8Zm-5.2-3.81A3.28,3.28,0,0,1,55.017-4.6H48.27A3.279,3.279,0,0,1,51.643-7.613ZM68.652-9.22a7,7,0,0,0-4.346,1.35L65.1-6.442a5.319,5.319,0,0,1,3.334-1.131c1.885,0,2.818.933,2.818,2.54v.377H68.235c-3.136,0-4.227,1.389-4.227,3.076,0,1.826,1.508,3.1,3.89,3.1A3.9,3.9,0,0,0,71.351.008V1.4h1.806V-4.953C73.157-7.831,71.529-9.22,68.652-9.22ZM68.215.048c-1.449,0-2.322-.655-2.322-1.707,0-.893.536-1.627,2.421-1.627h2.937v1.469A3.05,3.05,0,0,1,68.215.048ZM82.306-9.22a4.509,4.509,0,0,0-3.791,1.687V-9.121H76.689V1.4h1.905V-4.02c0-2.282,1.31-3.493,3.334-3.493,1.806,0,2.838,1.012,2.838,3.076V1.4h1.905V-4.656C86.672-7.752,84.866-9.22,82.306-9.22ZM96.5-11.145a1.247,1.247,0,0,0,1.29-1.27,1.235,1.235,0,0,0-1.29-1.211,1.254,1.254,0,0,0-1.29,1.25A1.238,1.238,0,0,0,96.5-11.145ZM95.543,1.4h1.905V-9.121H95.543ZM106.7-9.22a4.509,4.509,0,0,0-3.791,1.687V-9.121H101.08V1.4h1.905V-4.02c0-2.282,1.31-3.493,3.334-3.493,1.806,0,2.838,1.012,2.838,3.076V1.4h1.905V-4.656C111.063-7.752,109.257-9.22,106.7-9.22Zm15.143.1L118.148-.686l-3.612-8.435h-1.985l4.6,10.518H119.1l4.6-10.518Zm4.6-2.024a1.247,1.247,0,0,0,1.29-1.27,1.235,1.235,0,0,0-1.29-1.211,1.254,1.254,0,0,0-1.29,1.25A1.238,1.238,0,0,0,126.444-11.145ZM125.491,1.4H127.4V-9.121h-1.905ZM136.347-.587a2.4,2.4,0,0,1-1.488.5,1.55,1.55,0,0,1-1.647-1.766v-5.7h3.017V-9.121h-3.017v-2.3h-1.905v2.3H129.52v1.568h1.786v5.775a3,3,0,0,0,3.334,3.294,3.594,3.594,0,0,0,2.3-.734ZM148.393-3.8a5.072,5.072,0,0,0-5.2-5.418,5.151,5.151,0,0,0-5.279,5.358c0,3.136,2.262,5.378,5.656,5.378A5.28,5.28,0,0,0,147.719-.19l-1.052-1.23A3.927,3.927,0,0,1,143.63-.15a3.563,3.563,0,0,1-3.81-3.076h8.534C148.374-3.405,148.393-3.643,148.393-3.8Zm-5.2-3.81A3.28,3.28,0,0,1,146.568-4.6H139.82A3.279,3.279,0,0,1,143.194-7.613Z" transform="translate(140.424 179.423)" fill="#fff"/>
      <path id="Skip" d="M5.339,1.323c3.158,0,4.6-1.552,4.6-3.369,0-4.5-7.6-2.452-7.6-5.839,0-1.235,1.006-2.24,3.264-2.24A6.358,6.358,0,0,1,8.99-9.1l.441-1.041A6.971,6.971,0,0,0,5.6-11.237c-3.14,0-4.551,1.57-4.551,3.387,0,4.569,7.6,2.487,7.6,5.874C8.655-.758,7.65.212,5.339.212a6.064,6.064,0,0,1-4.075-1.5L.752-.282A6.7,6.7,0,0,0,5.339,1.323ZM19.7,1.218h1.535l-4.34-5.486,3.969-3.793H19.31L13.771-3v-8.873H12.519V1.218h1.253V-1.429L15.959-3.44ZM23.615-10.09a.9.9,0,0,0,.917-.917.89.89,0,0,0-.917-.864.9.9,0,0,0-.917.882A.907.907,0,0,0,23.615-10.09ZM22.98,1.218h1.253V-8.062H22.98Zm9.526-9.35a4.042,4.042,0,0,0-3.581,1.905V-8.062h-1.2V4.64h1.253V-.529a4.053,4.053,0,0,0,3.528,1.835,4.494,4.494,0,0,0,4.622-4.728A4.489,4.489,0,0,0,32.506-8.132ZM32.418.194A3.4,3.4,0,0,1,28.96-3.422a3.407,3.407,0,0,1,3.458-3.616,3.417,3.417,0,0,1,3.458,3.616A3.407,3.407,0,0,1,32.418.194Z" transform="translate(186.256 235.834)" fill="#767488"/>
      <path id="Arrow_icon-2" data-name="Arrow icon" d="M5.495.125h0A.652.652,0,0,0,5.4.208L.191,5.362a.634.634,0,0,0,0,.907.662.662,0,0,0,.848.061l.074-.063L5.231,2.193V13.471a.652.652,0,0,0,1.3.086l.006-.086V2.192l4.117,4.079a.662.662,0,0,0,.921,0,.635.635,0,0,0,.065-.836l-.056-.074L6.343.188A.662.662,0,0,0,5.495.125Z" transform="translate(243.555 225.106) rotate(90)" fill="#767488"/>
    </g>
  </g>
</svg>
